<svg width="64" height="64" viewBox="0 0 64 64" fill="none" xmlns="http://www.w3.org/2000/svg">
<path d="M51.6525 13.0403L36.0258 6.08031C33.7325 5.06698 30.2658 5.06698 27.9725 6.08031L12.3458 13.0403C8.39917 14.8003 7.8125 17.2003 7.8125 18.4803C7.8125 19.7603 8.39917 22.1603 12.3458 23.9203L27.9725 30.8803C29.1192 31.387 30.5592 31.6536 31.9992 31.6536C33.4392 31.6536 34.8792 31.387 36.0258 30.8803L51.6525 23.9203C55.5992 22.1603 56.1858 19.7603 56.1858 18.4803C56.1858 17.2003 55.6258 14.8003 51.6525 13.0403Z" fill="#110F14"/>
<path d="M32.0008 45.4402C30.9875 45.4402 29.9742 45.2268 29.0408 44.8268L11.0675 36.8268C8.32083 35.6002 6.1875 32.3202 6.1875 29.3068C6.1875 28.2135 7.0675 27.3335 8.16083 27.3335C9.25417 27.3335 10.1342 28.2135 10.1342 29.3068C10.1342 30.7468 11.3342 32.6135 12.6675 33.2002L30.6408 41.2002C31.4942 41.5735 32.4808 41.5735 33.3342 41.2002L51.3075 33.2002C52.6408 32.6135 53.8408 30.7735 53.8408 29.3068C53.8408 28.2135 54.7208 27.3335 55.8142 27.3335C56.9075 27.3335 57.7875 28.2135 57.7875 29.3068C57.7875 32.2935 55.6542 35.6002 52.9075 36.8268L34.9342 44.8268C34.0275 45.2268 33.0142 45.4402 32.0008 45.4402Z" fill="#110F14"/>
<path d="M32.0008 58.6667C30.9875 58.6667 29.9742 58.4534 29.0408 58.0534L11.0675 50.0534C8.1075 48.7467 6.1875 45.7867 6.1875 42.5334C6.1875 41.4401 7.0675 40.5601 8.16083 40.5601C9.25417 40.5601 10.1342 41.4401 10.1342 42.5334C10.1342 44.2134 11.1208 45.7334 12.6675 46.4267L30.6408 54.4267C31.4942 54.8001 32.4808 54.8001 33.3342 54.4267L51.3075 46.4267C52.8275 45.7601 53.8408 44.2134 53.8408 42.5334C53.8408 41.4401 54.7208 40.5601 55.8142 40.5601C56.9075 40.5601 57.7875 41.4401 57.7875 42.5334C57.7875 45.7867 55.8675 48.7201 52.9075 50.0534L34.9342 58.0534C34.0275 58.4534 33.0142 58.6667 32.0008 58.6667Z" fill="#110F14"/>
</svg>
