<svg width="80" height="80" viewBox="0 0 80 80" fill="none" xmlns="http://www.w3.org/2000/svg">
<path opacity="0.4" d="M59.8317 25.7004L59.365 25.4337L54.7317 22.7671L45.165 17.2337C42.2317 15.5337 37.765 15.5337 34.8317 17.2337L25.265 22.7671L20.6317 25.4671L20.0317 25.8004C14.065 29.8004 13.665 30.5337 13.665 36.9671V52.3337C13.665 58.7671 14.065 59.5004 20.165 63.6004L34.8317 72.0671C36.2984 72.9337 38.1317 73.3337 39.9984 73.3337C41.8317 73.3337 43.6984 72.9337 45.165 72.0671L59.965 63.5004C65.9317 59.5004 66.3317 58.7671 66.3317 52.3337V36.9671C66.3317 30.5337 65.9317 29.8004 59.8317 25.7004Z" fill="#FE5842"/>
<path d="M20.6348 25.4667L25.2681 22.7667L34.4014 17.5001L34.8348 17.2334C37.7681 15.5334 42.2348 15.5334 45.1681 17.2334L45.6014 17.5001L54.7348 22.7667L59.3681 25.4334V18.3001C59.3681 10.8001 55.2348 6.66675 47.7348 6.66675H32.2348C24.7348 6.66675 20.6348 10.8001 20.6348 18.3001V25.4667Z" fill="#FE5842"/>
<path d="M49.4661 44.4668L47.3995 47.0002C47.0661 47.3668 46.8328 48.1002 46.8661 48.6002L47.0661 51.8668C47.1995 53.8668 45.7661 54.9002 43.8995 54.1668L40.8661 52.9668C40.3995 52.8002 39.5995 52.8002 39.1328 52.9668L36.0995 54.1668C34.2328 54.9002 32.7995 53.8668 32.9328 51.8668L33.1328 48.6002C33.1661 48.1002 32.9328 47.3668 32.5995 47.0002L30.5328 44.4668C29.2328 42.9335 29.7995 41.2335 31.7328 40.7335L34.8995 39.9335C35.3995 39.8002 35.9995 39.3335 36.2661 38.9002L38.0328 36.1668C39.1328 34.4668 40.8661 34.4668 41.9661 36.1668L43.7328 38.9002C43.9995 39.3335 44.5995 39.8002 45.0995 39.9335L48.2661 40.7335C50.1995 41.2335 50.7661 42.9335 49.4661 44.4668Z" fill="#FE5842"/>
</svg>
