<svg width="80" height="80" viewBox="0 0 80 80" fill="none" xmlns="http://www.w3.org/2000/svg">
<path opacity="0.4" d="M26.6667 73.3334H53.3333C62.5333 73.3334 70 65.8667 70 56.6667V23.3334C70 14.1334 62.5333 6.66675 53.3333 6.66675H26.6667C17.4667 6.66675 10 14.1334 10 23.3334V56.6667C10 65.8667 17.4667 73.3334 26.6667 73.3334Z" fill="#FE5842"/>
<path d="M50.0001 19.0332H30.0001C26.5667 19.0332 23.7334 21.8332 23.7334 25.2999V28.6332C23.7334 32.0665 26.5334 34.8999 30.0001 34.8999H50.0001C53.4334 34.8999 56.2667 32.0999 56.2667 28.6332V25.2999C56.2667 21.8332 53.4667 19.0332 50.0001 19.0332Z" fill="#FE5842"/>
<path d="M27.2016 49.7336C26.735 49.7336 26.3016 49.6336 25.9016 49.4669C25.5016 49.3002 25.135 49.0669 24.835 48.7669C24.2016 48.1336 23.835 47.3002 23.835 46.4002C23.835 45.9669 23.935 45.5336 24.1016 45.1336C24.2683 44.7002 24.5016 44.3669 24.835 44.0336C25.6016 43.2669 26.7683 42.9002 27.835 43.1336C28.035 43.1669 28.2683 43.2336 28.4683 43.3336C28.6683 43.4002 28.8683 43.5002 29.035 43.6336C29.235 43.7336 29.4016 43.9002 29.535 44.0336C29.835 44.3669 30.1016 44.7002 30.2683 45.1336C30.435 45.5336 30.5016 45.9669 30.5016 46.4002C30.5016 47.3002 30.1683 48.1336 29.535 48.7669C28.9016 49.4002 28.0683 49.7336 27.2016 49.7336Z" fill="#FE5842"/>
<path d="M40.5013 49.7336C39.6346 49.7336 38.8013 49.4003 38.168 48.767C37.5346 48.1336 37.168 47.3003 37.168 46.4003C37.168 45.5336 37.5346 44.667 38.168 44.0336C39.4013 42.8003 41.6346 42.8003 42.868 44.0336C43.168 44.367 43.4346 44.7003 43.6013 45.1336C43.768 45.5336 43.8346 45.967 43.8346 46.4003C43.8346 47.3003 43.5013 48.1336 42.868 48.767C42.2346 49.4003 41.4013 49.7336 40.5013 49.7336Z" fill="#FE5842"/>
<path d="M53.8343 49.7336C52.9676 49.7336 52.1343 49.4003 51.501 48.767C50.8676 48.1336 50.501 47.3003 50.501 46.4003C50.501 45.5336 50.8676 44.667 51.501 44.0336C52.7343 42.8003 54.9676 42.8003 56.201 44.0336C56.8343 44.667 57.201 45.5336 57.201 46.4003C57.201 46.8336 57.101 47.267 56.9343 47.667C56.7676 48.067 56.5343 48.4336 56.201 48.767C55.5676 49.4003 54.7343 49.7336 53.8343 49.7336Z" fill="#FE5842"/>
<path d="M27.2016 63.0667C26.3016 63.0667 25.4683 62.7334 24.835 62.1001C24.2016 61.4667 23.835 60.6334 23.835 59.7334C23.835 58.8667 24.2016 58.0001 24.835 57.3667C25.135 57.0667 25.5016 56.8334 25.9016 56.6667C26.735 56.3334 27.635 56.3334 28.4683 56.6667C28.6683 56.7334 28.8683 56.8334 29.035 56.9667C29.235 57.0667 29.4016 57.2334 29.535 57.3667C30.1683 58.0001 30.535 58.8667 30.535 59.7334C30.535 60.6334 30.1683 61.4667 29.535 62.1001C28.9016 62.7334 28.0683 63.0667 27.2016 63.0667Z" fill="#FE5842"/>
<path d="M40.5013 63.0666C39.6346 63.0666 38.8013 62.7333 38.168 62.0999C37.5346 61.4666 37.168 60.6333 37.168 59.7333C37.168 59.4999 37.2013 59.2999 37.2346 59.0666C37.3013 58.8666 37.368 58.6666 37.4346 58.4666C37.5346 58.2666 37.6346 58.0666 37.7346 57.8666C37.868 57.6999 38.0013 57.5333 38.168 57.3666C38.468 57.0666 38.8346 56.8333 39.2346 56.6666C40.468 56.1666 41.9346 56.4333 42.868 57.3666C43.5013 57.9999 43.8346 58.8666 43.8346 59.7333C43.8346 60.6333 43.5013 61.4666 42.868 62.0999C42.568 62.3999 42.2013 62.6333 41.8013 62.7999C41.4013 62.9666 40.968 63.0666 40.5013 63.0666Z" fill="#FE5842"/>
<path d="M53.8342 63.0666C53.4008 63.0666 52.9675 62.9666 52.5675 62.7999C52.1675 62.6333 51.8008 62.3999 51.5008 62.0999C50.8675 61.4666 50.5342 60.6333 50.5342 59.7333C50.5342 58.8666 50.8675 57.9999 51.5008 57.3666C52.4008 56.4333 53.9008 56.1666 55.1342 56.6666C55.5342 56.8333 55.9008 57.0666 56.2008 57.3666C56.8342 57.9999 57.1675 58.8666 57.1675 59.7333C57.1675 60.6333 56.8342 61.4666 56.2008 62.0999C55.5675 62.7333 54.7342 63.0666 53.8342 63.0666Z" fill="#FE5842"/>
</svg>
