<svg width="50" height="54" viewBox="0 0 50 54" fill="none" xmlns="http://www.w3.org/2000/svg">
<path d="M43.5069 9.45318L29.7202 1.47984C27.0802 -0.0401562 22.9469 -0.0401562 20.3069 1.47984L6.38688 9.50651C0.866875 13.2398 0.546875 13.7998 0.546875 19.7465V34.2265C0.546875 40.1732 0.866875 40.7598 6.49354 44.5465L20.2802 52.5198C21.6135 53.2932 23.3202 53.6665 25.0002 53.6665C26.6802 53.6665 28.3869 53.2932 29.6935 52.5198L43.6135 44.4932C49.1335 40.7598 49.4535 40.1998 49.4535 34.2532V19.7465C49.4535 13.7998 49.1335 13.2398 43.5069 9.45318ZM25.0002 35.6665C20.2269 35.6665 16.3335 31.7732 16.3335 26.9998C16.3335 22.2265 20.2269 18.3332 25.0002 18.3332C29.7735 18.3332 33.6669 22.2265 33.6669 26.9998C33.6669 31.7732 29.7735 35.6665 25.0002 35.6665Z" fill="#110F14"/>
</svg>
