<svg width="64" height="64" viewBox="0 0 64 64" fill="none" xmlns="http://www.w3.org/2000/svg">
<path d="M50.5069 14.4532L36.7202 6.47984C34.0802 4.95984 29.9469 4.95984 27.3069 6.47984L13.3869 14.5065C7.86688 18.2398 7.54688 18.7998 7.54688 24.7465V39.2265C7.54688 45.1732 7.86688 45.7598 13.4935 49.5465L27.2802 57.5198C28.6135 58.2932 30.3202 58.6665 32.0002 58.6665C33.6802 58.6665 35.3869 58.2932 36.6935 57.5198L50.6135 49.4932C56.1335 45.7598 56.4535 45.1998 56.4535 39.2532V24.7465C56.4535 18.7998 56.1335 18.2398 50.5069 14.4532ZM32.0002 40.6665C27.2269 40.6665 23.3335 36.7732 23.3335 31.9998C23.3335 27.2265 27.2269 23.3332 32.0002 23.3332C36.7735 23.3332 40.6669 27.2265 40.6669 31.9998C40.6669 36.7732 36.7735 40.6665 32.0002 40.6665Z" fill="#110F14"/>
</svg>
