<svg width="80" height="80" viewBox="0 0 80 80" fill="none" xmlns="http://www.w3.org/2000/svg">
<path opacity="0.4" d="M25.4982 69.7004C25.3982 69.7004 25.2649 69.767 25.1649 69.767C18.6982 66.567 13.4316 61.267 10.1982 54.8004C10.1982 54.7004 10.2649 54.567 10.2649 54.467C14.3316 55.667 18.5316 56.567 22.6982 57.267C23.4316 61.467 24.2982 65.6337 25.4982 69.7004Z" fill="#FE5842"/>
<path opacity="0.4" d="M69.7998 54.8337C66.4998 61.467 60.9998 66.8337 54.2998 70.067C55.5665 65.8337 56.6331 61.567 57.3331 57.267C61.5331 56.567 65.6665 55.667 69.7331 54.467C69.6998 54.6004 69.7998 54.7337 69.7998 54.8337Z" fill="#FE5842"/>
<path opacity="0.4" d="M70.0665 25.7C65.8665 24.4333 61.6331 23.4 57.3331 22.6667C56.6331 18.3667 55.5998 14.1 54.2998 9.93335C61.1998 13.2333 66.7665 18.8 70.0665 25.7Z" fill="#FE5842"/>
<path opacity="0.4" d="M25.5012 10.3002C24.3012 14.3669 23.4346 18.5002 22.7346 22.7002C18.4346 23.3669 14.1679 24.4335 9.93457 25.7002C13.1679 19.0002 18.5346 13.5002 25.1679 10.2002C25.2679 10.2002 25.4012 10.3002 25.5012 10.3002Z" fill="#FE5842"/>
<path d="M51.6329 21.9667C43.8995 21.1001 36.0995 21.1001 28.3662 21.9667C29.1995 17.4001 30.2662 12.8334 31.7662 8.43341C31.8329 8.16675 31.7995 7.96675 31.8329 7.70008C34.4662 7.06675 37.1662 6.66675 39.9995 6.66675C42.7995 6.66675 45.5329 7.06675 48.1329 7.70008C48.1662 7.96675 48.1662 8.16675 48.2329 8.43341C49.7329 12.8667 50.7995 17.4001 51.6329 21.9667Z" fill="#FE5842"/>
<path d="M21.967 51.6334C17.367 50.8 12.8337 49.7334 8.43366 48.2334C8.16699 48.1667 7.96699 48.2 7.70033 48.1667C7.06699 45.5334 6.66699 42.8334 6.66699 40C6.66699 37.2 7.06699 34.4667 7.70033 31.8667C7.96699 31.8334 8.16699 31.8334 8.43366 31.7667C12.867 30.3 17.367 29.2 21.967 28.3667C21.1337 36.1 21.1337 43.9 21.967 51.6334Z" fill="#FE5842"/>
<path d="M73.3342 40C73.3342 42.8334 72.9342 45.5334 72.3008 48.1667C72.0342 48.2 71.8342 48.1667 71.5675 48.2334C67.1342 49.7 62.6008 50.8 58.0342 51.6334C58.9008 43.9 58.9008 36.1 58.0342 28.3667C62.6008 29.2 67.1675 30.2667 71.5675 31.7667C71.8342 31.8334 72.0342 31.8667 72.3008 31.8667C72.9342 34.5 73.3342 37.2 73.3342 40Z" fill="#FE5842"/>
<path d="M51.6329 58.033C50.7995 62.633 49.7329 67.1663 48.2329 71.5663C48.1662 71.833 48.1662 72.033 48.1329 72.2996C45.5329 72.933 42.7995 73.333 39.9995 73.333C37.1662 73.333 34.4662 72.933 31.8329 72.2996C31.7995 72.033 31.8329 71.833 31.7662 71.5663C30.2995 67.133 29.1995 62.633 28.3662 58.033C32.2329 58.4663 36.0995 58.7663 39.9995 58.7663C43.8995 58.7663 47.7995 58.4663 51.6329 58.033Z" fill="#FE5842"/>
<path d="M52.5448 52.5445C44.2078 53.5964 35.7929 53.5964 27.4559 52.5445C26.404 44.2075 26.404 35.7926 27.4559 27.4556C35.7929 26.4038 44.2078 26.4038 52.5448 27.4556C53.5966 35.7926 53.5966 44.2075 52.5448 52.5445Z" fill="#FE5842"/>
</svg>
