<svg width="80" height="80" viewBox="0 0 80 80" fill="none" xmlns="http://www.w3.org/2000/svg">
<path opacity="0.4" d="M35.8326 8.16689C38.1326 6.20023 41.8992 6.20023 44.2326 8.16689L49.4993 12.7002C50.4993 13.5668 52.3659 14.267 53.6992 14.267H59.3659C62.8993 14.267 65.7992 17.1669 65.7992 20.7003V26.3668C65.7992 27.6668 66.4992 29.5668 67.3659 30.5668L71.8993 35.8335C73.866 38.1335 73.866 41.9003 71.8993 44.2336L67.3659 49.5001C66.4992 50.5001 65.7992 52.3668 65.7992 53.7001V59.3668C65.7992 62.9002 62.8993 65.8002 59.3659 65.8002H53.6992C52.3992 65.8002 50.4993 66.5003 49.4993 67.3669L44.2326 71.9002C41.9326 73.8669 38.1659 73.8669 35.8326 71.9002L30.566 67.3669C29.566 66.5003 27.6993 65.8002 26.366 65.8002H20.5993C17.0659 65.8002 14.1659 62.9002 14.1659 59.3668V53.6668C14.1659 52.3668 13.466 50.5001 12.6326 49.5001L8.13262 44.2002C6.19928 41.9002 6.19928 38.1669 8.13262 35.8669L12.6326 30.5668C13.466 29.5668 14.1659 27.7001 14.1659 26.4001V20.7003C14.1659 17.1669 17.0659 14.267 20.5993 14.267H26.366C27.666 14.267 29.566 13.5668 30.566 12.7002L35.8326 8.16689Z" fill="#FE5842"/>
<path d="M55.2681 36.8999C54.6348 35.9999 53.5682 35.5 52.3015 35.5H45.8015C45.3682 35.5 44.9682 35.3333 44.7015 34.9999C44.4349 34.6666 44.3015 34.2333 44.3682 33.7666L45.1682 28.5666C45.5015 27.0333 44.4682 25.2666 42.9349 24.7666C41.5015 24.2332 39.8015 24.9665 39.1348 25.9665L32.6682 35.5665V34.3666C32.6682 32.0332 31.6682 31.0666 29.2016 31.0666H27.5682C25.1015 31.0666 24.1016 32.0332 24.1016 34.3666V50.3C24.1016 52.6333 25.1015 53.6 27.5682 53.6H29.2016C31.5349 53.6 32.5349 52.6999 32.6349 50.5665L37.5349 54.3332C38.2016 54.9999 39.7016 55.3665 40.7682 55.3665H46.9348C49.0681 55.3665 51.2015 53.7665 51.6682 51.7999L55.5682 39.9332C56.0016 38.8665 55.9015 37.7666 55.2681 36.8999Z" fill="#FE5842"/>
</svg>
