<svg width="64" height="64" viewBox="0 0 64 64" fill="none" xmlns="http://www.w3.org/2000/svg">
<path d="M54.8006 25.1734H51.8673C51.4673 25.1734 51.0673 25.2534 50.694 25.3601L37.3873 12.0534C38.6673 10.4001 38.5606 8.02677 37.0406 6.53344L34.9606 4.45344C33.3873 2.8801 30.614 2.8801 29.014 4.45344L26.934 6.53344C25.4406 8.02677 25.334 10.4001 26.614 12.0534L13.3073 25.3601C12.934 25.2534 12.534 25.1734 12.134 25.1734H9.20064C6.88064 25.1734 4.9873 27.0668 4.9873 29.3868V32.3201C4.9873 34.6401 6.88064 36.5334 9.20064 36.5334H12.134C14.454 36.5334 16.3473 34.6401 16.3473 32.3201V29.3868C16.3473 28.9868 16.2673 28.5868 16.1606 28.2134L29.4673 14.9068C30.1873 15.4668 31.094 15.7601 32.0006 15.7601C32.9073 15.7601 33.814 15.4401 34.5606 14.8801L47.8673 28.1868C47.7606 28.5601 47.6806 28.9601 47.6806 29.3601V32.2934C47.6806 34.6134 49.574 36.5068 51.894 36.5068H54.8273C57.1473 36.5068 59.0406 34.6134 59.0406 32.2934V29.3601C58.9873 27.0401 57.1206 25.1734 54.8006 25.1734Z" fill="#110F14"/>
<path d="M42.0005 44.134L37.6271 48.0007H26.2671L21.8938 44.134C19.3605 42.054 19.3605 40.454 21.2805 38.0007L28.9871 28.2407C29.5205 27.574 30.1338 27.1207 30.8271 26.8807C31.5471 26.6407 32.3205 26.6407 33.0671 26.8807C33.7338 27.1207 34.3471 27.574 34.9071 28.2407L42.6138 38.0007C44.5338 40.4274 44.4538 41.9473 42.0005 44.134Z" fill="#110F14"/>
<path d="M35.44 58.6661H28.5334C26.08 58.6661 24.24 56.6661 24.72 54.5328L25.5467 50.8261C25.7067 50.0794 26.3734 49.5728 27.12 49.5728H36.8534C37.6 49.5728 38.24 50.0794 38.4267 50.8261L39.2534 54.5328C39.7867 56.7994 38.0534 58.6661 35.44 58.6661Z" fill="#110F14"/>
</svg>
