<svg width="80" height="80" viewBox="0 0 80 80" fill="none" xmlns="http://www.w3.org/2000/svg">
<path opacity="0.4" d="M33.199 7.03287L14.8657 13.8995C11.3657 15.2329 8.49902 19.3662 8.49902 23.1329V50.1329C8.49902 52.8329 10.2657 56.3995 12.4324 57.9995L30.7657 71.6995C33.999 74.1329 39.299 74.1329 42.5324 71.6995L60.8657 57.9995C63.0324 56.3662 64.799 52.8329 64.799 50.1329V23.1329C64.799 19.3995 61.9324 15.2329 58.4324 13.9329L40.099 7.0662C38.2324 6.33287 35.099 6.33287 33.199 7.03287Z" fill="#FE5842"/>
<path d="M53.333 38.3667C45.0663 38.3667 38.333 45.1 38.333 53.3667C38.333 61.6334 45.0663 68.3667 53.333 68.3667C61.5997 68.3667 68.333 61.6334 68.333 53.3667C68.333 45.0667 61.5997 38.3667 53.333 38.3667Z" fill="#FE5842"/>
<path d="M70.0003 73.3329C69.1003 73.3329 68.267 72.9663 67.6337 72.3663C67.5003 72.1996 67.3337 72.0329 67.2337 71.8329C67.1003 71.6663 67.0003 71.4663 66.9337 71.2663C66.8337 71.0663 66.767 70.8663 66.7337 70.6663C66.7003 70.4329 66.667 70.2329 66.667 69.9996C66.667 69.5663 66.767 69.1329 66.9337 68.7329C67.1003 68.2996 67.3337 67.9663 67.6337 67.6329C68.4003 66.8663 69.567 66.4996 70.6337 66.7329C70.867 66.7663 71.067 66.8329 71.267 66.9329C71.467 66.9996 71.667 67.0996 71.8337 67.2329C72.0337 67.3329 72.2003 67.4996 72.367 67.6329C72.667 67.9663 72.9003 68.2996 73.067 68.7329C73.2337 69.1329 73.3337 69.5663 73.3337 69.9996C73.3337 70.8663 72.967 71.7329 72.367 72.3663C72.2003 72.4996 72.0337 72.6329 71.8337 72.7663C71.667 72.8996 71.467 72.9996 71.267 73.0663C71.067 73.1663 70.867 73.2329 70.6337 73.2663C70.4337 73.2996 70.2003 73.3329 70.0003 73.3329Z" fill="#FE5842"/>
</svg>
