<svg width="68" height="68" viewBox="0 0 68 68" fill="none" xmlns="http://www.w3.org/2000/svg">
<path opacity="0.4" d="M47.966 0.666504H20.0327C7.89935 0.666504 0.666016 7.89984 0.666016 20.0332V47.9332C0.666016 60.0998 7.89935 67.3332 20.0327 67.3332H47.9327C60.066 67.3332 67.2993 60.0998 67.2993 47.9665V20.0332C67.3327 7.89984 60.0993 0.666504 47.966 0.666504Z" fill="#FE5842"/>
<path d="M16.9326 57.0001C15.566 57.0001 14.4326 55.8668 14.4326 54.5001V47.6001C14.4326 46.2334 15.566 45.1001 16.9326 45.1001C18.2993 45.1001 19.4326 46.2334 19.4326 47.6001V54.5001C19.4326 55.9001 18.2993 57.0001 16.9326 57.0001Z" fill="#FE5842"/>
<path d="M33.999 56.9998C32.6324 56.9998 31.499 55.8665 31.499 54.4998V40.6665C31.499 39.2998 32.6324 38.1665 33.999 38.1665C35.3657 38.1665 36.499 39.2998 36.499 40.6665V54.4998C36.499 55.8998 35.3657 56.9998 33.999 56.9998Z" fill="#FE5842"/>
<path d="M51.0664 56.9997C49.6997 56.9997 48.5664 55.8664 48.5664 54.4997V33.7664C48.5664 32.3997 49.6997 31.2664 51.0664 31.2664C52.4331 31.2664 53.5664 32.3997 53.5664 33.7664V54.4997C53.5664 55.8997 52.4664 56.9997 51.0664 56.9997Z" fill="#FE5842"/>
<path d="M53.566 13.4002C53.566 13.2336 53.4993 13.0336 53.466 12.8669C53.4326 12.7336 53.3993 12.5669 53.3659 12.4336C53.2993 12.3002 53.1993 12.2002 53.1326 12.0669C53.0326 11.9336 52.9326 11.7669 52.7993 11.6669C52.7659 11.6336 52.766 11.6002 52.7326 11.6002C52.6326 11.5336 52.5326 11.5002 52.4326 11.4336C52.2993 11.3336 52.1326 11.2336 51.966 11.1669C51.7993 11.1002 51.6326 11.1002 51.466 11.0669C51.3326 11.0336 51.2326 11.0002 51.0993 11.0002H41.3326C39.966 11.0002 38.8326 12.1336 38.8326 13.5002C38.8326 14.8669 39.966 16.0002 41.3326 16.0002H45.4993C37.5659 24.3336 27.5659 30.2002 16.3326 33.0336C14.9993 33.3669 14.1659 34.7336 14.4993 36.0669C14.7659 37.2002 15.7993 37.9669 16.9326 37.9669C17.1326 37.9669 17.3326 37.9336 17.5326 37.9002C29.4326 34.9336 40.066 28.7669 48.566 20.0336V23.2669C48.566 24.6336 49.6993 25.7669 51.066 25.7669C52.4326 25.7669 53.566 24.6336 53.566 23.2669V13.5002C53.566 13.4669 53.566 13.4336 53.566 13.4002Z" fill="#FE5842"/>
</svg>
