<svg width="158" height="52" viewBox="0 0 158 52" fill="none" xmlns="http://www.w3.org/2000/svg">
<mask id="mask0_30_107" style="mask-type:luminance" maskUnits="userSpaceOnUse" x="0" y="0" width="157" height="52">
<path d="M156.697 0H0V52H156.697V0Z" fill="white"/>
</mask>
<g mask="url(#mask0_30_107)">
<path d="M155.37 42.2966C154.632 42.2966 154.043 41.7079 154.043 40.9697C154.043 40.2482 154.632 39.6427 155.37 39.6427C156.091 39.6427 156.697 40.2316 156.697 40.9697C156.697 41.6913 156.091 42.2966 155.37 42.2966ZM155.37 39.8999C154.781 39.8999 154.3 40.3809 154.3 40.9697C154.3 41.5586 154.781 42.0396 155.37 42.0396C155.959 42.0396 156.44 41.5586 156.44 40.9697C156.44 40.3809 155.959 39.8999 155.37 39.8999ZM156.041 41.6663H155.735L155.469 41.1687H155.121V41.6663H154.839V40.2067H155.536C155.842 40.2067 156.033 40.4058 156.033 40.6877C156.033 40.9034 155.901 41.061 155.726 41.1273L156.041 41.6663ZM155.519 40.9034C155.627 40.9034 155.735 40.8371 155.735 40.6877C155.735 40.5135 155.643 40.4721 155.519 40.4721H155.079V40.9116L155.519 40.9034ZM16.8108 39.5101H20.2111V48.7739H26.1162V51.7429H16.8108V39.5101ZM29.6325 45.6555V45.6141C29.6325 42.1059 32.469 39.2447 36.2424 39.2447C40.0159 39.2447 42.8025 42.0561 42.8025 45.5643V45.6058C42.8025 49.114 39.9662 51.9751 36.1926 51.9751C32.4191 51.9751 29.6325 49.1637 29.6325 45.6555ZM39.3525 45.6555V45.6141C39.3525 43.8475 38.0918 42.3215 36.2092 42.3215C34.3598 42.3215 33.1157 43.8227 33.1157 45.5892V45.6306C33.1157 47.3972 34.3764 48.9232 36.2341 48.9232C38.1085 48.9232 39.3525 47.422 39.3525 45.6555ZM46.9659 46.377V39.5101H50.4077V46.3107C50.4077 48.0772 51.3034 48.9066 52.6552 48.9066C54.007 48.9066 54.9027 48.1021 54.9027 46.402V39.5101H58.3445V46.2941C58.3445 50.2419 56.097 51.9668 52.6138 51.9668C49.147 51.9586 46.9659 50.2086 46.9659 46.377ZM63.5362 39.5101H68.2469C72.6092 39.5101 75.1553 42.0147 75.1553 45.5478V45.5892C75.1553 49.1223 72.5844 51.7346 68.1806 51.7346H63.5362V39.5101ZM68.3049 48.7324C70.3285 48.7324 71.6804 47.6211 71.6804 45.6389V45.5975C71.6804 43.6319 70.3285 42.504 68.3049 42.504H66.9282V48.7159H68.3049V48.7324ZM80.0816 39.5101H89.8679V42.4791H83.4571V44.569H89.2543V47.3806H83.4571V51.7429H80.0816V39.5101ZM94.5786 39.5101H97.954V48.7739H103.884V51.7429H94.5703V39.5101H94.5786ZM112.741 39.4188H116.009L121.217 51.7346H117.576L116.681 49.5536H111.97L111.099 51.7346H107.541L112.741 39.4188ZM115.727 46.9162L114.375 43.4494L112.998 46.9162H115.727ZM125.588 39.5101H131.368C133.243 39.5101 134.528 39.9911 135.358 40.8371C136.079 41.5337 136.444 42.4708 136.444 43.6899V43.7315C136.444 45.6058 135.441 46.8499 133.939 47.4801L136.859 51.7512H132.936L130.473 48.0441H128.988V51.7512H125.588V39.5101ZM131.211 45.3736C132.364 45.3736 133.019 44.8095 133.019 43.9306V43.889C133.019 42.927 132.322 42.446 131.186 42.446H128.963V45.3653L131.211 45.3736ZM141.329 39.5101H151.165V42.388H144.688V44.2374H150.551V46.9162H144.688V48.8568H151.248V51.7346H141.329V39.5101ZM9.3965 47.0904C8.91547 48.1601 7.91196 48.9232 6.60159 48.9232C4.75215 48.9232 3.48325 47.3723 3.48325 45.6306V45.5892C3.48325 43.8227 4.72727 42.3215 6.57672 42.3215C7.97002 42.3215 9.03988 43.1758 9.47942 44.3451H13.0539C12.4899 41.4258 9.91068 39.2613 6.60159 39.2613C2.83636 39.2696 0 42.1226 0 45.6306V45.6721C0 49.1886 2.7949 52 6.56013 52C9.78629 52 12.3158 49.9101 12.971 47.1152L9.3965 47.0904Z" fill="#110F14"/>
<path d="M130.116 31.8303C130.573 30.2629 130.398 28.8197 129.635 27.75C128.939 26.7712 127.761 26.1991 126.343 26.1328L99.5053 25.7844C99.3311 25.7844 99.1818 25.6932 99.0906 25.5687C98.9995 25.4361 98.9829 25.2619 99.0243 25.0877C99.1155 24.8224 99.3726 24.6316 99.6547 24.6067L126.733 24.2583C129.934 24.1091 133.426 21.5132 134.645 18.3285L136.196 14.2979C136.262 14.1238 136.287 13.9496 136.237 13.7754C134.504 5.88837 127.462 0 119.045 0C111.282 0 104.697 5.01755 102.342 11.9675C100.816 10.8313 98.875 10.2258 96.7851 10.4166C93.0529 10.7898 90.0673 13.7754 89.7025 17.4991C89.6112 18.4613 89.6775 19.3984 89.9014 20.2693C83.8224 20.4433 78.9541 25.4111 78.9541 31.5401C78.9541 32.0874 78.9955 32.6264 79.062 33.1739C79.1034 33.4392 79.3274 33.63 79.5844 33.63H129.121C129.403 33.63 129.669 33.431 129.751 33.149L130.116 31.8303Z" fill="#110F14"/>
<path d="M138.667 14.5883C138.426 14.5883 138.169 14.5883 137.929 14.6132C137.755 14.6132 137.605 14.7459 137.539 14.92L136.494 18.5609C136.038 20.1284 136.212 21.5714 136.975 22.6413C137.672 23.6199 138.849 24.1922 140.267 24.2585L145.982 24.6067C146.156 24.6067 146.305 24.6981 146.396 24.8224C146.488 24.9551 146.504 25.1459 146.463 25.3035C146.371 25.5689 146.114 25.7597 145.832 25.7845L139.878 26.1328C136.652 26.2821 133.185 28.8779 131.966 32.0626L131.526 33.1739C131.435 33.3895 131.593 33.6135 131.833 33.6135H152.268C152.509 33.6135 152.724 33.4643 152.791 33.2238C153.139 31.9631 153.338 30.6278 153.338 29.2594C153.338 21.1733 146.753 14.5883 138.667 14.5883Z" fill="#110F14"/>
</g>
</svg>
