<svg width="75" height="62" viewBox="0 0 75 62" fill="none" xmlns="http://www.w3.org/2000/svg">
<g clip-path="url(#clip0_31_617)">
<path d="M24.0237 31.9461L25.3495 36.9907L26.2074 36.7578L24.2576 31.8684L24.0237 31.9461ZM30.8089 29.773L30.6528 29.8505L31.2768 31.7909L31.8227 31.6355C32.1347 31.558 32.2127 31.1699 31.9787 30.549C31.8227 30.1611 31.6668 29.8505 31.5107 29.773C31.4328 29.6178 31.1988 29.6178 30.8089 29.773ZM37.828 27.5223L39.1538 32.5669L40.0117 32.3341L38.062 27.4447L37.828 27.5223ZM66.1385 12.8541L62.629 13.9406C55.2199 3.23046 41.2596 -1.89177 28.1572 2.37676C15.0547 6.64529 6.86575 18.9076 7.17771 31.9461L3.66814 33.0326L0.938477 38.3876L3.66814 46.7695L9.04948 49.4858L12.5591 48.3993C19.9681 59.1094 33.9285 64.2317 47.0309 59.9631C60.1333 55.6946 68.3223 43.4322 68.0104 30.3938L71.5199 29.3073L74.2495 23.9523L71.5199 15.5704L66.1385 12.8541ZM28.5471 3.23047C41.1816 -0.882836 54.596 4.00657 61.849 14.251L60.6012 14.6391C53.582 5.01549 40.9476 0.514135 29.0151 4.39462C17.0825 8.2751 9.51743 19.2957 9.51743 31.1699L8.26958 31.558C7.95761 19.1404 15.9127 7.34378 28.5471 3.23047ZM60.4453 22.4777L61.0692 24.4179L58.8855 25.1163L59.6653 27.4447L62.083 26.6686L62.7069 28.6865L57.9496 30.2386L54.596 19.9165L59.1974 18.4419L59.8213 20.4598L57.5595 21.1583L58.1835 23.1761L60.4453 22.4777ZM47.2649 18.9852C43.3653 15.9585 37.9839 14.7943 32.9146 16.4241C27.8452 18.0539 24.1796 22.0896 22.7758 26.9015L10.3753 30.9371C10.4533 19.5285 17.7844 8.97359 29.2491 5.32593C40.7136 1.60067 52.8801 5.8692 59.6653 15.0271L47.2649 18.9852ZM48.9806 23.9523L48.3567 21.9344L53.3481 20.3046L53.9721 22.3225L52.6462 22.7881L55.3758 31.1699L53.1141 31.9461L50.3845 23.5642L48.9806 23.9523ZM36.2682 22.1673L34.7084 21.8567L33.6165 22.9433L33.3825 21.3911L31.9787 20.6927L33.3825 19.9942L33.6165 18.4419L34.7084 19.5285L36.2682 19.2181L35.5662 20.5375L36.2682 22.1673ZM39.1538 39.6294L40.7136 39.9399L41.8055 38.8533L42.0395 40.4055L43.4433 41.1039L42.0395 41.8024L41.8055 43.3547L40.7136 42.2681L39.1538 42.5785L39.8557 41.2592L39.1538 39.6294ZM41.4155 35.6713L40.7136 34.1967L39.5437 34.5847L39.9338 36.2145L37.672 36.913L35.4883 26.2029L39.0758 25.0388L43.5993 34.9728L41.4155 35.6713ZM40.1678 20.6927L39.0758 20.4598L38.2959 21.2359L38.14 20.1494L37.126 19.6837L38.14 19.2181L38.2959 18.1315L39.0758 18.9076L40.1678 18.6748L39.6218 19.6061L40.1678 20.6927ZM43.9113 38.3101L45.0031 38.5428L45.783 37.7668L45.939 38.8533L46.9529 39.3189L45.939 39.7846L45.783 40.8712L45.0031 40.0951L43.9113 40.3279L44.4572 39.3966L43.9113 38.3101ZM44.8472 34.5072L41.4936 24.1851L43.8332 23.409L46.4849 27.988L44.8472 23.0209L47.0309 22.3225L50.3845 32.6445L48.1227 33.343L45.315 28.5313L47.0309 33.7311L44.8472 34.5072ZM35.2543 41.1039L36.3462 41.3368L37.126 40.5607L37.2821 41.6472L38.2959 42.1129L37.2821 42.5785L37.126 43.6651L36.3462 42.889L35.2543 43.1218L35.8002 42.1905L35.2543 41.1039ZM34.4744 30.7043C34.4744 30.9371 34.4744 31.0923 34.4744 31.2476C34.4744 31.4028 34.3965 31.558 34.2404 31.7132C34.1625 31.8684 34.0064 32.0236 33.7725 32.1788C34.0064 32.1788 34.1625 32.1788 34.3965 32.2565C34.5524 32.3341 34.7084 32.4117 34.7864 32.5669C34.8643 32.7221 35.0204 32.7997 35.0204 32.9549C35.0983 33.1101 35.1763 33.1878 35.1763 33.4207C35.7223 35.128 36.1122 36.4474 36.4241 37.3011L34.1625 37.9995L32.8365 33.9639C32.7586 33.8086 32.7586 33.6534 32.6806 33.5759C32.6027 33.4982 32.5246 33.4207 32.4466 33.4207C32.3687 33.4207 32.2126 33.4207 32.1347 33.4207C32.0567 33.4207 31.9007 33.4982 31.7447 33.4982L33.3045 38.2324L30.9648 39.0085L27.6112 28.6865L31.1208 27.5223C31.5107 27.3671 31.8227 27.3671 32.0567 27.3671C32.3687 27.3671 32.6027 27.4447 32.7586 27.5223C32.9926 27.5999 33.1485 27.8327 33.3045 28.0655C33.4605 28.2984 33.6165 28.5313 33.6945 28.764C33.7725 28.9969 33.9285 29.3073 34.0064 29.6953C34.0844 29.9282 34.0845 30.0834 34.1625 30.1611C34.4744 30.3163 34.4744 30.4715 34.4744 30.7043ZM31.5107 23.4865L30.4189 23.2538L29.639 24.0298L29.483 22.9433L28.4691 22.4777L29.483 22.012L29.639 20.9255L30.4189 21.7015L31.5107 21.4688L30.9648 22.4L31.5107 23.4865ZM29.873 39.3966L27.6893 40.0951L26.9873 38.6205L25.8174 39.0085L26.2074 40.6383L23.9456 41.3368L21.7619 30.6267L25.3495 29.4625L29.873 39.3966ZM13.8069 33.1101L16.0686 32.4117L18.4863 39.8622C18.4863 39.9399 18.5644 40.0951 18.5644 40.0951C18.5644 40.1726 18.6423 40.2503 18.7203 40.3279C18.7984 40.4055 18.7983 40.4831 18.8763 40.5607C18.9543 40.6383 19.0322 40.6383 19.1103 40.7159C19.1883 40.7159 19.2662 40.7159 19.4223 40.7159C19.5002 40.7159 19.5782 40.6383 19.6562 40.5607C19.7342 40.4831 19.7342 40.4831 19.7342 40.4055C19.7342 40.3278 19.7342 40.2503 19.7342 40.1726C19.7342 40.0951 19.7342 40.0174 19.7342 39.9399C19.7342 39.8622 19.6562 39.7847 19.6562 39.707C19.6562 39.6293 19.6562 39.5518 19.5782 39.4741L17.1605 32.0236L19.4223 31.3251L21.918 38.9309C22.2299 39.8622 22.2299 40.6383 21.918 41.2592C21.606 41.8801 20.9821 42.3457 20.0462 42.6562C19.1103 42.9666 18.2524 42.9666 17.7064 42.6562C17.0825 42.3457 16.6145 41.6472 16.3026 40.7159L13.8069 33.1101ZM28.0792 43.3547C31.9787 46.3814 37.36 47.5456 42.4294 45.9158C47.4989 44.286 51.1644 40.2503 52.5682 35.4384L64.9687 31.4028C64.8907 42.8114 57.5595 53.3663 46.095 57.0139C34.6303 60.7392 22.4638 56.4706 15.6787 47.3127L28.0792 43.3547ZM8.97151 42.7337L7.48967 38.2324C7.33369 37.7668 7.25571 37.3011 7.25571 36.913C7.25571 36.525 7.33369 36.137 7.48967 35.9041C7.64565 35.6713 7.80164 35.4384 8.03562 35.2057C8.26958 34.9728 8.50356 34.8176 8.73752 34.7399C8.9715 34.6624 9.20546 34.5072 9.43944 34.4295C9.7514 34.3519 10.0634 34.2743 10.2973 34.1967C10.6093 34.1191 10.8433 34.1191 11.0772 34.1967C11.3112 34.1967 11.4672 34.2743 11.7011 34.3519C11.8572 34.4295 12.0131 34.5072 12.1691 34.6624C12.3251 34.8176 12.4811 34.9728 12.5591 35.128C12.637 35.2832 12.7931 35.4384 12.871 35.6713C12.949 35.9041 13.105 36.137 13.183 36.2922C13.2609 36.525 13.339 36.7578 13.417 36.9907L11.2332 37.6891L10.9992 36.8355C10.9213 36.6803 10.9213 36.525 10.8433 36.4474C10.7653 36.3697 10.6873 36.2922 10.6093 36.2922C10.5313 36.2922 10.4533 36.2922 10.3753 36.2922C10.2973 36.2922 10.2193 36.2922 10.2193 36.2922C10.0634 36.3697 9.98537 36.3697 9.90739 36.4474C9.82939 36.525 9.75142 36.6026 9.75142 36.6026C9.75142 36.6803 9.75142 36.7578 9.75142 36.913C9.75142 37.0682 9.82939 37.2235 9.82939 37.3011C9.82939 37.4563 9.90739 37.6115 9.98538 37.8443L11.3112 41.8801C11.3892 42.0353 11.3892 42.1905 11.4671 42.2681C11.5452 42.3457 11.5452 42.5009 11.6232 42.5785C11.7011 42.6562 11.7792 42.7337 11.9351 42.8114C12.0131 42.8114 12.1691 42.8114 12.3251 42.8114C12.5591 42.7337 12.7151 42.5785 12.7151 42.4233C12.7151 42.1905 12.637 41.8801 12.5591 41.492L12.1691 40.3279L11.5452 40.5607L10.9992 38.7757L13.8069 37.8443L15.7567 43.8979L14.8988 44.2083L14.1968 43.4322C14.0409 44.2083 13.4949 44.7516 12.637 45.062C10.8433 45.6829 9.67342 44.8293 8.97151 42.7337ZM46.7969 59.1094C34.1625 63.2227 20.7481 58.3333 13.4949 48.0889L14.7428 47.7008C21.7619 57.3244 34.3965 61.8258 46.329 57.9452C58.2615 54.0648 65.8266 43.0443 65.8266 31.1699L67.0745 30.7819C67.3864 43.277 59.4314 55.0737 46.7969 59.1094ZM68.8682 26.7461L64.1108 28.2984L60.7572 17.9763L65.3587 16.5017L65.9826 18.5196L63.7209 19.2181L64.3448 21.2359L66.5285 20.5375L67.1524 22.4777L64.9687 23.1761L65.7486 25.5044L68.1663 24.7284L68.8682 26.7461Z" fill="#007C2A"/>
<path d="M28.5472 3.23075C41.1816 -0.882555 54.596 4.00685 61.8491 14.2513L60.6012 14.6394C53.5821 5.01577 40.9476 0.514419 29.0151 4.3949C17.0825 8.27538 9.51746 19.2959 9.51746 31.1702L8.2696 31.5583C7.95764 19.1407 15.9127 7.34406 28.5472 3.23075Z" fill="white"/>
<path d="M46.7971 59.1093C34.1626 63.2226 20.7483 58.3332 13.4951 48.0887L14.743 47.7007C21.7621 57.3243 34.3966 61.8256 46.3292 57.9451C58.2617 54.0647 65.8268 43.044 65.8268 31.1698L67.0747 30.7817C67.3866 43.2769 59.4316 55.0736 46.7971 59.1093Z" fill="white"/>
<path d="M31.5114 23.4864L30.4196 23.2536L29.6396 24.0297L29.4837 22.9432L28.4697 22.4775L29.4837 22.0118L29.6396 20.9253L30.4196 21.7014L31.5114 21.4686L30.9654 22.3999L31.5114 23.4864Z" fill="white"/>
<path d="M36.269 22.1671L34.7092 21.8567L33.6173 22.9432L33.3833 21.3911L31.9795 20.6926L33.3833 19.994L33.6173 18.4419L34.7092 19.5284L36.269 19.218L35.567 20.5373L36.269 22.1671Z" fill="white"/>
<path d="M40.1677 20.693L39.0758 20.4601L38.2959 21.2362L38.1399 20.1497L37.126 19.684L38.1399 19.2184L38.2959 18.1318L39.0758 18.9079L40.1677 18.6751L39.6218 19.6064L40.1677 20.693Z" fill="white"/>
<path d="M35.2549 41.1038L36.3468 41.3367L37.1266 40.5605L37.2827 41.6471L38.2965 42.1127L37.2827 42.5784L37.1266 43.6649L36.3468 42.8888L35.2549 43.1217L35.8008 42.1903L35.2549 41.1038Z" fill="white"/>
<path d="M39.1543 39.6296L40.7141 39.94L41.806 38.8535L42.04 40.4058L43.4438 41.1042L42.04 41.8027L41.806 43.355L40.7141 42.2684L39.1543 42.5788L39.8562 41.2594L39.1543 39.6296Z" fill="white"/>
<path d="M43.9121 38.3099L45.0039 38.5427L45.7839 37.7666L45.9398 38.8531L46.9537 39.3189L45.9398 39.7845L45.7839 40.871L45.0039 40.095L43.9121 40.3277L44.4581 39.3964L43.9121 38.3099Z" fill="white"/>
<path d="M8.97166 42.734L7.48982 38.2326C7.33384 37.7669 7.25586 37.3013 7.25586 36.9132C7.25586 36.5252 7.33384 36.1371 7.48982 35.9044C7.6458 35.6715 7.80179 35.4386 8.03577 35.2058C8.26973 34.973 8.50371 34.8178 8.73767 34.7402C8.97165 34.6625 9.20561 34.5073 9.43959 34.4298C9.75155 34.3521 10.0635 34.2746 10.2975 34.1969C10.6095 34.1193 10.8434 34.1193 11.0774 34.1969C11.3114 34.1969 11.4674 34.2746 11.7013 34.3521C11.8573 34.4298 12.0133 34.5073 12.1693 34.6626C12.3252 34.8178 12.4812 34.973 12.5592 35.1282C12.6372 35.2834 12.7932 35.4386 12.8712 35.6715C12.9491 35.9044 13.1052 36.1371 13.1831 36.2923L13.4171 36.9909L11.2334 37.6894L10.9994 36.8357C10.9214 36.6804 10.9214 36.5252 10.8434 36.4476C10.7654 36.37 10.6874 36.2923 10.6094 36.2923H10.3755H10.2195C10.0635 36.37 9.98552 36.37 9.90754 36.4476L9.75157 36.6028V36.9132C9.75157 37.0685 9.82954 37.2237 9.82954 37.3013C9.82954 37.4565 9.90754 37.6117 9.98553 37.8446L11.3114 41.8803C11.3893 42.0355 11.3893 42.1907 11.4673 42.2684C11.5454 42.3459 11.5454 42.5011 11.6233 42.5788C11.7013 42.6563 11.7794 42.734 11.9353 42.8116H12.3252C12.5592 42.734 12.7152 42.5788 12.7152 42.4236C12.7152 42.1907 12.6372 41.8803 12.5592 41.4922L12.1693 40.3281L11.5454 40.5609L10.9994 38.7759L13.807 37.8446L15.7569 43.8981L14.899 44.2086L14.197 43.4325C14.041 44.2086 13.4951 44.7518 12.6372 45.0623C10.8434 45.6832 9.67357 44.8294 8.97166 42.734Z" fill="white"/>
<path d="M13.8076 33.1102L16.0693 32.4117L18.487 39.8623C18.487 39.9398 18.5651 40.0951 18.5651 40.0951C18.5651 40.1727 18.643 40.2503 18.721 40.3279C18.7991 40.4055 18.799 40.4831 18.877 40.5607C18.955 40.6383 19.033 40.6384 19.111 40.7159H19.423C19.501 40.7159 19.5789 40.6383 19.6569 40.5607C19.735 40.4831 19.735 40.4831 19.735 40.4055V40.1727V39.9398C19.735 39.8623 19.6569 39.7846 19.6569 39.7071C19.6569 39.6294 19.6569 39.5518 19.5789 39.4742L17.1612 32.0237L19.423 31.3252L21.9187 38.9309C22.2306 39.8623 22.2306 40.6384 21.9187 41.2592C21.6067 41.8801 20.9828 42.3457 20.0469 42.6561C19.1109 42.9667 18.2531 42.9667 17.7072 42.6561C17.0832 42.3457 16.6153 41.6473 16.3033 40.7159L13.8076 33.1102Z" fill="white"/>
<path fill-rule="evenodd" clip-rule="evenodd" d="M29.8738 39.3964L27.69 40.095L26.988 38.6204L25.8182 39.0084L26.2082 40.6382L23.9464 41.3367L21.7627 30.6266L25.3503 29.4624L29.8738 39.3964ZM25.3503 36.9906L24.0245 31.9459L24.2584 31.8683L26.2082 36.7577L25.3503 36.9906Z" fill="white"/>
<path fill-rule="evenodd" clip-rule="evenodd" d="M34.4745 30.7043V31.2476C34.4745 31.4028 34.3966 31.5581 34.2406 31.7133C34.1626 31.8685 34.0066 32.0237 33.7727 32.1789C34.0066 32.1789 34.1626 32.1789 34.3965 32.2566C34.5525 32.3341 34.7085 32.4118 34.7865 32.567C34.8645 32.7222 35.0205 32.7999 35.0205 32.9551C35.0985 33.1103 35.1764 33.1879 35.1764 33.4207C35.7224 35.1281 36.1123 36.4475 36.4243 37.3012L34.1626 37.9997L32.8367 33.9639C32.7587 33.8087 32.7587 33.6535 32.6808 33.5759C32.6028 33.4983 32.5247 33.4207 32.4468 33.4207H32.1348C32.0568 33.4207 31.9008 33.4983 31.7449 33.4983L33.3047 38.2325L30.9649 39.0086L27.6113 28.6866L31.121 27.5224C31.5109 27.3672 31.8228 27.3672 32.0568 27.3672C32.3688 27.3672 32.6028 27.4447 32.7587 27.5224C32.9927 27.5999 33.1486 27.8328 33.3047 28.0657C33.4606 28.2985 33.6166 28.5313 33.6946 28.7641C33.7726 28.997 33.9286 29.3074 34.0066 29.6955C34.0845 29.9283 34.0846 30.0835 34.1626 30.1611C34.4745 30.3163 34.4745 30.4716 34.4745 30.7043ZM30.653 29.8507L30.809 29.773C31.1989 29.6178 31.4329 29.6178 31.5109 29.773C31.6669 29.8507 31.8228 30.1611 31.9789 30.5491C32.2129 31.1701 32.1348 31.5581 31.8228 31.6357L31.2769 31.7909L30.653 29.8507Z" fill="white"/>
<path fill-rule="evenodd" clip-rule="evenodd" d="M41.4165 35.6711L40.7146 34.1965L39.5447 34.5845L39.9348 36.2143L37.673 36.9128L35.4893 26.2027L39.0768 25.0386L43.6003 34.9726L41.4165 35.6711ZM39.1548 32.5667L37.829 27.5221L38.063 27.4444L40.0127 32.3338L39.1548 32.5667Z" fill="white"/>
<path d="M44.8477 34.5069L41.4941 24.1848L43.8338 23.4088L46.4855 27.9877L44.8477 23.0207L47.0315 22.3223L50.385 32.6443L48.1233 33.3428L45.3156 28.531L47.0315 33.7309L44.8477 34.5069Z" fill="white"/>
<path d="M48.9813 23.9524L48.3574 21.9345L53.3489 20.3047L53.9728 22.3226L52.6469 22.7882L55.3766 31.17L53.1149 31.9461L50.3852 23.5643L48.9813 23.9524Z" fill="white"/>
<path d="M60.4459 22.4776L61.0699 24.4178L58.8862 25.1163L59.666 27.4446L62.0837 26.6686L62.7076 28.6864L57.9503 30.2386L54.5967 19.9165L59.1981 18.4419L59.822 20.4598L57.5602 21.1582L58.1842 23.1761L60.4459 22.4776Z" fill="white"/>
<path d="M68.8688 26.7464L64.1114 28.2986L60.7578 17.9766L65.3592 16.502L65.9832 18.5198L63.7215 19.2183L64.3454 21.2362L66.5291 20.5376L67.153 22.4779L64.9693 23.1764L65.7492 25.5046L68.1669 24.7285L68.8688 26.7464Z" fill="white"/>
<path d="M47.2655 18.985C43.3659 15.9582 37.9847 14.7941 32.9152 16.4239C27.8458 18.0537 24.1803 22.0894 22.7765 26.9011L10.376 30.9369C10.454 19.5283 17.7851 8.97334 29.2497 5.32569C40.7143 1.60043 52.8808 5.86895 59.666 15.0269L47.2655 18.985Z" fill="#00B63E"/>
<path d="M28.0792 43.3542C31.9788 46.3811 37.3602 47.5452 42.4295 45.9153C47.4989 44.2855 51.1645 40.2499 52.5682 35.4381L64.9688 31.4023C64.8908 42.8111 57.5597 53.3659 46.095 57.0136C34.6305 60.7389 22.464 56.4703 15.6787 47.3124L28.0792 43.3542Z" fill="#00B63E"/>
<path d="M15.835 21.313L16.3809 20.3817L19.5005 21.3905L17.0048 19.2175L17.5508 18.2861L22.0742 20.6921L21.6842 21.3905L18.5646 19.7607L21.2943 22.0115L20.9823 22.5547L17.5508 21.4682L20.5924 23.2532L20.2024 23.9517L15.835 21.313Z" fill="white"/>
<path d="M22.4649 19.684C22.075 19.684 21.685 19.4511 21.295 19.1407L19.8132 17.8989C19.4232 17.5108 19.1893 17.2004 19.1113 16.8123C19.0333 16.4244 19.1893 16.0363 19.5793 15.6483C19.9692 15.2602 20.2812 15.0273 20.6711 15.0273C21.0611 15.0273 21.451 15.1825 21.841 15.5706L23.3228 16.8123C23.7127 17.2004 23.9467 17.5108 24.0247 17.8989C24.1027 18.2869 23.9467 18.675 23.5568 19.0631C23.1668 19.5287 22.7768 19.684 22.4649 19.684ZM23.0888 18.2094C23.0108 18.0541 22.9329 17.9765 22.7768 17.8213L20.9051 16.1915C20.7492 16.0363 20.5931 15.9587 20.4371 15.9587C20.2812 15.9587 20.2032 15.9587 20.0472 16.1139C19.8912 16.2691 19.8912 16.3467 19.9692 16.5019C20.0472 16.6571 20.1252 16.7348 20.2812 16.89L22.1529 18.5198C22.309 18.675 22.4649 18.7527 22.6209 18.7527C22.7768 18.7527 22.8549 18.7527 23.0108 18.5974C23.0888 18.4422 23.0888 18.3646 23.0888 18.2094Z" fill="white"/>
<path d="M21.8408 13.3974L22.3868 12.9317L24.9604 14.3286L23.3227 12.2332L24.0245 11.6899L27.2222 15.7257L26.6762 16.1913L24.0245 14.6391L25.8183 16.8898L25.1164 17.433L21.8408 13.3974Z" fill="white"/>
<path d="M25.3496 10.836L27.2993 9.74951L27.6113 10.3704L26.5195 10.9137L27.1434 12.0778L27.9233 11.6122L28.2352 12.2331L27.4554 12.6987L28.2352 14.0956L29.3271 13.5524L29.6391 14.1733L27.6893 15.2598L25.3496 10.836Z" fill="white"/>
<path d="M30.2631 11.9226L28.2354 9.36149L29.1713 9.05106L30.3411 10.6033L30.1852 8.74062L31.1211 8.43018L31.199 11.6898L31.901 13.63L30.965 13.9404L30.2631 11.9226Z" fill="white"/>
<path d="M34.5527 7.65457L35.8786 7.57696C36.3465 7.49934 36.7365 7.57696 37.0484 7.80978C37.3604 7.965 37.5164 8.35305 37.5164 8.81871C37.5164 9.12915 37.5164 9.36197 37.3604 9.5172C37.2824 9.67241 37.0484 9.82764 36.8145 9.90524C37.1265 9.90524 37.3604 10.0605 37.5164 10.2157C37.6723 10.4485 37.7504 10.6813 37.8284 11.0694C37.9063 12.0783 37.4384 12.6216 36.4245 12.6992L34.8647 12.8544L34.5527 7.65457ZM36.1906 11.9231C36.4245 11.9231 36.5805 11.8455 36.7365 11.6903C36.8144 11.5351 36.8925 11.3799 36.8145 11.0694C36.8145 10.7589 36.7365 10.6037 36.5805 10.4485C36.4245 10.2933 36.2686 10.2933 36.0346 10.2933H35.7226L35.8786 11.9231H36.1906ZM36.0346 9.5948C36.2686 9.5948 36.4245 9.5172 36.5026 9.36197C36.5805 9.20676 36.5805 9.05153 36.5805 8.81871C36.5805 8.58588 36.5025 8.43066 36.3465 8.35305C36.1905 8.27544 36.0346 8.19784 35.8006 8.27544H35.5666L35.6446 9.5948H36.0346Z" fill="white"/>
<path d="M39.8559 7.49902L41.0257 7.65425L41.4937 12.8541L40.5578 12.7764L40.4798 11.6124L39.6999 11.5347L39.388 12.6212L38.374 12.5437L39.8559 7.49902ZM40.4018 10.9139L40.3238 8.81838L39.7779 10.8362L40.4018 10.9139Z" fill="white"/>
<path d="M42.2743 12.6213C42.1182 12.3109 42.1182 11.8452 42.2743 11.302L42.8202 9.51692C42.9761 8.97366 43.2101 8.58561 43.5221 8.35278C43.834 8.11995 44.224 8.11995 44.7699 8.27518C45.2379 8.43039 45.6278 8.66322 45.7058 8.97366C45.8617 9.2841 45.8617 9.67214 45.7058 10.1378L45.5499 10.5258L44.5359 10.2154L44.692 9.74975C44.7699 9.59453 44.7699 9.51692 44.7699 9.3617C44.7699 9.2841 44.7699 9.20648 44.692 9.12887C44.6139 9.05127 44.5359 8.97366 44.458 8.97366C44.302 8.89605 44.146 8.97366 44.068 9.05127C43.9901 9.12888 43.912 9.2841 43.834 9.51692L43.2101 11.7676C43.1322 12.0004 43.1322 12.1556 43.1322 12.3109C43.1322 12.4661 43.2881 12.5437 43.4441 12.5437C43.6001 12.6213 43.7561 12.5437 43.834 12.4661C43.912 12.3885 43.9901 12.2333 44.068 12.0004L44.224 11.5347L45.2379 11.8452L45.0819 12.2333C44.9259 12.6989 44.7699 13.0093 44.458 13.2422C44.146 13.475 43.7561 13.475 43.2881 13.3198C42.7421 13.2422 42.4302 13.0093 42.2743 12.6213Z" fill="white"/>
<path d="M47.577 9.36133L48.5128 9.82699L47.499 11.7672L49.2928 10.215L50.2287 10.6807L48.3569 12.3105L48.0449 15.3373L47.1091 14.8716L47.421 12.4657L47.1091 12.6209L46.1731 14.4059L45.2373 13.9403L47.577 9.36133Z" fill="white"/>
<path d="M28.703 47.1577L29.7169 47.6233L28.859 50.8054L30.8868 48.1666L31.8226 48.6323L29.6389 53.2889L28.937 52.9784L30.4189 49.7964L28.3131 52.668L27.7672 52.3575L28.703 48.9427L27.0652 52.0471L26.3633 51.7367L28.703 47.1577Z" fill="white"/>
<path d="M31.5116 53.5214C31.3555 53.211 31.3555 52.7453 31.5116 52.202L31.9794 50.3394C32.1355 49.7961 32.2914 49.408 32.6034 49.1753C32.9153 48.9424 33.3054 48.9424 33.8512 49.0201C34.3972 49.1753 34.7091 49.408 34.8651 49.7186C35.0211 50.029 35.0211 50.4946 34.9431 51.0378L34.4751 52.9005C34.3192 53.4438 34.1632 53.8318 33.8512 54.0647C33.5392 54.2975 33.1493 54.2975 32.6034 54.2199C31.9794 54.0647 31.6675 53.8318 31.5116 53.5214ZM33.1493 53.4438C33.2273 53.3662 33.3054 53.2109 33.3833 52.9782L34.0072 50.6499C34.0852 50.417 34.0852 50.2618 34.0072 50.1842C34.0072 50.029 33.8512 49.9513 33.6953 49.9513C33.5392 49.8738 33.3833 49.9514 33.3054 50.029C33.2273 50.1066 33.1493 50.2618 33.0714 50.4946L32.4474 52.823C32.3694 53.0557 32.3694 53.2109 32.4474 53.3662C32.4474 53.5214 32.6034 53.599 32.7594 53.599C32.9153 53.5214 32.9934 53.5214 33.1493 53.4438Z" fill="white"/>
<path d="M35.7231 49.564H36.425L37.4389 52.2803L37.5949 49.6415L38.4528 49.7192L38.1408 54.8414H37.4389L36.425 51.9699L36.269 54.8414L35.4111 54.7638L35.7231 49.564Z" fill="white"/>
<path d="M39.0762 49.7187L41.338 49.4858L41.4159 50.1843L40.246 50.3395L40.4021 51.6589L41.338 51.5813L41.4159 52.2797L40.48 52.3574L40.636 53.9872L41.8058 53.832L41.8838 54.5304L39.6221 54.7633L39.0762 49.7187Z" fill="white"/>
<path d="M43.2098 52.1247L41.416 49.4083L42.352 49.1756L43.3658 50.7277V48.8651L44.3017 48.6323L44.2238 51.8919L44.7697 53.8321L43.8337 54.1425L43.2098 52.1247Z" fill="white"/>
<path d="M45.9395 47.9337L47.0314 47.2352C47.4993 47.0024 47.8112 46.8472 48.2012 46.8472C48.5132 46.8472 48.8252 47.08 49.0592 47.5456C49.2151 47.7785 49.293 48.0114 49.293 48.2441C49.293 48.477 49.1371 48.6322 48.9811 48.7874C49.293 48.6322 49.527 48.6322 49.761 48.7874C49.995 48.865 50.2289 49.0979 50.385 49.4083C50.9308 50.262 50.7749 50.9604 49.917 51.5037L48.5912 52.2798L45.9395 47.9337ZM48.1232 49.0202C48.3572 48.865 48.4351 48.7874 48.5132 48.6322C48.5132 48.477 48.5132 48.3218 48.3572 48.0889C48.2012 47.856 48.1232 47.7785 47.9672 47.7785C47.8112 47.7785 47.6553 47.7785 47.4213 47.9337L47.2654 48.0114L47.9672 49.1754L48.1232 49.0202ZM49.371 50.9604C49.605 50.8052 49.6831 50.65 49.761 50.4948C49.761 50.3396 49.761 50.1068 49.605 49.8739C49.4491 49.6411 49.293 49.4858 49.1371 49.4083C48.9811 49.3306 48.8252 49.4083 48.5912 49.5635L48.3572 49.7187L49.2151 51.1156L49.371 50.9604Z" fill="white"/>
<path d="M49.3711 45.6052L50.229 44.8291L54.4405 48.0112L53.7386 48.632L52.8028 47.9335L52.1788 48.4768L52.8028 49.4856L52.1008 50.1066L49.3711 45.6052ZM52.3348 47.4679L50.697 46.1485L51.8669 47.8558L52.3348 47.4679Z" fill="white"/>
<path d="M55.0651 46.6923C54.6751 46.6923 54.2852 46.5371 53.8173 46.1491L52.3354 45.0625C51.8674 44.752 51.6335 44.364 51.5555 43.9759C51.4775 43.588 51.5555 43.1999 51.9454 42.8118C52.2574 42.4238 52.5694 42.1909 52.9594 42.1909C53.2713 42.1909 53.6612 42.3461 54.0512 42.579L54.3631 42.8118L53.7392 43.588L53.3493 43.2775C53.1934 43.1999 53.1153 43.1222 53.0373 43.0447C52.9594 42.967 52.8814 42.967 52.8033 42.967C52.7254 42.967 52.6474 43.0447 52.5694 43.1222C52.4134 43.2775 52.4134 43.4327 52.4914 43.5103C52.5694 43.6655 52.6474 43.7432 52.8814 43.8984L54.7532 45.2953C54.9091 45.4505 55.1431 45.5282 55.221 45.5282C55.3771 45.5282 55.455 45.5282 55.6111 45.373C55.689 45.2178 55.767 45.1401 55.689 44.9849C55.6111 44.9073 55.533 44.752 55.2991 44.5968L54.9091 44.2864L55.533 43.5103L55.845 43.7432C56.2349 44.0536 56.4689 44.364 56.5469 44.6745C56.6249 44.9849 56.4689 45.373 56.1569 45.8386C55.845 46.4595 55.455 46.6923 55.0651 46.6923Z" fill="white"/>
<path d="M53.1152 41.3369L53.5832 40.4056L55.533 41.4146L54.0511 39.6296L54.5191 38.6982L56.1569 40.6385L59.1985 41.0265L58.7306 41.9578L56.3129 41.6474L56.4688 41.9578L58.2626 42.8892L57.7946 43.8205L53.1152 41.3369Z" fill="white"/>
</g>
<defs>
<clipPath id="clip0_31_617">
<rect width="73.3111" height="60.5928" fill="white" transform="translate(0.938477 0.873535)"/>
</clipPath>
</defs>
</svg>
