<svg width="153" height="34" viewBox="0 0 153 34" fill="none" xmlns="http://www.w3.org/2000/svg">
<g clip-path="url(#clip0_30_167)">
<path d="M33.7655 16.9487C33.7655 8.52052 27.4806 1.35194 19.1447 0.270388C18.637 0.197845 18.1819 0.520991 18.0566 1.00901L17.0806 4.89996C16.9355 5.4869 17.3444 6.06724 17.9511 6.1266C23.5831 6.6278 27.8302 11.2838 27.8302 16.9487C27.8302 20.5956 25.9968 23.992 22.9896 25.9968L21.697 24.269C21.2024 23.6095 20.1473 23.814 19.9493 24.6251L17.9709 32.5389C17.8127 33.1588 18.2874 33.7655 18.9272 33.7655H26.8409C27.6587 33.7655 28.1203 32.8291 27.6323 32.1828L26.564 30.7583C31.0947 27.6059 33.7655 22.5214 33.7655 16.9487ZM15.8077 27.639C10.1824 27.1378 5.93535 22.4817 5.93535 16.8168C5.93535 13.1698 7.76871 9.77353 10.7759 7.76871L12.0685 9.49655C12.5566 10.1494 13.6183 9.95819 13.8162 9.14043L15.7947 1.22664C15.9528 0.606724 15.4847 0 14.8384 0H6.92457C6.10681 0 5.64517 0.936466 6.13319 1.58276L7.20155 3.00724C2.67091 6.15957 0 11.2441 0 16.8168C0 25.245 6.28487 32.4136 14.6207 33.4951C15.1153 33.561 15.5836 33.2446 15.7089 32.7566L16.6849 28.8656C16.83 28.2786 16.4211 27.6916 15.8077 27.639Z" fill="#110F14"/>
<path d="M43.8104 13.7173C43.6978 13.7173 43.5965 13.6779 43.5065 13.5991C43.4277 13.5091 43.3883 13.4078 43.3883 13.2952V2.3214C43.3883 2.19759 43.4277 2.0963 43.5065 2.01751C43.5965 1.93872 43.6978 1.89933 43.8104 1.89933H45.6337C45.9038 1.89933 46.1008 2.02313 46.2246 2.27075L49.196 7.58882L52.1673 2.27075C52.2911 2.02313 52.4881 1.89933 52.7582 1.89933H54.5647C54.6885 1.89933 54.7898 1.93872 54.8686 2.01751C54.9586 2.0963 55.0036 2.19759 55.0036 2.3214V13.2952C55.0036 13.419 54.9586 13.5203 54.8686 13.5991C54.7898 13.6779 54.6885 13.7173 54.5647 13.7173H52.5556C52.4319 13.7173 52.3249 13.6779 52.2349 13.5991C52.1561 13.5203 52.1167 13.419 52.1167 13.2952V6.96415L50.2258 10.4927C50.0795 10.7515 49.8826 10.881 49.6349 10.881H48.757C48.6107 10.881 48.4925 10.8472 48.4025 10.7797C48.3125 10.7121 48.2337 10.6164 48.1661 10.4927L46.2584 6.96415V13.2952C46.2584 13.4078 46.219 13.5091 46.1402 13.5991C46.0614 13.6779 45.9601 13.7173 45.8363 13.7173H43.8104ZM62.1978 13.8861C60.6108 13.8861 59.3615 13.4978 58.4498 12.7212C57.5382 11.9446 57.0542 10.8021 56.9979 9.29397C56.9866 8.96758 56.981 8.4836 56.981 7.84206C56.981 7.18925 56.9866 6.69965 56.9979 6.37326C57.0542 4.88758 57.5438 3.74517 58.4667 2.94606C59.4009 2.13569 60.6446 1.7305 62.1978 1.7305C63.751 1.7305 64.9948 2.13569 65.9289 2.94606C66.863 3.74517 67.3526 4.88758 67.3977 6.37326C67.4202 7.02606 67.4315 7.51566 67.4315 7.84206C67.4315 8.15721 67.4202 8.64117 67.3977 9.29397C67.3415 10.8021 66.8575 11.9446 65.9458 12.7212C65.0341 13.4978 63.7848 13.8861 62.1978 13.8861ZM62.1978 11.455C62.8169 11.455 63.3065 11.2693 63.6666 10.8978C64.038 10.5264 64.235 9.95803 64.2575 9.19268C64.28 8.53988 64.2913 8.07842 64.2913 7.80829C64.2913 7.51566 64.28 7.05419 64.2575 6.42391C64.235 5.65856 64.038 5.09017 63.6666 4.71875C63.2952 4.34733 62.8056 4.16162 62.1978 4.16162C61.59 4.16162 61.1004 4.34733 60.729 4.71875C60.3689 5.09017 60.1719 5.65856 60.1381 6.42391C60.1268 6.73905 60.1212 7.20051 60.1212 7.80829C60.1212 8.40481 60.1268 8.86628 60.1381 9.19268C60.1719 9.95803 60.3689 10.5264 60.729 10.8978C61.0891 11.2693 61.5787 11.455 62.1978 11.455ZM69.8105 13.7173C69.698 13.7173 69.5967 13.6779 69.5066 13.5991C69.4278 13.5091 69.3884 13.4078 69.3884 13.2952V2.3214C69.3884 2.19759 69.4278 2.0963 69.5066 2.01751C69.5967 1.93872 69.698 1.89933 69.8105 1.89933H71.6C71.8814 1.89933 72.0727 2.00625 72.174 2.2201L76.2934 8.70308V2.3214C76.2934 2.19759 76.3329 2.0963 76.4116 2.01751C76.5017 1.93872 76.603 1.89933 76.7155 1.89933H78.7414C78.8653 1.89933 78.9666 1.93872 79.0453 2.01751C79.1241 2.0963 79.1635 2.19759 79.1635 2.3214V13.2783C79.1635 13.4021 79.1241 13.5091 79.0453 13.5991C78.9666 13.6779 78.8653 13.7173 78.7414 13.7173H76.935C76.6874 13.7173 76.5017 13.6104 76.3778 13.3965L72.2585 7.14987V13.2952C72.2585 13.4078 72.2191 13.5091 72.1403 13.5991C72.0616 13.6779 71.9603 13.7173 71.8364 13.7173H69.8105ZM81.9449 13.7173C81.8325 13.7173 81.7312 13.6779 81.641 13.5991C81.5623 13.5091 81.5229 13.4078 81.5229 13.2952V2.3214C81.5229 2.19759 81.5623 2.0963 81.641 2.01751C81.7312 1.93872 81.8325 1.89933 81.9449 1.89933H89.8292C89.9531 1.89933 90.0544 1.93872 90.1331 2.01751C90.2119 2.0963 90.2513 2.19759 90.2513 2.3214V3.90838C90.2513 4.02093 90.2119 4.12223 90.1331 4.21227C90.0544 4.29105 89.9531 4.33044 89.8292 4.33044H84.4436V6.60962H89.4578C89.5816 6.60962 89.6829 6.65464 89.7617 6.74468C89.8405 6.82347 89.8798 6.92477 89.8798 7.04857V8.51737C89.8798 8.62992 89.8405 8.73122 89.7617 8.82126C89.6829 8.90005 89.5816 8.93944 89.4578 8.93944H84.4436V11.2861H89.9642C90.0881 11.2861 90.1894 11.3255 90.2681 11.4043C90.347 11.4831 90.3863 11.5844 90.3863 11.7082V13.2952C90.3863 13.4078 90.347 13.5091 90.2681 13.5991C90.1894 13.6779 90.0881 13.7173 89.9642 13.7173H81.9449ZM95.7664 13.7173C95.6538 13.7173 95.5525 13.6779 95.4625 13.5991C95.3837 13.5091 95.3444 13.4078 95.3444 13.2952V9.6654L91.4276 2.43958C91.3938 2.33828 91.3769 2.27637 91.3769 2.25386C91.3769 2.16383 91.4107 2.08504 91.4782 2.01751C91.5569 1.93872 91.647 1.89933 91.7483 1.89933H93.8587C94.0837 1.89933 94.2807 2.01751 94.4496 2.25386L96.8638 6.60962L99.2949 2.25386C99.43 2.01751 99.6269 1.89933 99.8858 1.89933H101.996C102.097 1.89933 102.182 1.93872 102.249 2.01751C102.317 2.08504 102.351 2.16383 102.351 2.25386C102.351 2.31014 102.339 2.37204 102.317 2.43958L98.4001 9.6654V13.2952C98.4001 13.419 98.3551 13.5203 98.2651 13.5991C98.1863 13.6779 98.085 13.7173 97.9612 13.7173H95.7664ZM107.335 13.7173C107.222 13.7173 107.121 13.6779 107.031 13.5991C106.952 13.5091 106.913 13.4078 106.913 13.2952V2.3214C106.913 2.19759 106.952 2.0963 107.031 2.01751C107.121 1.93872 107.222 1.89933 107.335 1.89933H112.484C113.902 1.89933 114.954 2.19196 115.641 2.77723C116.339 3.35124 116.688 4.17288 116.688 5.24211C116.688 5.80487 116.541 6.28322 116.249 6.67715C115.967 7.05983 115.647 7.3412 115.287 7.52129C115.748 7.73514 116.136 8.07842 116.452 8.55113C116.767 9.02385 116.924 9.55284 116.924 10.1381C116.924 11.2637 116.553 12.1416 115.81 12.7718C115.067 13.4021 114.009 13.7173 112.636 13.7173H107.335ZM112.147 6.59273C112.597 6.59273 112.94 6.48018 113.176 6.25508C113.413 6.01872 113.531 5.70921 113.531 5.32653C113.531 4.95511 113.413 4.65684 113.176 4.43174C112.94 4.20664 112.597 4.09409 112.147 4.09409H109.952V6.59273H112.147ZM112.298 11.5225C112.76 11.5225 113.12 11.3874 113.379 11.1173C113.637 10.8472 113.767 10.5208 113.767 10.1381C113.767 9.73293 113.637 9.4009 113.379 9.14203C113.12 8.87191 112.76 8.73684 112.298 8.73684H109.952V11.5225H112.298ZM117.961 13.7173C117.87 13.7173 117.785 13.6835 117.707 13.616C117.64 13.5371 117.606 13.4527 117.606 13.3627C117.606 13.2952 117.611 13.2445 117.623 13.2108L121.59 2.37204C121.624 2.23698 121.697 2.12443 121.81 2.03439C121.922 1.94435 122.068 1.89933 122.249 1.89933H124.747C124.927 1.89933 125.073 1.94435 125.186 2.03439C125.298 2.12443 125.372 2.23698 125.406 2.37204L129.356 13.2108L129.39 13.3627C129.39 13.4527 129.35 13.5371 129.272 13.616C129.204 13.6835 129.12 13.7173 129.019 13.7173H126.942C126.672 13.7173 126.492 13.5991 126.402 13.3627L125.743 11.6407H121.236L120.594 13.3627C120.503 13.5991 120.318 13.7173 120.037 13.7173H117.961ZM125.068 9.20956L123.498 4.75251L121.928 9.20956H125.068ZM135.318 13.8861C133.709 13.8861 132.448 13.4978 131.536 12.7212C130.636 11.9333 130.158 10.7965 130.101 9.31086C130.091 9.00697 130.084 8.51174 130.084 7.82518C130.084 7.12736 130.091 6.62088 130.101 6.30573C130.158 4.84255 130.648 3.71704 131.57 2.92918C132.493 2.13006 133.743 1.7305 135.318 1.7305C136.309 1.7305 137.198 1.89933 137.986 2.23698C138.774 2.56338 139.393 3.0361 139.843 3.65513C140.305 4.26291 140.541 4.97761 140.552 5.79924V5.83301C140.552 5.92305 140.513 6.00184 140.434 6.06937C140.366 6.12564 140.288 6.15378 140.197 6.15378H137.918C137.772 6.15378 137.66 6.12564 137.58 6.06937C137.502 6.00184 137.435 5.88366 137.378 5.71483C137.221 5.14082 136.973 4.74125 136.635 4.51615C136.297 4.2798 135.853 4.16162 135.301 4.16162C133.974 4.16162 133.287 4.90446 133.242 6.39014C133.231 6.69403 133.225 7.16112 133.225 7.79141C133.225 8.4217 133.231 8.90005 133.242 9.22644C133.287 10.7121 133.974 11.455 135.301 11.455C135.853 11.455 136.304 11.3368 136.652 11.1004C137.001 10.8528 137.243 10.4533 137.378 9.90175C137.423 9.73293 137.485 9.62037 137.563 9.5641C137.643 9.49657 137.761 9.4628 137.918 9.4628H140.197C140.299 9.4628 140.383 9.49657 140.45 9.5641C140.53 9.63163 140.563 9.71604 140.552 9.81734C140.541 10.639 140.305 11.3593 139.843 11.9783C139.393 12.5861 138.774 13.0588 137.986 13.3965C137.198 13.7229 136.309 13.8861 135.318 13.8861ZM142.75 13.7173C142.637 13.7173 142.535 13.6779 142.446 13.5991C142.367 13.5091 142.328 13.4078 142.328 13.2952V2.3214C142.328 2.19759 142.367 2.0963 142.446 2.01751C142.535 1.93872 142.637 1.89933 142.75 1.89933H144.877C145 1.89933 145.102 1.93872 145.181 2.01751C145.259 2.0963 145.299 2.19759 145.299 2.3214V6.06937L148.422 2.2201C148.557 2.00625 148.777 1.89933 149.081 1.89933H151.512C151.613 1.89933 151.698 1.93872 151.765 2.01751C151.833 2.08504 151.866 2.16383 151.866 2.25386C151.866 2.33265 151.849 2.40019 151.816 2.45646L147.764 7.55505L152.12 13.1601C152.164 13.2052 152.187 13.2727 152.187 13.3627C152.187 13.4527 152.153 13.5371 152.086 13.616C152.018 13.6835 151.934 13.7173 151.833 13.7173H149.317C149.047 13.7173 148.821 13.6047 148.642 13.3796L145.299 9.20956V13.2952C145.299 13.419 145.259 13.5203 145.181 13.5991C145.102 13.6779 145 13.7173 144.877 13.7173H142.75ZM48.2674 30.7688C46.6467 30.7688 45.3805 30.375 44.4688 29.5871C43.5571 28.788 43.0731 27.6568 43.0169 26.1936C43.0056 25.8673 43 25.3495 43 24.6404C43 23.9313 43.0056 23.4136 43.0169 23.0872C43.0731 21.6577 43.5627 20.5548 44.4857 19.7782C45.4198 19.0016 46.6804 18.6133 48.2674 18.6133C49.3366 18.6133 50.2652 18.7877 51.0531 19.1366C51.8522 19.4856 52.4599 19.9301 52.8764 20.4704C53.3041 21.0106 53.5292 21.5677 53.5517 22.1418C53.5517 22.2431 53.5124 22.3275 53.4335 22.395C53.366 22.4625 53.2816 22.4963 53.1803 22.4963H50.7154C50.6028 22.4963 50.5128 22.4794 50.4453 22.4456C50.3778 22.4119 50.3215 22.3499 50.2765 22.2599C50.1301 21.9336 49.8995 21.6522 49.5843 21.4158C49.2691 21.1681 48.8301 21.0444 48.2674 21.0444C46.9281 21.0444 46.2246 21.7535 46.1571 23.1716C46.1458 23.4868 46.1402 23.9764 46.1402 24.6404C46.1402 25.2932 46.1458 25.7828 46.1571 26.1092C46.2246 27.5949 46.945 28.3377 48.3181 28.3377C48.9821 28.3377 49.5112 28.1689 49.9051 27.8312C50.3102 27.4823 50.5128 26.9533 50.5128 26.2443V25.9235H48.9258C48.8021 25.9235 48.7008 25.8841 48.622 25.8053C48.5431 25.7153 48.5038 25.6083 48.5038 25.4845V24.2352C48.5038 24.1114 48.5431 24.0101 48.622 23.9313C48.7008 23.8413 48.8021 23.7963 48.9258 23.7963H53.1803C53.3041 23.7963 53.4054 23.8413 53.4842 23.9313C53.563 24.0101 53.6024 24.1114 53.6024 24.2352V26.1599C53.6024 27.1166 53.3829 27.9438 52.9439 28.6416C52.505 29.3282 51.8803 29.8572 51.07 30.2286C50.2709 30.5887 49.3366 30.7688 48.2674 30.7688ZM60.5028 30.7688C58.9158 30.7688 57.6722 30.3805 56.7717 29.6039C55.8826 28.8273 55.438 27.6568 55.438 26.0923V19.2042C55.438 19.0804 55.4774 18.9791 55.5561 18.9003C55.6462 18.8214 55.7475 18.7821 55.86 18.7821H58.0379C58.1618 18.7821 58.2631 18.8214 58.3418 18.9003C58.4319 18.9791 58.4768 19.0804 58.4768 19.2042V26.0754C58.4768 26.807 58.6457 27.3585 58.9833 27.7299C59.3323 28.0901 59.8332 28.2702 60.4859 28.2702C61.1274 28.2702 61.6227 28.0845 61.9716 27.7131C62.3205 27.3416 62.4949 26.7958 62.4949 26.0754V19.2042C62.4949 19.0804 62.5344 18.9791 62.6131 18.9003C62.7032 18.8214 62.8045 18.7821 62.917 18.7821H65.1118C65.2356 18.7821 65.3369 18.8214 65.4157 18.9003C65.4945 18.9791 65.5338 19.0804 65.5338 19.2042V26.0923C65.5338 27.6568 65.0837 28.8273 64.1832 29.6039C63.2941 30.3805 62.0673 30.7688 60.5028 30.7688ZM66.8336 30.6C66.7435 30.6 66.6591 30.5663 66.5804 30.4987C66.5128 30.4199 66.4791 30.3355 66.4791 30.2455C66.4791 30.1779 66.4847 30.1273 66.4959 30.0935L70.4634 19.2548C70.4972 19.1197 70.5703 19.0072 70.6829 18.9171C70.7953 18.8271 70.9417 18.7821 71.1218 18.7821H73.6205C73.8005 18.7821 73.9468 18.8271 74.0594 18.9171C74.1719 19.0072 74.2451 19.1197 74.2789 19.2548L78.2295 30.0935L78.2632 30.2455C78.2632 30.3355 78.2238 30.4199 78.1451 30.4987C78.0775 30.5663 77.9931 30.6 77.8918 30.6H75.8152C75.5451 30.6 75.365 30.4818 75.275 30.2455L74.6166 28.5234H70.1089L69.4673 30.2455C69.3772 30.4818 69.1915 30.6 68.9102 30.6H66.8336ZM73.9412 26.0923L72.3712 21.6353L70.8011 26.0923H73.9412ZM80.016 30.6C79.9034 30.6 79.8021 30.5607 79.7121 30.4818C79.6333 30.3918 79.5939 30.2905 79.5939 30.1779V19.2042C79.5939 19.0804 79.6333 18.9791 79.7121 18.9003C79.8021 18.8214 79.9034 18.7821 80.016 18.7821H84.6081C86.0825 18.7821 87.2305 19.1197 88.0522 19.7951C88.885 20.4591 89.3015 21.4045 89.3015 22.6314C89.3015 23.4193 89.1158 24.0889 88.7444 24.6404C88.3729 25.1919 87.8609 25.614 87.208 25.9066L89.521 30.0598C89.5547 30.1273 89.5716 30.1892 89.5716 30.2455C89.5716 30.3355 89.5323 30.4199 89.4534 30.4987C89.3859 30.5663 89.3071 30.6 89.2171 30.6H86.9717C86.6453 30.6 86.4145 30.4481 86.2795 30.1442L84.3549 26.43H82.6328V30.1779C82.6328 30.3017 82.5878 30.403 82.4977 30.4818C82.4189 30.5607 82.3176 30.6 82.1939 30.6H80.016ZM84.5743 24.0326C85.0921 24.0326 85.486 23.9089 85.7561 23.6612C86.0262 23.4024 86.1613 23.0478 86.1613 22.5976C86.1613 22.1473 86.0262 21.7928 85.7561 21.534C85.4973 21.2639 85.1033 21.1288 84.5743 21.1288H82.6328V24.0326H84.5743ZM90.5914 30.6C90.5014 30.6 90.417 30.5663 90.3382 30.4987C90.2707 30.4199 90.2369 30.3355 90.2369 30.2455C90.2369 30.1779 90.2425 30.1273 90.2538 30.0935L94.2212 19.2548C94.255 19.1197 94.3281 19.0072 94.4407 18.9171C94.5533 18.8271 94.6995 18.7821 94.8797 18.7821H97.3783C97.5584 18.7821 97.7047 18.8271 97.8173 18.9171C97.9299 19.0072 98.003 19.1197 98.0367 19.2548L101.987 30.0935L102.021 30.2455C102.021 30.3355 101.982 30.4199 101.903 30.4987C101.835 30.5663 101.751 30.6 101.65 30.6H99.5731C99.3029 30.6 99.1228 30.4818 99.0328 30.2455L98.3744 28.5234H93.8667L93.2252 30.2455C93.1351 30.4818 92.9494 30.6 92.668 30.6H90.5914ZM97.6991 26.0923L96.129 21.6353L94.5589 26.0923H97.6991ZM103.774 30.6C103.661 30.6 103.56 30.5607 103.47 30.4818C103.391 30.3918 103.352 30.2905 103.352 30.1779V19.2042C103.352 19.0804 103.391 18.9791 103.47 18.9003C103.56 18.8214 103.661 18.7821 103.774 18.7821H105.563C105.845 18.7821 106.036 18.889 106.137 19.1029L110.257 25.5858V19.2042C110.257 19.0804 110.296 18.9791 110.375 18.9003C110.465 18.8214 110.566 18.7821 110.679 18.7821H112.705C112.828 18.7821 112.929 18.8214 113.009 18.9003C113.088 18.9791 113.127 19.0804 113.127 19.2042V30.1611C113.127 30.2848 113.088 30.3918 113.009 30.4818C112.929 30.5607 112.828 30.6 112.705 30.6H110.898C110.65 30.6 110.465 30.4931 110.341 30.2792L106.222 24.0326V30.1779C106.222 30.2905 106.183 30.3918 106.104 30.4818C106.024 30.5607 105.923 30.6 105.8 30.6H103.774ZM118.508 30.6C118.395 30.6 118.294 30.5607 118.204 30.4818C118.125 30.3918 118.086 30.2905 118.086 30.1779V21.4327H115.081C114.968 21.4327 114.867 21.3933 114.777 21.3145C114.698 21.2245 114.659 21.1232 114.659 21.0106V19.2042C114.659 19.0804 114.698 18.9791 114.777 18.9003C114.867 18.8214 114.968 18.7821 115.081 18.7821H124.164C124.287 18.7821 124.389 18.8214 124.468 18.9003C124.547 18.9791 124.586 19.0804 124.586 19.2042V21.0106C124.586 21.1344 124.547 21.2357 124.468 21.3145C124.389 21.3933 124.287 21.4327 124.164 21.4327H121.159V30.1779C121.159 30.2905 121.12 30.3918 121.041 30.4818C120.961 30.5607 120.86 30.6 120.737 30.6H118.508ZM126.542 30.6C126.43 30.6 126.329 30.5607 126.238 30.4818C126.16 30.3918 126.12 30.2905 126.12 30.1779V19.2042C126.12 19.0804 126.16 18.9791 126.238 18.9003C126.329 18.8214 126.43 18.7821 126.542 18.7821H134.426C134.551 18.7821 134.652 18.8214 134.73 18.9003C134.809 18.9791 134.849 19.0804 134.849 19.2042V20.7911C134.849 20.9037 134.809 21.005 134.73 21.095C134.652 21.1738 134.551 21.2132 134.426 21.2132H129.041V23.4924H134.055C134.18 23.4924 134.281 23.5374 134.359 23.6274C134.438 23.7063 134.477 23.8076 134.477 23.9313V25.4001C134.477 25.5127 134.438 25.614 134.359 25.704C134.281 25.7828 134.18 25.8222 134.055 25.8222H129.041V28.1689H134.562C134.686 28.1689 134.787 28.2083 134.865 28.2871C134.945 28.3659 134.984 28.4672 134.984 28.591V30.1779C134.984 30.2905 134.945 30.3918 134.865 30.4818C134.787 30.5607 134.686 30.6 134.562 30.6H126.542ZM137.325 30.6C137.212 30.6 137.111 30.5607 137.021 30.4818C136.942 30.3918 136.903 30.2905 136.903 30.1779V19.2042C136.903 19.0804 136.942 18.9791 137.021 18.9003C137.111 18.8214 137.212 18.7821 137.325 18.7821H145.209C145.333 18.7821 145.434 18.8214 145.513 18.9003C145.592 18.9791 145.631 19.0804 145.631 19.2042V20.7911C145.631 20.9037 145.592 21.005 145.513 21.095C145.434 21.1738 145.333 21.2132 145.209 21.2132H139.824V23.4924H144.838C144.961 23.4924 145.063 23.5374 145.142 23.6274C145.221 23.7063 145.26 23.8076 145.26 23.9313V25.4001C145.26 25.5127 145.221 25.614 145.142 25.704C145.063 25.7828 144.961 25.8222 144.838 25.8222H139.824V28.1689H145.344C145.468 28.1689 145.569 28.2083 145.648 28.2871C145.727 28.3659 145.766 28.4672 145.766 28.591V30.1779C145.766 30.2905 145.727 30.3918 145.648 30.4818C145.569 30.5607 145.468 30.6 145.344 30.6H137.325Z" fill="#110F14"/>
</g>
<defs>
<clipPath id="clip0_30_167">
<rect width="153" height="33.7655" fill="white"/>
</clipPath>
</defs>
</svg>
