<svg width="124" height="42" viewBox="0 0 124 42" fill="none" xmlns="http://www.w3.org/2000/svg">
<g clip-path="url(#clip0_30_183)">
<mask id="mask0_30_183" style="mask-type:luminance" maskUnits="userSpaceOnUse" x="0" y="0" width="124" height="42">
<path d="M123.989 0.333374H0.553711V41.6667H123.989V0.333374Z" fill="white"/>
</mask>
<g mask="url(#mask0_30_183)">
<path d="M52.567 11.3368C52.4863 11.4982 52.3894 11.6113 52.2845 11.6758C52.1795 11.7404 52.0585 11.7727 51.9131 11.7727C51.7678 11.7727 51.6064 11.7162 51.4206 11.6113C51.235 11.4982 51.0251 11.3691 50.7748 11.2318C50.5246 11.0946 50.234 10.9735 49.9029 10.8605C49.572 10.7475 49.1845 10.6829 48.7404 10.6829C48.3368 10.6829 47.9736 10.7313 47.6748 10.8363C47.3762 10.9331 47.1258 11.0623 46.9159 11.2399C46.7142 11.4175 46.5607 11.6274 46.4559 11.8696C46.3508 12.1118 46.3024 12.3782 46.3024 12.6688C46.3024 13.0402 46.4074 13.3469 46.6092 13.5973C46.8191 13.8475 47.0936 14.0574 47.4408 14.2269C47.7798 14.4046 48.1673 14.5579 48.6033 14.695C49.0392 14.8324 49.4831 14.9857 49.9352 15.1391C50.3954 15.2924 50.8394 15.4702 51.2753 15.6881C51.7113 15.8898 52.0988 16.1563 52.4378 16.4711C52.7769 16.786 53.0514 17.1654 53.2533 17.6256C53.4632 18.0857 53.568 18.6428 53.568 19.2966C53.568 20.007 53.447 20.6771 53.1967 21.2988C52.9545 21.9124 52.5993 22.4612 52.1311 22.9214C51.6628 23.3815 51.0977 23.7449 50.4196 24.0112C49.7415 24.2695 48.9665 24.4068 48.0946 24.4068C47.5941 24.4068 47.1017 24.3584 46.6092 24.2534C46.1248 24.1565 45.6566 24.0193 45.2045 23.8417C44.7605 23.6561 44.3408 23.4381 43.9533 23.1879C43.5658 22.9376 43.2267 22.6469 42.9199 22.3402L43.7675 20.9355C43.8482 20.8305 43.9451 20.7499 44.0501 20.6853C44.1632 20.6126 44.2923 20.5721 44.4295 20.5721C44.6152 20.5721 44.809 20.6449 45.0189 20.7983C45.2288 20.9436 45.479 21.1051 45.7616 21.2907C46.0522 21.4764 46.3913 21.6378 46.7788 21.7912C47.1743 21.9365 47.6425 22.0091 48.1835 22.0091C49.0149 22.0091 49.6689 21.8155 50.121 21.4199C50.5811 21.0162 50.8071 20.4511 50.8071 19.7084C50.8071 19.2966 50.7022 18.9575 50.4923 18.6912C50.2904 18.4329 50.0159 18.215 49.6769 18.0374C49.3378 17.8516 48.9503 17.7063 48.5144 17.5771C48.0785 17.4561 47.6345 17.3188 47.1824 17.1735C46.7303 17.0282 46.2863 16.8506 45.8503 16.6488C45.4144 16.4469 45.0269 16.1805 44.6878 15.8495C44.3488 15.5185 44.0743 15.115 43.8564 14.6306C43.6545 14.1381 43.5496 13.5327 43.5496 12.8141C43.5496 12.2409 43.6626 11.6839 43.8887 11.135C44.1227 10.586 44.4538 10.1097 44.8897 9.68183C45.3337 9.26204 45.8746 8.92298 46.5123 8.66464C47.1501 8.40631 47.8847 8.28522 48.7001 8.28522C49.6284 8.28522 50.4842 8.43053 51.2753 8.72115C52.0585 9.01178 52.7284 9.41543 53.2774 9.94017L52.567 11.3368ZM65.75 8.47089V10.804H58.767V15.1714H64.2727V17.4237H58.767V21.8881H65.75V24.2292H55.8123V8.47089H65.75ZM79.1187 20.5157C79.2802 20.5157 79.4175 20.5803 79.5305 20.7014L80.6849 21.9527C80.0472 22.7438 79.2561 23.3492 78.3196 23.769C77.3911 24.1888 76.2691 24.3988 74.9613 24.3988C73.7906 24.3988 72.7411 24.1969 71.8047 23.8014C70.8764 23.4058 70.0771 22.8487 69.4151 22.1303C68.7531 21.4199 68.2446 20.5721 67.8894 19.5792C67.5422 18.5943 67.3646 17.5126 67.3646 16.3421C67.3646 15.1553 67.5583 14.0735 67.954 13.0967C68.3495 12.1118 68.8984 11.2561 69.6089 10.5456C70.3193 9.83522 71.167 9.27819 72.1599 8.89069C73.1529 8.49511 74.2508 8.29329 75.4536 8.29329C76.6243 8.29329 77.6415 8.47897 78.5133 8.85839C79.3932 9.22975 80.1441 9.7222 80.7656 10.3438L79.7889 11.7081C79.7323 11.7969 79.6516 11.8696 79.5628 11.9342C79.474 11.9988 79.3529 12.0311 79.1915 12.0311C79.0219 12.0311 78.8524 11.9665 78.6828 11.8373C78.5052 11.7081 78.2873 11.5628 78.0208 11.4094C77.7545 11.2561 77.4073 11.1188 76.9956 10.9816C76.592 10.8524 76.0672 10.7878 75.4375 10.7878C74.6948 10.7878 74.0167 10.917 73.387 11.1834C72.7654 11.4337 72.2326 11.805 71.7885 12.2813C71.3446 12.7576 70.9974 13.3469 70.7391 14.0331C70.4889 14.7193 70.3677 15.4863 70.3677 16.3421C70.3677 17.2301 70.4889 18.0131 70.7391 18.7074C70.9894 19.4016 71.3365 19.9829 71.7644 20.4511C72.1922 20.9273 72.7008 21.2907 73.2821 21.541C73.8633 21.7912 74.4849 21.9122 75.155 21.9122C75.5587 21.9122 75.9139 21.8881 76.2368 21.8477C76.5597 21.8074 76.8583 21.7346 77.1328 21.6378C77.4073 21.5409 77.6656 21.4199 77.9078 21.2745C78.1581 21.1212 78.4003 20.9355 78.6344 20.7174C78.7071 20.6529 78.7797 20.6046 78.8604 20.5641C78.9331 20.5318 79.0219 20.5157 79.1187 20.5157ZM89.2503 21.8639C89.8154 21.8639 90.324 21.7671 90.768 21.5813C91.2201 21.3957 91.5995 21.1292 91.8982 20.7822C92.213 20.4431 92.4472 20.0232 92.6087 19.5388C92.7781 19.0544 92.8588 18.5056 92.8588 17.9001V8.47089H95.7894V17.9081C95.7894 18.8447 95.6359 19.7165 95.3292 20.5157C95.0305 21.3068 94.6026 21.9931 94.0295 22.5743C93.4644 23.1475 92.7781 23.5995 91.9708 23.9225C91.1635 24.2454 90.2594 24.3988 89.2422 24.3988C88.2331 24.3988 87.3208 24.2374 86.5135 23.9225C85.7062 23.5995 85.0201 23.1475 84.455 22.5743C83.8979 21.9931 83.462 21.3068 83.1552 20.5157C82.8566 19.7165 82.7113 18.8447 82.7113 17.9081V8.47089H85.6417V17.9001C85.6417 18.5056 85.7224 19.0464 85.8839 19.5388C86.0535 20.0232 86.2875 20.443 86.5943 20.7902C86.901 21.1292 87.2724 21.3956 87.7165 21.5893C88.1766 21.7669 88.6852 21.8639 89.2503 21.8639ZM101.796 18.0695V24.2292H98.8651V8.47089H103.669C104.742 8.47089 105.662 8.58392 106.421 8.80996C107.188 9.02793 107.818 9.3347 108.31 9.73834C108.803 10.142 109.166 10.6183 109.392 11.1753C109.626 11.7243 109.739 12.3378 109.739 13.0079C109.739 13.5407 109.659 14.0412 109.497 14.5094C109.344 14.9777 109.118 15.4136 108.819 15.7931C108.528 16.1806 108.165 16.5197 107.729 16.8103C107.301 17.1009 106.809 17.335 106.26 17.5044C106.631 17.7143 106.954 18.0131 107.221 18.4086L111.168 24.2292H108.528C108.27 24.2292 108.06 24.1808 107.874 24.0759C107.697 23.9709 107.552 23.8256 107.431 23.64L104.121 18.5943C103.999 18.4086 103.862 18.2714 103.709 18.1907C103.564 18.11 103.346 18.0695 103.055 18.0695H101.796ZM101.796 15.9706H103.628C104.177 15.9706 104.661 15.898 105.065 15.7608C105.477 15.6235 105.816 15.4297 106.082 15.1957C106.349 14.9454 106.551 14.6547 106.68 14.3238C106.809 13.9928 106.873 13.6214 106.873 13.2258C106.873 12.4266 106.607 11.8131 106.074 11.3852C105.549 10.9574 104.75 10.7394 103.669 10.7394H101.796V15.9706ZM122.987 8.47089V10.804H116.004V15.1714H121.51V17.4237H116.004V21.8881H122.987V24.2292H113.049V8.47089H122.987Z" fill="#110F14"/>
<path d="M47.1026 31.2687C47.0622 31.3414 47.0219 31.3899 46.9734 31.4222C46.925 31.4544 46.8684 31.4706 46.8038 31.4706C46.7393 31.4706 46.6667 31.4463 46.5778 31.3979C46.4971 31.3414 46.4002 31.2848 46.2872 31.2203C46.1742 31.1557 46.045 31.0992 45.8917 31.0508C45.7464 30.9942 45.5687 30.9701 45.3589 30.9701C45.1731 30.9701 45.0117 30.9942 44.8745 31.0427C44.7372 31.0831 44.6242 31.1477 44.5273 31.2284C44.4385 31.3091 44.3658 31.406 44.3174 31.519C44.2689 31.632 44.2448 31.7451 44.2448 31.8822C44.2448 32.0518 44.2932 32.189 44.382 32.302C44.4788 32.4151 44.6 32.5119 44.7615 32.5927C44.9229 32.6734 45.0924 32.7461 45.2943 32.8026C45.496 32.8671 45.6979 32.9317 45.8997 33.0044C46.1096 33.077 46.3115 33.1578 46.5132 33.2546C46.7151 33.3435 46.8927 33.4645 47.046 33.6098C47.1995 33.7552 47.3286 33.9248 47.4174 34.1347C47.5143 34.3445 47.5627 34.5947 47.5627 34.8935C47.5627 35.2164 47.5062 35.5232 47.3932 35.8057C47.2802 36.0883 47.1187 36.3305 46.9089 36.5484C46.699 36.7583 46.4406 36.9197 46.1257 37.0409C45.8189 37.1619 45.4637 37.2185 45.0682 37.2185C44.8422 37.2185 44.6161 37.1942 44.3901 37.1458C44.1721 37.1055 43.9542 37.0409 43.7523 36.9602C43.5505 36.8794 43.3568 36.7744 43.1792 36.6614C43.0016 36.5484 42.8481 36.4192 42.7109 36.2739L43.0984 35.6362C43.1387 35.5878 43.1792 35.5555 43.2276 35.5232C43.2841 35.4909 43.3406 35.4748 43.4052 35.4748C43.4859 35.4748 43.5747 35.507 43.6715 35.5796C43.7684 35.6442 43.8814 35.7169 44.0106 35.8057C44.1398 35.8864 44.2932 35.9671 44.4708 36.0317C44.6484 36.0963 44.8663 36.1286 45.1085 36.1286C45.488 36.1286 45.7867 36.0399 45.9885 35.8623C46.1984 35.6765 46.3033 35.4182 46.3033 35.0791C46.3033 34.8935 46.2549 34.7401 46.158 34.619C46.0693 34.4979 45.9401 34.401 45.7867 34.3203C45.6333 34.2395 45.4557 34.1669 45.2538 34.1104C45.0521 34.0539 44.8502 33.9893 44.6484 33.9248C44.4466 33.8602 44.2448 33.7794 44.0429 33.6826C43.8411 33.5937 43.6635 33.4727 43.5101 33.3192C43.3568 33.1659 43.2276 32.9883 43.1307 32.7623C43.0419 32.5362 42.9934 32.2617 42.9934 31.9307C42.9934 31.6723 43.0419 31.414 43.1469 31.1638C43.2518 30.9135 43.4052 30.6956 43.607 30.5018C43.8089 30.3081 44.059 30.1546 44.3497 30.0416C44.6403 29.9286 44.9714 29.864 45.3507 29.864C45.7705 29.864 46.1661 29.9286 46.5214 30.0659C46.8766 30.1951 47.1833 30.3807 47.4335 30.6229L47.1026 31.2687ZM52.4307 31.2687C52.3903 31.3414 52.35 31.3899 52.3016 31.4222C52.2531 31.4544 52.1966 31.4706 52.132 31.4706C52.0674 31.4706 51.9948 31.4463 51.9059 31.3979C51.8252 31.3414 51.7283 31.2848 51.6153 31.2203C51.5023 31.1557 51.3731 31.0992 51.2198 31.0508C51.0745 30.9942 50.8969 30.9701 50.687 30.9701C50.5012 30.9701 50.3398 30.9942 50.2026 31.0427C50.0653 31.0831 49.9523 31.1477 49.8554 31.2284C49.7667 31.3091 49.6939 31.406 49.6455 31.519C49.5971 31.632 49.5729 31.7451 49.5729 31.8822C49.5729 32.0518 49.6214 32.189 49.7101 32.302C49.807 32.4151 49.9281 32.5119 50.0896 32.5927C50.251 32.6734 50.4205 32.7461 50.6224 32.8026C50.8242 32.8671 51.026 32.9317 51.2278 33.0044C51.4377 33.077 51.6396 33.1578 51.8413 33.2546C52.0432 33.3435 52.2208 33.4645 52.3742 33.6098C52.5276 33.7552 52.6568 33.9248 52.7455 34.1347C52.8424 34.3445 52.8908 34.5947 52.8908 34.8935C52.8908 35.2164 52.8344 35.5232 52.7214 35.8057C52.6083 36.0883 52.4469 36.3305 52.237 36.5484C52.0271 36.7583 51.7687 36.9197 51.4538 37.0409C51.1471 37.1619 50.7919 37.2185 50.3964 37.2185C50.1703 37.2185 49.9443 37.1942 49.7182 37.1458C49.5002 37.1055 49.2823 37.0409 49.0804 36.9602C48.8786 36.8794 48.6849 36.7744 48.5073 36.6614C48.3297 36.5484 48.1762 36.4192 48.0391 36.2739L48.4266 35.6362C48.4669 35.5878 48.5073 35.5555 48.5557 35.5232C48.6122 35.4909 48.6687 35.4748 48.7333 35.4748C48.8141 35.4748 48.9028 35.507 48.9997 35.5796C49.0965 35.6442 49.2096 35.7169 49.3387 35.8057C49.4679 35.8864 49.6214 35.9671 49.799 36.0317C49.9766 36.0963 50.1945 36.1286 50.4367 36.1286C50.8161 36.1286 51.1148 36.0399 51.3167 35.8623C51.5266 35.6765 51.6314 35.4182 51.6314 35.0791C51.6314 34.8935 51.583 34.7401 51.4861 34.619C51.3974 34.4979 51.2682 34.401 51.1148 34.3203C50.9615 34.2395 50.7839 34.1669 50.582 34.1104C50.3802 34.0539 50.1783 33.9893 49.9766 33.9248C49.7747 33.8602 49.5729 33.7794 49.371 33.6826C49.1693 33.5937 48.9917 33.4727 48.8382 33.3192C48.6849 33.1659 48.5557 32.9883 48.4589 32.7623C48.37 32.5362 48.3216 32.2617 48.3216 31.9307C48.3216 31.6723 48.37 31.414 48.475 31.1638C48.5799 30.9135 48.7333 30.6956 48.9351 30.5018C49.137 30.3081 49.3872 30.1546 49.6778 30.0416C49.9684 29.9286 50.2995 29.864 50.6788 29.864C51.0986 29.864 51.4943 29.9286 51.8495 30.0659C52.2047 30.1951 52.5115 30.3807 52.7617 30.6229L52.4307 31.2687ZM55.2401 36.0399H58.1141V37.1458H53.9V29.969H55.232V36.0399H55.2401ZM65.4846 29.969V31.0347H62.3038V33.0286H64.8145V34.0539H62.3038V36.0883H65.4846V37.1458H60.9557V29.969H65.4846ZM67.3413 29.969C67.3978 29.969 67.4544 29.969 67.4867 29.977C67.527 29.977 67.5592 29.9932 67.5915 30.0093C67.6238 30.0255 67.6561 30.0416 67.6884 30.0739C67.7207 30.0982 67.753 30.1385 67.7853 30.1869L71.5554 34.9904C71.5393 34.8774 71.5311 34.7643 71.5231 34.6513C71.5231 34.5383 71.515 34.4333 71.515 34.3364V29.969H72.6936V37.1458H72.0075C71.9025 37.1458 71.8137 37.1296 71.741 37.0973C71.6684 37.0651 71.6038 37.0086 71.5393 36.9197L67.7853 32.1406C67.7934 32.2456 67.8014 32.3505 67.8014 32.4555C67.8096 32.5604 67.8096 32.6492 67.8096 32.738V37.1458H66.6309V29.969H67.3413ZM79.0794 35.4505C79.152 35.4505 79.2165 35.4748 79.265 35.5312L79.7898 36.1044C79.4992 36.4677 79.1358 36.7421 78.716 36.9359C78.2962 37.1296 77.7796 37.2265 77.1903 37.2265C76.6575 37.2265 76.1811 37.1378 75.7533 36.952C75.3335 36.7664 74.9702 36.5161 74.6634 36.1932C74.3648 35.8703 74.1306 35.4828 73.9691 35.0307C73.8077 34.5786 73.727 34.0862 73.727 33.5534C73.727 33.0125 73.8158 32.5201 73.9934 32.076C74.171 31.6239 74.4212 31.2364 74.7441 30.9135C75.0671 30.5906 75.4546 30.3404 75.9066 30.1628C76.3587 29.977 76.8592 29.8883 77.4082 29.8883C77.941 29.8883 78.4092 29.977 78.8049 30.1466C79.2085 30.3161 79.5476 30.5421 79.8301 30.8248L79.3861 31.4463C79.3618 31.4867 79.3215 31.519 79.2811 31.5513C79.2408 31.5836 79.1842 31.5998 79.1117 31.5998C79.0389 31.5998 78.9582 31.5675 78.8775 31.5109C78.7967 31.4544 78.6999 31.3899 78.5707 31.3171C78.4497 31.2445 78.2962 31.18 78.1025 31.1234C77.9169 31.0669 77.6827 31.0347 77.3921 31.0347C77.053 31.0347 76.7462 31.0911 76.4556 31.2123C76.1731 31.3253 75.9309 31.4947 75.729 31.7128C75.5273 31.9307 75.3658 32.1972 75.2528 32.5119C75.1398 32.8268 75.0832 33.1739 75.0832 33.5614C75.0832 33.9651 75.1398 34.3284 75.2528 34.6352C75.3658 34.95 75.5273 35.2164 75.721 35.4263C75.9148 35.6442 76.1488 35.8057 76.4072 35.9187C76.6736 36.0317 76.9561 36.0883 77.2629 36.0883C77.4486 36.0883 77.6101 36.0802 77.7554 36.056C77.9007 36.0399 78.0379 36.0076 78.159 35.9591C78.2882 35.9187 78.4012 35.8623 78.5143 35.7977C78.6273 35.725 78.7403 35.6442 78.8452 35.5473C78.8775 35.5151 78.9098 35.4909 78.9502 35.4748C78.9986 35.4666 79.0389 35.4505 79.0794 35.4505ZM82.1874 34.3445V37.1458H80.8554V29.969H83.0431C83.5356 29.969 83.9554 30.0175 84.3025 30.1223C84.6497 30.2192 84.9403 30.3645 85.1582 30.5421C85.3842 30.7279 85.5457 30.9458 85.6507 31.1961C85.7556 31.4463 85.8122 31.7289 85.8122 32.0276C85.8122 32.2697 85.7799 32.4958 85.7072 32.7138C85.6346 32.9317 85.5377 33.1255 85.4004 33.3031C85.2712 33.4807 85.1018 33.6341 84.8999 33.7633C84.7061 33.8925 84.4801 34.0055 84.2299 34.0781C84.3993 34.175 84.5447 34.3123 84.6658 34.4899L86.466 37.1378H85.2632C85.1502 37.1378 85.0452 37.1135 84.9645 37.0651C84.8837 37.0166 84.8191 36.952 84.7627 36.8633L83.253 34.5625C83.1965 34.4737 83.132 34.4171 83.0674 34.3768C83.0028 34.3364 82.9059 34.3203 82.7686 34.3203H82.1874V34.3445ZM82.1874 33.3838H83.0189C83.2691 33.3838 83.4872 33.3515 83.6728 33.2869C83.8585 33.2223 84.0119 33.1416 84.133 33.0286C84.254 32.9156 84.3429 32.7864 84.4075 32.6331C84.4639 32.4796 84.4962 32.3102 84.4962 32.1326C84.4962 31.7692 84.3752 31.4867 84.133 31.293C83.8988 31.0992 83.5275 31.0024 83.0351 31.0024H82.1794V33.3838H82.1874ZM90.5025 34.3526V37.1458H89.1705V34.3526L86.5549 29.9609H87.7335C87.8465 29.9609 87.9434 29.9852 88.008 30.0416C88.0806 30.0982 88.1372 30.1708 88.1856 30.2515L89.5014 32.6492C89.5742 32.7945 89.6467 32.9237 89.7033 33.0529C89.7598 33.182 89.8082 33.3031 89.8566 33.4242C89.8971 33.2951 89.9455 33.1739 90.0019 33.0447C90.0585 32.9156 90.1231 32.7784 90.2038 32.6411L91.5117 30.2435C91.5519 30.1708 91.6004 30.1062 91.6731 30.0416C91.7457 29.977 91.8426 29.9447 91.9556 29.9447H93.1342L90.5025 34.3526ZM95.1929 34.619V37.1458H93.8528V29.969H96.1939C96.6702 29.969 97.09 30.0255 97.4372 30.1385C97.7842 30.2515 98.0749 30.405 98.3091 30.6067C98.5431 30.8086 98.7046 31.0508 98.8176 31.3333C98.9226 31.6159 98.979 31.9227 98.979 32.2536C98.979 32.6008 98.9226 32.9237 98.8014 33.2143C98.6884 33.505 98.5108 33.7472 98.2768 33.957C98.0426 34.1669 97.7519 34.3284 97.4049 34.4414C97.0577 34.5544 96.646 34.619 96.1858 34.619H95.1929ZM95.1929 33.5776H96.1939C96.4361 33.5776 96.654 33.5453 96.8316 33.4888C97.0174 33.4242 97.1627 33.3354 97.2837 33.2223C97.4049 33.1093 97.4936 32.964 97.5502 32.8026C97.6066 32.6411 97.6389 32.4555 97.6389 32.2536C97.6389 32.0598 97.6066 31.8904 97.5502 31.7289C97.4936 31.5675 97.4049 31.4383 97.2837 31.3333C97.1627 31.2203 97.0174 31.1395 96.8316 31.0831C96.646 31.0265 96.4361 30.9942 96.1939 30.9942H95.1929V33.5776ZM105.074 29.969V31.0669H102.911V37.1458H101.579V31.0669H99.407V29.969H105.074ZM107.423 37.1458H106.083V29.969H107.423V37.1458ZM115.932 33.5534C115.932 34.0781 115.843 34.5706 115.666 35.0145C115.488 35.4586 115.246 35.8461 114.923 36.177C114.608 36.5081 114.221 36.7583 113.777 36.944C113.333 37.1296 112.832 37.2185 112.291 37.2185C111.75 37.2185 111.25 37.1296 110.798 36.944C110.354 36.7583 109.966 36.5 109.643 36.177C109.329 35.8461 109.078 35.4586 108.901 35.0145C108.723 34.5625 108.634 34.0781 108.634 33.5534C108.634 33.0286 108.723 32.5442 108.901 32.0921C109.078 31.6401 109.321 31.2526 109.643 30.9216C109.966 30.5906 110.346 30.3404 110.798 30.1546C111.25 29.969 111.742 29.8802 112.291 29.8802C112.832 29.8802 113.325 29.969 113.777 30.1546C114.221 30.3404 114.608 30.5987 114.923 30.9216C115.238 31.2445 115.488 31.632 115.666 32.0841C115.843 32.5442 115.932 33.0286 115.932 33.5534ZM114.56 33.5534C114.56 33.1578 114.503 32.8107 114.398 32.4958C114.293 32.181 114.148 31.9145 113.954 31.6966C113.761 31.4786 113.518 31.3091 113.236 31.1961C112.961 31.0831 112.647 31.0185 112.291 31.0185C111.944 31.0185 111.621 31.075 111.339 31.1961C111.056 31.3091 110.814 31.4786 110.62 31.6966C110.426 31.9145 110.273 32.181 110.168 32.4958C110.063 32.8107 110.007 33.1578 110.007 33.5534C110.007 33.9489 110.063 34.3041 110.168 34.619C110.273 34.9338 110.426 35.1921 110.62 35.4102C110.822 35.6281 111.056 35.7895 111.339 35.9026C111.621 36.0156 111.936 36.0802 112.291 36.0802C112.638 36.0802 112.953 36.0237 113.236 35.9026C113.518 35.7895 113.752 35.6201 113.954 35.4102C114.148 35.1921 114.301 34.9258 114.398 34.619C114.503 34.3041 114.56 33.9489 114.56 33.5534ZM117.684 29.969C117.74 29.969 117.789 29.969 117.829 29.977C117.87 29.977 117.902 29.9932 117.934 30.0093C117.967 30.0255 117.999 30.0416 118.031 30.0739C118.063 30.0982 118.096 30.1385 118.128 30.1869L121.898 34.9904C121.882 34.8774 121.874 34.7643 121.866 34.6513C121.858 34.5383 121.858 34.4333 121.858 34.3364V29.969H123.036V37.1458H122.342C122.237 37.1458 122.148 37.1296 122.076 37.0973C122.003 37.0651 121.938 37.0086 121.874 36.9197L118.12 32.1406C118.128 32.2456 118.136 32.3505 118.136 32.4555C118.144 32.5604 118.144 32.6492 118.144 32.738V37.1458H116.965V29.969H117.684Z" fill="#110F14"/>
<path fill-rule="evenodd" clip-rule="evenodd" d="M17.2082 0.640137C17.3777 0.478678 17.6441 0.478678 17.8056 0.640137C23.392 6.16201 31.9332 5.74222 33.9999 5.55655C34.242 5.53233 34.4599 5.72608 34.4599 5.96826V23.5834C34.4599 33.6422 19.3556 40.819 17.6603 41.594C17.5553 41.6424 17.4584 41.6424 17.3535 41.594C15.6582 40.8271 0.553711 33.6422 0.553711 23.5834V5.96019C0.553711 5.718 0.77168 5.52425 1.01387 5.54847C3.08053 5.74222 11.6217 6.16201 17.2082 0.640137ZM17.2077 6.58194C17.3691 6.42048 17.6356 6.42048 17.8051 6.58194C21.8012 10.4489 27.8398 10.134 29.2606 9.99678C29.4462 9.98062 29.5754 10.0937 29.5754 10.2793V22.8488C29.5754 29.9207 19.0726 34.9986 17.6598 35.6525C17.5549 35.7009 17.4499 35.7009 17.345 35.6525C15.9322 34.9986 5.42931 29.9288 5.42931 22.8488V10.4327C5.42931 10.1825 5.64728 9.98871 5.88947 10.0129C7.55249 10.1502 13.3327 10.3197 17.2077 6.58194Z" fill="#110F14"/>
<path fill-rule="evenodd" clip-rule="evenodd" d="M17.2071 6.58194C17.3685 6.42048 17.635 6.42048 17.8045 6.58194C21.8006 10.4489 27.8392 10.134 29.26 9.99678C29.4456 9.98064 29.5748 10.0936 29.5748 10.2793V22.8488C29.5748 29.9207 19.072 34.9986 17.6592 35.6525C17.5543 35.7009 17.4493 35.7009 17.3444 35.6525C15.9316 34.9986 5.42871 29.9288 5.42871 22.8488V10.4327C5.42871 10.1825 5.64668 9.98871 5.88887 10.0129C7.55189 10.1502 13.3321 10.3197 17.2071 6.58194ZM16.1664 27.3535C16.344 27.4827 16.5862 27.4422 16.7233 27.2728L25.3695 16.124C25.5067 15.9384 25.4664 15.6719 25.2806 15.5428L23.8195 14.5176C23.6419 14.3964 23.3997 14.4287 23.2705 14.5983L16.2148 23.5027C16.0775 23.6723 15.8435 23.7045 15.6659 23.5834L11.371 20.5964C11.2015 20.4754 10.9674 20.5077 10.8301 20.6691L9.68378 22.0415C9.53847 22.2191 9.57076 22.4855 9.75644 22.6228L16.1664 27.3535Z" fill="#110F14"/>
</g>
</g>
<defs>
<clipPath id="clip0_30_183">
<rect width="124" height="41.3333" fill="white" transform="translate(0 0.333344)"/>
</clipPath>
</defs>
</svg>
