<svg width="118" height="57" viewBox="0 0 118 57" fill="none" xmlns="http://www.w3.org/2000/svg">
<g clip-path="url(#clip0_31_485)">
<mask id="mask0_31_485" style="mask-type:luminance" maskUnits="userSpaceOnUse" x="0" y="0" width="118" height="57">
<path d="M117.986 0.39209H0.490234V56.9476H117.986V0.39209Z" fill="white"/>
</mask>
<g mask="url(#mask0_31_485)">
<path d="M31.3721 10.6143H43.2589V12.8271H38.5786V25.3012H36.0132V12.8271H31.3525L31.3721 10.6143ZM42.7496 14.6678H44.943V16.724H44.982C45.0605 16.4303 45.1975 16.1561 45.3933 15.882C45.5892 15.6079 45.8241 15.3533 46.1179 15.1378C46.392 14.9028 46.7054 14.7266 47.0579 14.5895C47.3907 14.4524 47.7432 14.3741 48.0957 14.3741C48.3698 14.3741 48.5657 14.3937 48.6636 14.3937C48.7616 14.4133 48.879 14.4329 48.9769 14.4329V16.6848C48.8203 16.6457 48.6441 16.6261 48.4677 16.6065C48.2915 16.5869 48.1348 16.5673 47.9586 16.5673C47.567 16.5673 47.1949 16.6457 46.8425 16.8023C46.4899 16.9591 46.1962 17.1941 45.922 17.4878C45.6675 17.8011 45.4521 18.1731 45.2954 18.6236C45.1388 19.074 45.0605 19.6027 45.0605 20.1901V25.2424H42.7105L42.7496 14.6678ZM59.7474 25.3012H57.4366V23.813H57.3975C57.1038 24.3613 56.6729 24.7725 56.105 25.1054C55.5371 25.4384 54.9496 25.595 54.3622 25.595C52.9718 25.595 51.9535 25.262 51.3268 24.5571C50.7002 23.8717 50.3869 22.8142 50.3869 21.4239V14.6678H52.7368V21.1889C52.7368 22.1289 52.913 22.7947 53.2852 23.1667C53.6376 23.5583 54.1468 23.7541 54.7929 23.7541C55.2826 23.7541 55.6938 23.6758 56.0267 23.5192C56.3596 23.3625 56.6337 23.1667 56.8295 22.9121C57.045 22.6576 57.1821 22.3443 57.28 21.9917C57.3779 21.6392 57.4171 21.2476 57.4171 20.8364V14.6678H59.7669V25.3012H59.7474ZM63.7423 21.8938C63.8206 22.5793 64.0752 23.0492 64.5255 23.3429C64.9759 23.6172 65.5243 23.7541 66.1509 23.7541C66.3663 23.7541 66.6209 23.7347 66.8951 23.6955C67.1692 23.6562 67.4434 23.5975 67.6784 23.4996C67.9329 23.4017 68.1287 23.2646 68.2854 23.0688C68.442 22.873 68.5205 22.638 68.5008 22.3443C68.4812 22.0506 68.3833 21.7959 68.1679 21.6001C67.9525 21.4043 67.6979 21.2672 67.3846 21.1301C67.0712 21.0126 66.6992 20.9147 66.288 20.8364C65.8768 20.7581 65.4655 20.6602 65.0347 20.5623C64.6039 20.4644 64.1731 20.3469 63.7619 20.2097C63.3505 20.0726 62.9981 19.8964 62.6652 19.6418C62.3519 19.4069 62.0778 19.1131 61.9014 18.7411C61.7056 18.3689 61.6077 17.9381 61.6077 17.3899C61.6077 16.8023 61.7449 16.3324 62.0386 15.9407C62.3127 15.5491 62.6848 15.2357 63.1156 15.0007C63.5465 14.7658 64.036 14.5895 64.5647 14.4916C65.0934 14.3937 65.6026 14.3545 66.0726 14.3545C66.6209 14.3545 67.1497 14.4133 67.6392 14.5308C68.1287 14.6483 68.5988 14.8245 68.9904 15.0986C69.4016 15.3533 69.7345 15.7058 69.9891 16.117C70.2632 16.5282 70.42 17.0374 70.4983 17.6248H68.0504C67.9329 17.057 67.6784 16.6848 67.2867 16.489C66.8754 16.2932 66.425 16.1953 65.8963 16.1953C65.7397 16.1953 65.5243 16.2149 65.3088 16.2345C65.0738 16.2736 64.878 16.3128 64.6626 16.3911C64.4668 16.4694 64.2906 16.5869 64.1535 16.724C64.0164 16.8612 63.9381 17.057 63.9381 17.292C63.9381 17.5857 64.036 17.8011 64.2318 17.9773C64.4276 18.1535 64.6822 18.2906 65.0151 18.4277C65.3285 18.5453 65.7005 18.6432 66.1117 18.7215C66.5229 18.7998 66.9537 18.8977 67.3846 18.9956C67.8154 19.0936 68.2266 19.211 68.6378 19.3481C69.0492 19.4852 69.4212 19.6614 69.7345 19.916C70.0478 20.1511 70.3221 20.4448 70.5179 20.7972C70.7137 21.1497 70.8116 21.6001 70.8116 22.1093C70.8116 22.7359 70.6745 23.2646 70.3808 23.7151C70.087 24.1459 69.7149 24.5179 69.2646 24.7921C68.8142 25.0662 68.2854 25.262 67.7371 25.3992C67.1691 25.5167 66.6209 25.595 66.0726 25.595C65.4068 25.595 64.7801 25.5167 64.2122 25.3599C63.6444 25.2033 63.1352 24.9683 62.7239 24.6746C62.3127 24.3613 61.9797 23.9892 61.7448 23.5192C61.5098 23.0688 61.3727 22.5205 61.3531 21.8742H63.7227V21.8938H63.7423ZM71.4774 14.6678H73.2594V11.4563H75.6092V14.6483H77.7242V16.3911H75.6092V22.07C75.6092 22.3247 75.6289 22.5205 75.6485 22.7163C75.6681 22.8926 75.7268 23.0492 75.7856 23.1667C75.8639 23.2842 75.9814 23.3821 76.1185 23.4408C76.2751 23.4996 76.4709 23.5389 76.7451 23.5389C76.9017 23.5389 77.0781 23.5389 77.2346 23.5192C77.3914 23.4996 77.5676 23.48 77.7242 23.4408V25.262C77.4697 25.3013 77.215 25.3209 76.9605 25.3403C76.7059 25.3795 76.4709 25.3795 76.1968 25.3795C75.5702 25.3795 75.0806 25.3209 74.7085 25.2033C74.3365 25.0858 74.0427 24.9096 73.8272 24.6942C73.6118 24.4592 73.4748 24.185 73.3964 23.8522C73.3181 23.5192 73.279 23.108 73.2594 22.6772V16.4107H71.4774V14.6287V14.6678ZM79.3692 14.6678H81.582V16.117H81.6212C81.954 15.4904 82.4045 15.0595 82.992 14.7853C83.5794 14.5112 84.2061 14.3741 84.911 14.3741C85.7532 14.3741 86.4777 14.5112 87.1043 14.8245C87.731 15.1182 88.2401 15.5099 88.6513 16.0386C89.0625 16.5478 89.3759 17.1549 89.5717 17.8402C89.7676 18.5256 89.885 19.2698 89.885 20.0335C89.885 20.7581 89.7871 21.4434 89.6109 22.1093C89.4151 22.7751 89.1408 23.3821 88.7688 23.8913C88.3967 24.4004 87.9268 24.8116 87.3394 25.1249C86.7518 25.4382 86.086 25.595 85.3027 25.595C84.9698 25.595 84.6173 25.5557 84.2844 25.4971C83.9516 25.4384 83.6186 25.3403 83.3053 25.2033C82.992 25.0662 82.6982 24.89 82.4437 24.6746C82.1694 24.4592 81.954 24.2046 81.7778 23.9305H81.7386V29.2374H79.3888V14.6678H79.3692ZM87.5743 19.9943C87.5743 19.5243 87.5156 19.0544 87.3785 18.6039C87.2609 18.1535 87.0651 17.7619 86.8105 17.4094C86.556 17.057 86.2427 16.7827 85.8902 16.5673C85.5181 16.3519 85.0873 16.254 84.6173 16.254C83.6382 16.254 82.8941 16.5869 82.3848 17.2724C81.8953 17.9577 81.6407 18.8782 81.6407 20.0139C81.6407 20.5623 81.6995 21.0518 81.8366 21.5022C81.9736 21.9525 82.15 22.3443 82.4241 22.6772C82.6787 23.01 82.992 23.2646 83.364 23.4604C83.7361 23.6562 84.1474 23.7541 84.6369 23.7541C85.1852 23.7541 85.6161 23.6368 85.9881 23.4213C86.3602 23.2059 86.6539 22.9121 86.9085 22.5793C87.1434 22.2268 87.3198 21.8352 87.4177 21.3847C87.5156 20.9147 87.5743 20.4644 87.5743 19.9943ZM91.7062 10.6143H94.0562V12.8271H91.7062V10.6143ZM91.7062 14.6678H94.0562V25.3012H91.7062V14.6678ZM96.1515 10.6143H98.5014V25.3012H96.1515V10.6143ZM105.669 25.595C104.827 25.595 104.063 25.4578 103.397 25.1641C102.731 24.8704 102.183 24.4983 101.713 24.0088C101.263 23.5192 100.91 22.9121 100.675 22.2268C100.44 21.5413 100.303 20.7777 100.303 19.9747C100.303 19.1719 100.421 18.4277 100.675 17.7423C100.91 17.057 101.263 16.4694 101.713 15.9603C102.163 15.4708 102.731 15.0792 103.397 14.8049C104.063 14.5308 104.827 14.3741 105.669 14.3741C106.511 14.3741 107.274 14.5112 107.94 14.8049C108.606 15.0792 109.154 15.4708 109.624 15.9603C110.075 16.4499 110.427 17.057 110.662 17.7423C110.897 18.4277 111.034 19.1719 111.034 19.9747C111.034 20.7972 110.917 21.5413 110.662 22.2268C110.408 22.9121 110.075 23.4996 109.624 24.0088C109.174 24.4983 108.606 24.89 107.94 25.1641C107.274 25.4382 106.53 25.595 105.669 25.595ZM105.669 23.7347C106.178 23.7347 106.648 23.6172 107.02 23.4017C107.412 23.1863 107.705 22.8926 107.96 22.5401C108.214 22.1876 108.391 21.7763 108.508 21.3455C108.626 20.8951 108.684 20.4448 108.684 19.9747C108.684 19.5243 108.626 19.074 108.508 18.6236C108.391 18.1731 108.214 17.7815 107.96 17.429C107.705 17.0766 107.392 16.8023 107.02 16.5869C106.628 16.3715 106.178 16.254 105.669 16.254C105.16 16.254 104.689 16.3715 104.317 16.5869C103.926 16.8023 103.632 17.096 103.378 17.429C103.123 17.7815 102.947 18.1731 102.829 18.6236C102.712 19.074 102.653 19.5243 102.653 19.9747C102.653 20.4448 102.712 20.8951 102.829 21.3455C102.947 21.7959 103.123 22.1876 103.378 22.5401C103.632 22.8926 103.945 23.1863 104.317 23.4017C104.709 23.6368 105.16 23.7347 105.669 23.7347ZM111.739 14.6678H113.521V11.4563H115.871V14.6483H117.986V16.3911H115.871V22.07C115.871 22.3247 115.891 22.5205 115.91 22.7163C115.93 22.8926 115.989 23.0492 116.047 23.1667C116.126 23.2842 116.243 23.3821 116.38 23.4408C116.537 23.4996 116.733 23.5387 117.007 23.5387C117.164 23.5387 117.34 23.5387 117.497 23.5192C117.653 23.4996 117.829 23.48 117.986 23.4408V25.262C117.732 25.3013 117.477 25.3209 117.222 25.3403C116.968 25.3795 116.733 25.3795 116.459 25.3795C115.832 25.3795 115.343 25.3209 114.97 25.2033C114.598 25.0858 114.305 24.9096 114.089 24.6942C113.874 24.4592 113.737 24.185 113.658 23.852C113.58 23.5192 113.541 23.108 113.521 22.6772V16.4107H111.739V14.6287V14.6678Z" fill="black"/>
<path d="M28.6305 10.6142H17.8796L14.5702 0.39209L11.2411 10.6142L0.490234 10.5946L9.18493 16.9199L5.85588 27.142L14.5506 20.8168L23.2453 27.142L19.9358 16.9199L28.6305 10.6142Z" fill="#00B67A"/>
<path d="M20.6801 19.2307L19.9359 16.9199L14.5703 20.8168L20.6801 19.2307Z" fill="#005128"/>
<path d="M22.3257 35.1123H0.490234V56.9478H22.3257V35.1123Z" fill="#00B67A"/>
<path d="M11.4033 50.1839L16.2224 53.7244L14.7831 49.2349L11.6687 49.9899L11.4033 50.1839Z" fill="white"/>
<path d="M19.2072 44.4731H13.2485L11.4142 38.7515L9.56904 44.4731L3.61035 44.4622L8.42941 48.0027L6.58428 53.7243L11.4033 50.1838L14.3881 48.0027L19.2072 44.4731Z" fill="white"/>
<path d="M46.2417 35.1123H24.4062V56.9478H46.2417V35.1123Z" fill="#00B67A"/>
<path d="M35.3174 50.1839L40.1364 53.7244L38.6971 49.2349L35.5827 49.9899L35.3174 50.1839Z" fill="white"/>
<path d="M43.1212 44.4731H37.1625L35.3282 38.7515L33.4831 44.4731L27.5244 44.4622L32.3434 48.0027L30.4984 53.7243L35.3174 50.1838L38.3021 48.0027L43.1212 44.4731Z" fill="white"/>
<path d="M70.1558 35.1123H48.3203V56.9478H70.1558V35.1123Z" fill="#00B67A"/>
<path d="M59.2334 50.1839L64.0524 53.7244L62.6132 49.2349L59.4987 49.9899L59.2334 50.1839Z" fill="white"/>
<path d="M67.0372 44.4731H61.0785L59.2443 38.7515L57.3991 44.4731L51.4404 44.4622L56.2595 48.0027L54.4144 53.7243L59.2334 50.1838L62.2182 48.0027L67.0372 44.4731Z" fill="white"/>
<path d="M94.0708 35.1123H72.2354V56.9478H94.0708V35.1123Z" fill="#00B67A"/>
<path d="M83.1484 50.1839L87.9675 53.7244L86.5283 49.2349L83.4139 49.9899L83.1484 50.1839Z" fill="white"/>
<path d="M90.9513 44.4731H84.9926L83.1583 38.7515L81.3132 44.4731L75.3545 44.4622L80.1735 48.0027L78.3284 53.7243L83.1475 50.1838L86.1322 48.0027L90.9513 44.4731Z" fill="white"/>
<path d="M117.986 35.1123H96.1504V56.9478H117.986V35.1123Z" fill="#00B67A"/>
<path d="M107.063 50.1839L111.883 53.7244L110.443 49.2349L107.329 49.9899L107.063 50.1839Z" fill="white"/>
<path d="M114.867 44.4731H108.909L107.074 38.7515L105.229 44.4731L99.2705 44.4622L104.09 48.0027L102.244 53.7243L107.063 50.1838L110.048 48.0027L114.867 44.4731Z" fill="white"/>
</g>
</g>
<defs>
<clipPath id="clip0_31_485">
<rect width="117.51" height="56.5555" fill="white" transform="translate(0.490234 0.39209)"/>
</clipPath>
</defs>
</svg>
