<svg width="154" height="38" viewBox="0 0 154 38" fill="none" xmlns="http://www.w3.org/2000/svg">
<g clip-path="url(#clip0_30_193)">
<mask id="mask0_30_193" style="mask-type:luminance" maskUnits="userSpaceOnUse" x="1" y="0" width="153" height="38">
<path d="M153.227 0.333374H1.15625V37.6667H153.227V0.333374Z" fill="white"/>
</mask>
<g mask="url(#mask0_30_193)">
<path d="M41.1249 13.5635H56.5094V16.4274H50.452V32.5724H47.1317V16.4274H41.0996L41.1249 13.5635ZM55.8504 18.8099H58.6891V21.4712H58.7397C58.8411 21.091 59.0186 20.7362 59.272 20.3813C59.5255 20.0265 59.8296 19.697 60.2097 19.4182C60.5646 19.114 60.9702 18.886 61.4263 18.7085C61.8572 18.5312 62.3135 18.4298 62.7696 18.4298C63.1244 18.4298 63.3779 18.4551 63.5046 18.4551C63.6313 18.4804 63.7835 18.5057 63.9102 18.5057V21.4204C63.7074 21.3698 63.4793 21.3445 63.2512 21.319C63.023 21.2937 62.8204 21.2684 62.5922 21.2684C62.0853 21.2684 61.6038 21.3698 61.1475 21.5726C60.6913 21.7753 60.3111 22.0795 59.9563 22.4596C59.6269 22.8651 59.348 23.3467 59.1453 23.9297C58.9425 24.5126 58.8411 25.1969 58.8411 25.9572V32.4963H55.7997L55.8504 18.8099ZM77.85 32.5724H74.8592V30.6461H74.8086C74.4284 31.3558 73.8708 31.888 73.1358 32.3188C72.4008 32.7497 71.6404 32.9525 70.8801 32.9525C69.0806 32.9525 67.7626 32.5216 66.9515 31.6092C66.1405 30.7221 65.7351 29.3535 65.7351 27.5539V18.8099H68.7764V27.2499C68.7764 28.4664 69.0045 29.3282 69.4861 29.8097C69.9423 30.3166 70.6012 30.57 71.4376 30.57C72.0713 30.57 72.6036 30.4686 73.0344 30.266C73.4653 30.0632 73.8201 29.8097 74.0736 29.4802C74.3523 29.1508 74.5297 28.7452 74.6564 28.2891C74.7833 27.8328 74.8339 27.3259 74.8339 26.7936V18.8099H77.8753V32.5724H77.85ZM83.0204 28.1622C83.1218 29.0494 83.4512 29.6577 84.0342 30.0378C84.6171 30.3927 85.3268 30.57 86.1378 30.57C86.4166 30.57 86.7461 30.5447 87.1009 30.4941C87.4558 30.4433 87.8106 30.3674 88.1148 30.2405C88.4442 30.1138 88.6976 29.9364 88.9004 29.683C89.1032 29.4295 89.2045 29.1254 89.1792 28.7452C89.1539 28.365 89.0272 28.0355 88.7484 27.7821C88.4695 27.5286 88.1401 27.3512 87.7345 27.1738C87.329 27.0217 86.8475 26.895 86.3153 26.7936C85.7829 26.6922 85.2507 26.5655 84.6932 26.4388C84.1356 26.312 83.5779 26.16 83.0457 25.9826C82.5135 25.8052 82.0573 25.577 81.6263 25.2476C81.2209 24.9434 80.866 24.5633 80.6379 24.0817C80.3845 23.6001 80.2577 23.0426 80.2577 22.3329C80.2577 21.5726 80.4352 20.9643 80.8154 20.4573C81.1702 19.9504 81.6518 19.5449 82.2093 19.2407C82.7669 18.9367 83.4006 18.7085 84.0849 18.5818C84.7692 18.4551 85.4282 18.4044 86.0365 18.4044C86.7461 18.4044 87.4304 18.4804 88.064 18.6326C88.6976 18.7846 89.3059 19.0127 89.8128 19.3676C90.3451 19.697 90.7759 20.1532 91.1055 20.6854C91.4603 21.2178 91.6631 21.8767 91.7644 22.637H88.5964C88.4442 21.902 88.1148 21.4204 87.6078 21.167C87.0756 20.9136 86.4926 20.7868 85.8084 20.7868C85.6056 20.7868 85.3268 20.8122 85.0479 20.8376C84.7438 20.8882 84.4904 20.9389 84.2116 21.0403C83.9582 21.1417 83.7301 21.2937 83.5526 21.4712C83.3752 21.6486 83.2738 21.902 83.2738 22.2062C83.2738 22.5864 83.4006 22.8651 83.654 23.0933C83.9074 23.3214 84.237 23.4987 84.6678 23.6762C85.0734 23.8283 85.5549 23.955 86.0871 24.0564C86.6194 24.1578 87.177 24.2845 87.7345 24.4112C88.2922 24.5379 88.8244 24.69 89.3567 24.8675C89.8889 25.0448 90.3705 25.2729 90.7759 25.6025C91.1815 25.9066 91.5364 26.2867 91.7898 26.743C92.0433 27.1992 92.17 27.7821 92.17 28.4411C92.17 29.2521 91.9925 29.9364 91.6124 30.5194C91.2322 31.0769 90.7506 31.5585 90.1677 31.9133C89.5848 32.2682 88.9004 32.5216 88.1908 32.6991C87.4558 32.8511 86.7461 32.9525 86.0365 32.9525C85.1748 32.9525 84.3637 32.8511 83.6287 32.6483C82.8937 32.4455 82.2346 32.1415 81.7024 31.7613C81.1702 31.3558 80.7393 30.8742 80.4352 30.266C80.131 29.683 79.9536 28.9733 79.9283 28.1369H82.9951V28.1622H83.0204ZM93.0317 18.8099H95.3381V14.6533H98.3796V18.7846H101.117V21.0403H98.3796V28.3903C98.3796 28.7199 98.4049 28.9733 98.4302 29.2268C98.4555 29.4549 98.5316 29.6577 98.6076 29.8097C98.709 29.9618 98.861 30.0885 99.0385 30.1646C99.2413 30.2405 99.4947 30.2913 99.8496 30.2913C100.052 30.2913 100.28 30.2913 100.483 30.266C100.686 30.2405 100.914 30.2152 101.117 30.1646V32.5216C100.787 32.5724 100.458 32.5977 100.128 32.623C99.7988 32.6737 99.4947 32.6737 99.1399 32.6737C98.3288 32.6737 97.6952 32.5977 97.2136 32.4455C96.7321 32.2935 96.3519 32.0654 96.0731 31.7866C95.7943 31.4825 95.6169 31.1277 95.5155 30.6968C95.4141 30.266 95.3635 29.7336 95.3381 29.1761V21.0656H93.0317V18.7593V18.8099ZM103.246 18.8099H106.11V20.6854H106.16C106.591 19.8745 107.174 19.3168 107.935 18.962C108.695 18.6071 109.506 18.4298 110.418 18.4298C111.508 18.4298 112.446 18.6071 113.257 19.0127C114.068 19.3929 114.727 19.8998 115.259 20.584C115.792 21.2431 116.197 22.0287 116.451 22.9159C116.705 23.8029 116.856 24.7661 116.856 25.7545C116.856 26.6922 116.729 27.5794 116.501 28.4411C116.248 29.3028 115.893 30.0885 115.411 30.7475C114.93 31.4064 114.322 31.9387 113.561 32.3443C112.801 32.7497 111.939 32.9525 110.925 32.9525C110.494 32.9525 110.038 32.9018 109.607 32.8258C109.177 32.7497 108.746 32.623 108.34 32.4455C107.935 32.2682 107.554 32.0401 107.225 31.7613C106.87 31.4825 106.591 31.153 106.363 30.7982H106.313V37.6667H103.271V18.8099H103.246ZM113.865 25.7038C113.865 25.0955 113.789 24.4872 113.612 23.9043C113.46 23.3214 113.206 22.8145 112.877 22.3582C112.547 21.902 112.142 21.5472 111.686 21.2684C111.204 20.9896 110.647 20.8629 110.038 20.8629C108.771 20.8629 107.808 21.2937 107.149 22.1809C106.515 23.0679 106.186 24.2592 106.186 25.7292C106.186 26.4388 106.262 27.0725 106.439 27.6553C106.617 28.2383 106.845 28.7452 107.2 29.1761C107.529 29.6069 107.935 29.9364 108.416 30.1899C108.898 30.4433 109.43 30.57 110.064 30.57C110.773 30.57 111.331 30.418 111.812 30.1392C112.294 29.8604 112.674 29.4802 113.004 29.0494C113.308 28.5931 113.536 28.0863 113.663 27.5033C113.789 26.895 113.865 26.312 113.865 25.7038ZM119.213 13.5635H122.254V16.4274H119.213V13.5635ZM119.213 18.8099H122.254V32.5724H119.213V18.8099ZM124.967 13.5635H128.008V32.5724H124.967V13.5635ZM137.285 32.9525C136.195 32.9525 135.206 32.7751 134.345 32.3949C133.482 32.0147 132.773 31.5332 132.164 30.8996C131.582 30.266 131.126 29.4802 130.821 28.5931C130.517 27.7061 130.339 26.7176 130.339 25.6784C130.339 24.6393 130.492 23.6762 130.821 22.7892C131.126 21.902 131.582 21.1417 132.164 20.4827C132.747 19.849 133.482 19.3421 134.345 18.9873C135.206 18.6326 136.195 18.4298 137.285 18.4298C138.374 18.4298 139.362 18.6071 140.225 18.9873C141.086 19.3421 141.796 19.849 142.404 20.4827C142.987 21.1164 143.443 21.902 143.748 22.7892C144.051 23.6762 144.229 24.6393 144.229 25.6784C144.229 26.743 144.077 27.7061 143.748 28.5931C143.418 29.4802 142.987 30.2405 142.404 30.8996C141.821 31.5332 141.086 32.0401 140.225 32.3949C139.362 32.7497 138.4 32.9525 137.285 32.9525ZM137.285 30.5447C137.944 30.5447 138.552 30.3927 139.033 30.1138C139.54 29.835 139.92 29.4549 140.25 28.9986C140.579 28.5425 140.807 28.0102 140.96 27.4526C141.111 26.8697 141.187 26.2867 141.187 25.6784C141.187 25.0955 141.111 24.5126 140.96 23.9297C140.807 23.3467 140.579 22.8398 140.25 22.3836C139.92 21.9273 139.515 21.5726 139.033 21.2937C138.526 21.015 137.944 20.8629 137.285 20.8629C136.625 20.8629 136.018 21.015 135.536 21.2937C135.028 21.5726 134.648 21.9528 134.319 22.3836C133.99 22.8398 133.761 23.3467 133.61 23.9297C133.457 24.5126 133.381 25.0955 133.381 25.6784C133.381 26.2867 133.457 26.8697 133.61 27.4526C133.761 28.0355 133.99 28.5425 134.319 28.9986C134.648 29.4549 135.054 29.835 135.536 30.1138C136.042 30.418 136.625 30.5447 137.285 30.5447ZM145.141 18.8099H147.447V14.6533H150.489V18.7846H153.226V21.0403H150.489V28.3903C150.489 28.7199 150.515 28.9733 150.54 29.2268C150.565 29.4549 150.642 29.6577 150.718 29.8097C150.819 29.9618 150.971 30.0885 151.148 30.1646C151.351 30.2405 151.604 30.2913 151.959 30.2913C152.162 30.2913 152.391 30.2913 152.592 30.266C152.795 30.2405 153.024 30.2152 153.226 30.1646V32.5216C152.897 32.5724 152.568 32.5977 152.238 32.623C151.909 32.6737 151.604 32.6737 151.25 32.6737C150.439 32.6737 149.805 32.5977 149.323 32.4455C148.842 32.2935 148.461 32.0654 148.182 31.7866C147.904 31.4825 147.726 31.1277 147.625 30.6968C147.523 30.266 147.473 29.7336 147.447 29.1761V21.0656H145.141V18.7593V18.8099Z" fill="#110F14"/>
<path fill-rule="evenodd" clip-rule="evenodd" d="M23.6628 13.5635H37.5771L26.324 21.7246L19.3795 26.7683L27.2871 24.7153L26.3387 21.7704L30.6072 34.9548L19.354 26.7683L8.10081 34.9548L12.4094 21.7247L1.15625 13.5382L15.0707 13.5635L19.3793 0.333374L23.6628 13.5635Z" fill="#110F14"/>
</g>
</g>
<defs>
<clipPath id="clip0_30_193">
<rect width="154" height="37.3333" fill="white" transform="translate(0 0.333344)"/>
</clipPath>
</defs>
</svg>
