<svg width="69" height="67" viewBox="0 0 69 67" fill="none" xmlns="http://www.w3.org/2000/svg">
<g clip-path="url(#clip0_31_560)">
<mask id="mask0_31_560" style="mask-type:luminance" maskUnits="userSpaceOnUse" x="1" y="0" width="68" height="67">
<path d="M68.0452 0.730957H1.33301V66.2728H68.0452V0.730957Z" fill="white"/>
</mask>
<g mask="url(#mask0_31_560)">
<path d="M34.6603 0.730957L36.8169 3.32682L39.333 1.06082L41.1014 3.94351L43.9051 2.0504L45.2423 5.16256L48.2903 3.68536L49.1817 6.95528L52.4023 5.92267L52.8049 9.27863L56.1548 8.71934L56.0686 12.104L59.4617 12.0323L58.901 15.3595L62.2653 15.7611L61.2446 18.988L64.5083 19.8629L63.0417 22.9033L66.1473 24.2371L64.2494 27.0481L67.1394 28.7978L64.8677 31.3076L67.4701 33.4589L64.8677 35.6101L67.1394 38.1199L64.2494 39.8839L66.1473 42.6806L63.0417 44.0144L64.5083 47.0548L61.2446 47.944L62.2653 51.1566L58.901 51.5725L59.4617 54.8998L56.0686 54.8281L56.1548 58.1984L52.8049 57.6534L52.4023 60.995L49.1817 59.9767L48.2903 63.2323L45.2423 61.7695L43.9051 64.8673L41.1014 62.9742L39.333 65.8568L36.8169 63.5909L34.6603 66.2011L32.5037 63.5909L29.9875 65.8568L28.2191 62.9742L25.4154 64.8673L24.0783 61.7695L21.0303 63.2323L20.1533 59.9767L16.9183 60.995L16.5158 57.6534L13.1657 58.1984L13.252 54.8281L9.85889 54.8998L10.4196 51.5725L7.05528 51.1566L8.09049 47.944L4.81236 47.0548L6.29326 44.0144L3.17332 42.6806L5.07115 39.8839L2.18124 38.1199L4.45292 35.6101L1.85059 33.4589L4.45292 31.3076L2.18124 28.7978L5.07115 27.0481L3.17332 24.2371L6.29326 22.9033L4.81236 19.8629L8.09049 18.988L7.05528 15.7611L10.4196 15.3595L9.85889 12.0323L13.252 12.104L13.1657 8.71934L16.5158 9.27863L16.9183 5.92267L20.1533 6.95528L21.0303 3.68536L24.0783 5.16256L25.4154 2.0504L28.2191 3.94351L29.9875 1.06082L32.5037 3.32682L34.6603 0.730957Z" fill="url(#paint0_linear_31_560)"/>
<path d="M34.6603 62.2571C50.605 62.2571 63.5306 49.3638 63.5306 33.4589C63.5306 17.5541 50.605 4.66064 34.6603 4.66064C18.7158 4.66064 5.79004 17.5541 5.79004 33.4589C5.79004 49.3638 18.7158 62.2571 34.6603 62.2571Z" fill="url(#paint1_linear_31_560)"/>
<path d="M34.6601 59.2168C48.9214 59.2168 60.4823 47.6845 60.4823 33.459C60.4823 19.2334 48.9214 7.70117 34.6601 7.70117C20.3989 7.70117 8.83789 19.2334 8.83789 33.459C8.83789 47.6845 20.3989 59.2168 34.6601 59.2168Z" fill="url(#paint2_radial_31_560)"/>
<path d="M14.9047 29.2567L11.2959 29.0989L11.3821 28.769C12.8199 28.8408 14.1283 28.9125 14.5452 28.9698C14.157 28.8121 12.5036 27.8942 11.7272 27.4927L11.8135 27.1771C12.6761 27.2058 14.6028 27.2631 14.991 27.3205V27.3062C14.459 27.0767 12.9493 26.2449 12.1729 25.8433L12.2592 25.5278L15.4366 27.2631L15.336 27.6217C14.4877 27.5787 12.6618 27.5213 12.1873 27.4782C12.6761 27.6934 14.2289 28.5395 14.9765 28.9411L14.9047 29.2567Z" fill="url(#paint3_radial_31_560)"/>
<path d="M15.1644 23.4196L14.6037 24.6244L15.9407 25.2411L16.559 23.9216L16.7747 24.0793L16.0414 25.657L12.8496 24.1798L13.5685 22.6309L13.8129 22.7456L13.2234 24.0076L14.3593 24.5239L14.92 23.3193L15.1644 23.4196Z" fill="url(#paint4_radial_31_560)"/>
<path d="M14.2441 21.4117L14.7617 20.6085C15.0636 20.1496 15.5094 20.0205 15.955 20.3074C16.3576 20.5655 16.3863 20.8954 16.3288 21.1248C16.5733 20.9241 16.9615 20.7807 17.4216 21.0818C17.9391 21.4117 18.0685 21.971 17.709 22.5447L17.2059 23.3191L14.2441 21.4117ZM15.9406 21.5264C16.2138 21.0961 16.1419 20.8093 15.8112 20.5942C15.495 20.3934 15.1787 20.4508 14.9486 20.8093L14.6467 21.2683L15.6819 21.928L15.9406 21.5264ZM17.1771 22.9033L17.479 22.4299C17.7522 22.0141 17.6516 21.6268 17.249 21.3687C16.8177 21.0961 16.4582 21.2109 16.1563 21.6842L15.8975 22.0858L17.1771 22.9033Z" fill="url(#paint5_radial_31_560)"/>
<path d="M19.2618 18.0845C18.7586 17.6256 18.2841 17.181 18.0253 16.9372C18.3559 17.4392 19.2474 18.7873 19.8369 19.7768L19.6212 20.0207C18.7586 19.576 17.2202 18.7586 16.645 18.443L16.6307 18.4574C16.947 18.7156 17.5508 19.2319 17.9966 19.6335L19.0749 20.6087L18.8592 20.8381L16.2568 18.4717L16.5875 18.1132C17.6803 18.6295 19.003 19.3466 19.4056 19.576C19.2042 19.2892 18.2985 17.8981 17.709 16.8941L18.0396 16.5356L20.642 18.902L20.4264 19.1458L19.2618 18.0845Z" fill="url(#paint6_radial_31_560)"/>
<path d="M21.0019 17.0092L21.5051 18.1422L21.2463 18.343L19.8086 15.0013L20.1392 14.7432L23.101 16.8801L22.8279 17.0952L21.8358 16.3495L21.0019 17.0092ZM21.6058 16.1917C20.8294 15.6181 20.3406 15.2738 20.1392 15.1017L20.1249 15.1161C20.2687 15.3886 20.5562 16.0197 20.8725 16.7654L21.6058 16.1917Z" fill="url(#paint7_radial_31_560)"/>
<path d="M23.416 15.6176C23.6316 15.9331 23.9767 16.0908 24.3649 15.847C24.7388 15.6319 24.8394 15.3308 24.6093 14.9434C24.408 14.5992 24.1492 14.5132 23.5598 14.5849C22.9271 14.671 22.5677 14.5992 22.3089 14.169C22.0788 13.7818 22.1651 13.2798 22.6827 12.9786C23.3009 12.6201 23.7035 12.9213 23.9192 13.2511L23.6316 13.4232C23.531 13.2941 23.2578 12.9356 22.7978 13.2081C22.4383 13.4232 22.4239 13.7244 22.5821 13.9826C22.769 14.2981 23.0134 14.3554 23.5598 14.2837C24.293 14.1977 24.6381 14.3411 24.8969 14.757C25.1844 15.2303 25.0838 15.7467 24.4943 16.0908C23.8617 16.4637 23.416 16.2199 23.1284 15.7897L23.416 15.6176Z" fill="url(#paint8_radial_31_560)"/>
<path d="M25.387 11.9461L24.5674 12.2903L24.4668 12.0464L26.3934 11.229L26.494 11.4728L25.6745 11.817L26.9541 14.8001L26.6522 14.9292L25.387 11.9461Z" fill="url(#paint9_radial_31_560)"/>
<path d="M29.671 12.0894L28.3913 12.4479L28.7939 13.8534L30.2029 13.4519L30.2317 13.7244L28.5495 14.1976L27.6006 10.8129L29.2539 10.354L29.3258 10.6122L27.9887 10.985L28.3194 12.1898L29.5991 11.8312L29.671 12.0894Z" fill="url(#paint10_radial_31_560)"/>
<path d="M31.1813 11.8744L31.4113 13.5237L31.0806 13.5667L30.5918 10.0817L31.5407 9.95257C32.1733 9.86654 32.5328 10.1534 32.619 10.6984C32.6909 11.229 32.4465 11.4871 32.2021 11.5876C32.6047 11.6449 32.7341 11.9317 32.8059 12.4194L32.8204 12.5628C32.8635 12.864 32.9066 13.1221 32.9785 13.3086L32.6478 13.3516C32.5759 13.1938 32.5328 12.8783 32.4896 12.6058L32.4753 12.4911C32.4034 11.9891 32.2596 11.7309 31.6989 11.8027L31.1813 11.8744ZM31.1382 11.6162L31.6989 11.5445C32.1877 11.4728 32.3315 11.186 32.274 10.7557C32.2165 10.3828 32.0008 10.1534 31.5407 10.2251L30.9513 10.3111L31.1382 11.6162Z" fill="url(#paint11_radial_31_560)"/>
<path d="M34.3585 11.5874L34.3297 13.251H33.999L34.0566 9.7373L35.0055 9.75164C35.6381 9.76598 35.9544 10.0958 35.9544 10.6552C35.94 11.1858 35.6669 11.4009 35.408 11.4727C35.7962 11.5874 35.8825 11.9029 35.8825 12.3762V12.5196C35.8825 12.8208 35.8825 13.0789 35.9257 13.2797H35.595C35.5518 13.1219 35.5518 12.7921 35.5518 12.5196V12.4049C35.5662 11.8886 35.4512 11.616 34.8905 11.616L34.3585 11.5874ZM34.3729 11.3149L34.9336 11.3292C35.4224 11.3436 35.6237 11.0711 35.6237 10.6408C35.6237 10.2679 35.4512 10.0098 34.9911 9.99544L34.4016 9.98111L34.3729 11.3149Z" fill="url(#paint12_radial_31_560)"/>
<path d="M38.858 11.8744L37.5497 11.6879L37.3341 13.1364L38.7862 13.3516L38.6999 13.6097L36.9746 13.3516L37.4778 9.88086L39.1744 10.1247L39.1312 10.3971L37.751 10.1963L37.5641 11.4298L38.8725 11.6162L38.858 11.8744Z" fill="url(#paint13_radial_31_560)"/>
<path d="M40.3252 14.0256L40.3971 10.3828L40.7422 10.4832L40.6847 12.2759C40.6703 12.7922 40.6415 13.4663 40.5984 13.7818H40.6128C40.7422 13.5236 41.1304 12.9213 41.4179 12.4911L42.3668 10.9708L42.6975 11.0712L40.7134 14.1403L40.3252 14.0256Z" fill="url(#paint14_radial_31_560)"/>
<path d="M44.1776 11.6735L42.8117 14.9004L42.5098 14.7713L43.8756 11.5444L44.1776 11.6735Z" fill="url(#paint15_radial_31_560)"/>
<path d="M46.163 14.6713L44.9984 14.0404L44.2939 15.3168L45.5735 16.0195L45.401 16.2346L43.877 15.3885L45.5735 12.3193L47.0832 13.1511L46.9537 13.3806L45.7316 12.7065L45.1278 13.7965L46.2924 14.4275L46.163 14.6713Z" fill="url(#paint16_radial_31_560)"/>
<path d="M46.6367 17.0516L48.247 13.8247L48.5202 14.0398C47.8732 15.3163 47.2837 16.4923 47.0537 16.8508C47.3556 16.564 48.8652 15.431 49.5554 14.8716L49.8141 15.0868C49.4259 15.8612 48.6065 17.5966 48.4051 17.9265L48.4195 17.9408C48.8509 17.5536 50.2167 16.5066 50.9068 15.9616L51.1657 16.1768L48.2901 18.3711L48.0026 18.1416C48.3764 17.3814 49.1672 15.7465 49.4116 15.3306C49.0234 15.6892 47.6144 16.7647 46.9386 17.2811L46.6367 17.0516Z" fill="url(#paint17_radial_31_560)"/>
<path d="M50.1877 18.9881C49.9145 19.2605 49.8283 19.619 50.1302 19.9633C50.4177 20.2932 50.7196 20.3362 51.0648 20.0206C51.3667 19.7625 51.4098 19.49 51.2229 18.9306C51.0216 18.314 51.0216 17.9554 51.4098 17.6255C51.7549 17.3244 52.2581 17.31 52.6606 17.769C53.1351 18.2996 52.905 18.7586 52.6175 19.0311L52.4019 18.7873C52.5025 18.6725 52.8044 18.3283 52.4594 17.9268C52.1862 17.6112 51.8842 17.6543 51.6542 17.855C51.3811 18.0989 51.3667 18.3427 51.5392 18.8733C51.7693 19.576 51.6974 19.9346 51.3235 20.2644C50.9066 20.6373 50.389 20.6373 49.9432 20.121C49.4544 19.5617 49.6126 19.0884 49.972 18.7298L50.1877 18.9881Z" fill="url(#paint18_radial_31_560)"/>
<path d="M51.1797 21.6413L51.7404 21.2397L51.9273 21.4979L51.3666 21.8851L51.1797 21.6413Z" fill="url(#paint19_radial_31_560)"/>
<path d="M54.5012 23.6062C53.4804 24.1799 52.7615 24.2516 52.3446 23.5345C51.9564 22.8461 52.359 22.2581 53.3941 21.6844C54.4149 21.1107 55.1339 21.1251 55.4933 21.7704C55.8958 22.4589 55.5364 23.0182 54.5012 23.6062ZM53.5811 21.9712C52.6465 22.5019 52.3302 22.9608 52.589 23.4054C52.8478 23.8644 53.4085 23.8214 54.3287 23.305C55.292 22.7601 55.5221 22.3298 55.2776 21.8852C55.0332 21.455 54.4725 21.4693 53.5811 21.9712Z" fill="url(#paint20_radial_31_560)"/>
<path d="M55.0331 25.1262L53.4803 25.7142L53.3652 25.413L56.6578 24.1509L57.0028 25.0401C57.2329 25.6281 57.0315 26.0584 56.514 26.2448C56.0107 26.4313 55.7088 26.2591 55.5506 26.044C55.5795 26.4456 55.335 26.6464 54.8749 26.8185L54.7455 26.8615C54.4579 26.9619 54.2135 27.0766 54.0554 27.177L53.9404 26.8615C54.0697 26.7611 54.3717 26.632 54.6305 26.5316L54.7455 26.4886C55.22 26.3022 55.4357 26.1014 55.2343 25.5851L55.0331 25.1262ZM55.2775 25.0257L55.4787 25.5564C55.6513 26.0153 55.982 26.087 56.3702 25.9437C56.7152 25.8145 56.8878 25.5421 56.7296 25.1118L56.514 24.5525L55.2775 25.0257Z" fill="url(#paint21_radial_31_560)"/>
<path d="M54.7598 30.1026L54.7023 29.8445C54.7886 29.8157 54.9036 29.7727 55.0905 29.7297C54.8461 29.6723 54.5873 29.5576 54.4723 29.07C54.2854 28.2381 55.0618 27.8652 56.0107 27.6501C57.1753 27.392 57.8654 27.6358 58.0236 28.3959C58.2104 29.2708 57.5203 29.4859 57.3191 29.5432L57.2472 29.2134C57.3622 29.1703 57.8941 29.027 57.7648 28.4389C57.6354 27.8652 57.0028 27.7792 56.0969 27.98C55.2199 28.1808 54.616 28.4676 54.7455 29.0413C54.8748 29.6149 55.3349 29.6293 56.1401 29.4572L56.2983 29.4285L56.1401 28.7114L56.3989 28.6541L56.6289 29.6867L54.7598 30.1026Z" fill="url(#paint22_radial_31_560)"/>
<path d="M26.5223 22.1433H24.4375V20.7808H30.3324V22.1433H28.2476V29.5006H26.5079V22.1433H26.5223Z" fill="white"/>
<path d="M37.2627 25.0688C37.2627 28.267 36.2994 29.6581 34.0565 29.6581C31.9573 29.6581 30.9365 28.2957 30.9365 25.0545C30.9365 21.8993 32.1299 20.6372 34.1283 20.6372C36.2563 20.6372 37.2627 22.0427 37.2627 25.0688ZM32.7193 25.0401C32.7193 27.1053 33.0644 28.3387 34.0852 28.3387C35.1636 28.3387 35.4655 27.1914 35.4655 25.0401C35.4655 23.0179 35.1348 21.9566 34.0852 21.9566C33.05 21.9566 32.7193 23.0896 32.7193 25.0401Z" fill="white"/>
<path d="M38.6279 20.7661H41.5609C43.1712 20.7661 44.379 21.6266 44.379 23.3619C44.379 25.0543 43.2862 25.9434 41.4315 25.9434H40.382V29.5002H38.6423V20.7661H38.6279ZM40.3676 24.6958H41.2159C42.1792 24.6958 42.6105 24.2655 42.6105 23.3476C42.6105 22.4727 42.1073 22.0425 41.3022 22.0425H40.3532V24.6958H40.3676Z" fill="white"/>
<path d="M20.2253 35.8251V39.554H18.5V30.8198H21.4761C23.2446 30.8198 24.251 31.6517 24.251 33.2006C24.251 34.4627 23.5034 35.0076 22.9858 35.1941C23.7334 35.5096 24.0929 36.0832 24.0929 37.374V37.7182C24.0929 38.7078 24.1504 39.0807 24.2223 39.554H22.5401C22.3963 39.1524 22.3676 38.464 22.3676 37.7039V37.3883C22.3676 36.2267 22.0656 35.8251 20.9729 35.8251H20.2253ZM20.2253 34.5487H21.0448C22.0944 34.5487 22.5114 34.1471 22.5114 33.2579C22.5114 32.5122 22.1088 32.0676 21.2173 32.0676H20.2253V34.5487Z" fill="white"/>
<path d="M27.0254 37.3456L26.5366 39.5399H24.7969L27.0542 30.8057H29.3115L31.5831 39.5399H29.7572L29.2683 37.3456H27.0254ZM28.9664 35.9831C28.607 34.3051 28.3194 33.086 28.1612 32.2542H28.1181C28.0031 33.0574 27.6868 34.3768 27.3273 35.9831H28.9664Z" fill="white"/>
<path d="M33.8123 32.1823H31.7275V30.8198H37.6223V32.1823H35.5376V39.5396H33.7979V32.1823H33.8123Z" fill="white"/>
<path d="M43.3875 35.6532H40.2676V38.1917H43.7757L43.5601 39.5399H38.5566V30.8057H43.5457V32.1682H40.282V34.2907H43.4019V35.6532H43.3875Z" fill="white"/>
<path d="M44.8818 30.8057H47.4123C49.914 30.8057 50.8917 32.2399 50.8917 34.9935C50.8917 37.9479 49.9572 39.5399 47.2829 39.5399H44.8818V30.8057ZM46.6359 38.2634H47.2542C48.62 38.2634 49.0801 37.3455 49.0801 35.0078C49.0801 33 48.6632 32.1108 47.2685 32.1108H46.6359V38.2634Z" fill="white"/>
<path d="M14.258 60.321C11.4257 61.5688 8.66519 63.1033 6.0197 64.939C5.24331 63.5049 6.00531 58.9729 6.00531 58.9729C6.00531 58.9729 2.13772 57.8256 1.36133 56.4057C4.02119 54.5556 6.78171 52.9637 9.61411 51.6299L14.258 60.321Z" fill="url(#paint23_linear_31_560)"/>
<path d="M9.12598 59.2598L14.2588 60.3211L12.4185 56.8647L9.12598 59.2598Z" fill="#4E3B11"/>
<path d="M55.0615 60.321C57.894 61.5688 60.6544 63.1033 63.2999 64.939C64.0763 63.5049 63.3143 58.9729 63.3143 58.9729C63.3143 58.9729 67.1818 57.8256 67.9582 56.4057C65.2984 54.5556 62.5379 52.9637 59.7055 51.6299L55.0615 60.321Z" fill="url(#paint24_linear_31_560)"/>
<path d="M60.2087 59.2598L55.0615 60.3211L56.9019 56.8647L60.2087 59.2598Z" fill="#4E3B11"/>
<path d="M60.1804 59.274C44.3649 49.0913 24.9408 49.0913 9.12542 59.274C7.65889 56.3769 6.20675 53.4942 4.74023 50.5972C23.273 38.6649 46.0184 38.6649 64.5655 50.5972C63.099 53.4799 61.6325 56.3769 60.1804 59.274Z" fill="url(#paint25_radial_31_560)"/>
<path d="M23.748 51.0559C22.7703 49.2919 21.7495 47.5422 20.6855 45.8212C20.9156 45.7494 21.045 45.7207 21.2751 45.649C21.8933 46.6817 22.1953 47.1979 22.7703 48.2306C23.1873 48.9763 23.7049 49.9659 23.9062 50.4679H23.9205C23.8774 49.9946 23.9205 48.8042 23.9637 47.9293C24.0068 46.739 24.0356 46.1366 24.1219 44.9463C24.3519 44.9032 24.4669 44.8746 24.6969 44.8315C24.5244 46.8537 24.4094 48.876 24.3519 50.8981C24.1074 50.9555 23.9924 50.9841 23.748 51.0559Z" fill="white"/>
<path d="M28.6357 47.1837C27.7874 47.2984 27.3705 47.3558 26.5223 47.5136C26.6948 48.4744 26.781 48.9621 26.9536 49.923C27.845 49.7652 28.2907 49.6935 29.1821 49.5931C29.1677 49.7795 29.1677 49.8656 29.1677 50.0377C28.1182 50.1668 27.6006 50.2528 26.551 50.4536C26.1916 48.5319 25.8321 46.6244 25.4727 44.7026C26.6373 44.4875 27.2267 44.3871 28.3913 44.2437C28.4201 44.4158 28.4201 44.5161 28.4489 44.6882C27.5143 44.8029 27.0399 44.8747 26.1053 45.0468C26.2491 45.8642 26.3209 46.2658 26.4647 47.0833C27.313 46.9399 27.7444 46.8682 28.607 46.7534C28.607 46.9112 28.6214 47.0116 28.6357 47.1837Z" fill="white"/>
<path d="M30.1891 47.1265C30.2897 48.2308 30.3472 48.7758 30.4623 49.8801C30.261 49.8944 30.1603 49.9088 29.9734 49.9374C29.7578 48.0014 29.5565 46.0652 29.3408 44.1147C29.9878 44.043 30.3185 44.0143 30.9798 43.9713C32.0725 43.8853 32.6477 44.4302 32.6908 45.3481C32.7339 46.2373 32.2882 46.6245 31.9 46.7679C32.5326 46.9114 32.7196 47.4277 32.7483 48.2308C32.7483 48.3168 32.7483 48.3742 32.7626 48.4603C32.7915 48.9622 32.8202 49.3925 32.9064 49.708C32.7052 49.7223 32.6045 49.7223 32.4033 49.7367C32.3026 49.4785 32.2738 48.9335 32.2451 48.4746C32.2451 48.4029 32.2451 48.3599 32.2307 48.2882C32.1876 47.442 31.9863 46.9831 31.0805 47.0548C30.7067 47.0834 30.5342 47.0978 30.1891 47.1265ZM30.146 46.6963C30.5054 46.6675 30.6923 46.6388 31.0517 46.6102C31.8569 46.5528 32.13 46.0939 32.087 45.3768C32.0581 44.7601 31.7131 44.3442 30.9224 44.4015C30.5198 44.4302 30.3185 44.4446 29.9159 44.4876C30.0309 45.3768 30.0597 45.8071 30.146 46.6963Z" fill="white"/>
<path d="M34.3146 43.8281C34.329 45.7786 34.3434 47.729 34.3722 49.6795C34.1708 49.6795 34.0702 49.6795 33.8689 49.6939C33.8258 47.7434 33.7971 45.7929 33.7539 43.8425C33.9696 43.8281 34.0846 43.8281 34.3146 43.8281Z" fill="white"/>
<path d="M35.71 43.8281C36.889 43.8568 37.4785 43.8855 38.6574 43.9715C38.6431 44.1436 38.6431 44.244 38.6287 44.4161C37.6797 44.3444 37.2053 44.3157 36.2564 44.2871C36.2277 45.1332 36.2132 45.5635 36.1988 46.4096C37.0471 46.4383 37.4785 46.4527 38.3268 46.5243C38.3124 46.6965 38.3124 46.7968 38.298 46.9689C37.4641 46.9116 37.0328 46.8829 36.1988 46.8542C36.1701 47.9872 36.1414 48.5609 36.1126 49.6939C35.9113 49.6939 35.8106 49.6795 35.6094 49.6795C35.6381 47.729 35.6669 45.7786 35.71 43.8281Z" fill="white"/>
<path d="M40.0795 44.1006C39.8781 46.0368 39.6625 47.9873 39.4612 49.9234C39.2599 49.9091 39.1593 49.8947 38.958 49.8804C39.1449 47.9442 39.3318 45.9938 39.5043 44.0576C39.7344 44.072 39.8494 44.072 40.0795 44.1006Z" fill="white"/>
<path d="M43.7185 47.6429C42.8702 47.4852 42.4533 47.4135 41.605 47.2844C41.4612 48.2453 41.3893 48.7329 41.2599 49.6938C42.1514 49.8229 42.5971 49.8946 43.4741 50.0667C43.4166 50.2388 43.3735 50.3249 43.3159 50.4826C42.2808 50.2818 41.7488 50.1958 40.6992 50.0523C40.958 48.1162 41.2168 46.1801 41.4756 44.2583C42.6402 44.4161 43.2297 44.5164 44.3943 44.7316C44.3655 44.9037 44.3367 44.9897 44.308 45.1762C43.3735 44.9897 42.9134 44.918 41.9644 44.7746C41.8494 45.5921 41.7919 46.008 41.6625 46.8255C42.5108 46.9545 42.9421 47.0262 43.7904 47.184C43.7617 47.3704 43.7473 47.4565 43.7185 47.6429Z" fill="white"/>
<path d="M45.3429 44.9321C45.8892 45.0469 46.1625 45.1186 46.7088 45.2477C48.2759 45.5488 48.4341 47.2268 48.0603 48.4602C47.7009 49.6649 46.8094 51.3572 45.2136 50.8983C44.7678 50.7979 44.5521 50.7406 44.1064 50.6401C44.5234 48.7471 44.926 46.8396 45.3429 44.9321ZM44.6959 50.339C44.9403 50.3963 45.0554 50.425 45.2998 50.4824C46.4644 50.7549 47.0683 49.9804 47.5283 48.3455C47.9596 46.7678 47.6577 45.9361 46.4787 45.6492C46.2056 45.5775 46.0762 45.5488 45.803 45.4915C45.4292 47.1121 45.0698 48.7327 44.6959 50.339Z" fill="white"/>
<path d="M30.0596 57.3524V57.3237C30.0596 56.8791 30.3471 56.3054 30.9366 55.6313C31.4254 55.0863 31.6411 54.8999 31.6411 54.4266C31.6411 54.0824 31.5405 53.6809 31.066 53.6809C30.6778 53.6809 30.4622 53.9533 30.4478 54.4697H30.1171C30.1315 53.8816 30.4046 53.394 31.066 53.394C31.7274 53.394 31.9718 53.8386 31.9718 54.4123C31.9718 54.9429 31.7274 55.2011 31.181 55.8178C30.7209 56.3197 30.4765 56.75 30.419 57.0511H32.058L32.015 57.338H30.0596V57.3524Z" fill="white"/>
<path d="M34.4297 55.3733C34.4297 56.7644 34.1853 57.4098 33.4376 57.4098C32.69 57.4098 32.46 56.707 32.46 55.3876C32.46 53.9247 32.8194 53.4084 33.4664 53.4084C34.1709 53.3941 34.4297 54.0252 34.4297 55.3733ZM32.7907 55.3733C32.7907 56.6067 32.9775 57.123 33.4376 57.123C33.8834 57.123 34.0846 56.6927 34.0846 55.3733C34.0846 54.1112 33.8977 53.6809 33.452 53.6809C33.0063 53.6809 32.7907 54.1685 32.7907 55.3733Z" fill="white"/>
<path d="M34.8184 57.3524V57.3237C34.8184 56.8791 35.1059 56.3054 35.6954 55.6313C36.1842 55.0863 36.3999 54.8999 36.3999 54.4266C36.3999 54.0824 36.2993 53.6809 35.8248 53.6809C35.4366 53.6809 35.221 53.9533 35.2066 54.4697H34.8759C34.8903 53.8816 35.1634 53.394 35.8248 53.394C36.4862 53.394 36.7306 53.8386 36.7306 54.4123C36.7306 54.9429 36.4862 55.2011 35.9398 55.8178C35.4797 56.3197 35.2353 56.75 35.1778 57.0511H36.8168L36.7737 57.338H34.8184V57.3524Z" fill="white"/>
<path d="M39.1748 55.3733C39.1748 56.7644 38.9304 57.4098 38.1827 57.4098C37.4352 57.4098 37.2051 56.707 37.2051 55.3876C37.2051 53.9247 37.5645 53.4084 38.2115 53.4084C38.9304 53.3941 39.1748 54.0252 39.1748 55.3733ZM37.5501 55.3733C37.5501 56.6067 37.7371 57.123 38.1971 57.123C38.6428 57.123 38.8441 56.6927 38.8441 55.3733C38.8441 54.1112 38.6572 53.6809 38.2115 53.6809C37.7515 53.6809 37.5501 54.1685 37.5501 55.3733Z" fill="white"/>
<path d="M30.0879 57.3524V57.3237C30.0879 56.8791 30.3755 56.3054 30.9649 55.6313C31.4538 55.0863 31.6694 54.8999 31.6694 54.4266C31.6694 54.0824 31.5688 53.6809 31.0943 53.6809C30.7061 53.6809 30.4905 53.9533 30.4761 54.4697H30.1454C30.1598 53.8816 30.4329 53.394 31.0943 53.394C31.7557 53.394 32.0001 53.8386 32.0001 54.4123C32.0001 54.9429 31.7557 55.2011 31.2093 55.8178C30.7492 56.3197 30.5048 56.75 30.4473 57.0511H32.0864L32.0432 57.338H30.0879V57.3524Z" fill="url(#paint26_radial_31_560)"/>
<path d="M34.4443 55.3733C34.4443 56.7644 34.1999 57.4098 33.4523 57.4098C32.7046 57.4098 32.4746 56.707 32.4746 55.3876C32.4746 53.9247 32.8341 53.4084 33.481 53.4084C34.1999 53.3941 34.4443 54.0252 34.4443 55.3733ZM32.8197 55.3733C32.8197 56.6067 33.0066 57.123 33.4667 57.123C33.9124 57.123 34.1136 56.6927 34.1136 55.3733C34.1136 54.1112 33.9268 53.6809 33.481 53.6809C33.0353 53.6809 32.8197 54.1685 32.8197 55.3733Z" fill="url(#paint27_radial_31_560)"/>
<path d="M34.7891 57.3524V57.3237C34.7891 56.8791 35.0766 56.3054 35.6662 55.6313C36.155 55.0863 36.3707 54.8999 36.3707 54.4266C36.3707 54.0824 36.27 53.6809 35.7955 53.6809C35.4073 53.6809 35.1917 53.9533 35.1773 54.4697H34.8466C34.861 53.8816 35.1342 53.394 35.7955 53.394C36.4569 53.394 36.7013 53.8386 36.7013 54.4123C36.7013 54.9429 36.4569 55.2011 35.9106 55.8178C35.4505 56.3197 35.2061 56.75 35.1485 57.0511H36.7876L36.7445 57.338H34.7891V57.3524Z" fill="url(#paint28_radial_31_560)"/>
<path d="M39.1455 55.3733C39.1455 56.7644 38.9011 57.4098 38.1535 57.4098C37.4059 57.4098 37.1758 56.707 37.1758 55.3876C37.1758 53.9247 37.5352 53.4084 38.1823 53.4084C38.9011 53.3941 39.1455 54.0252 39.1455 55.3733ZM37.5208 55.3733C37.5208 56.6067 37.7078 57.123 38.1679 57.123C38.6136 57.123 38.8149 56.6927 38.8149 55.3733C38.8149 54.1112 38.6279 53.6809 38.1823 53.6809C37.7365 53.6809 37.5208 54.1685 37.5208 55.3733Z" fill="url(#paint29_radial_31_560)"/>
</g>
</g>
<defs>
<linearGradient id="paint0_linear_31_560" x1="1.84779" y1="33.4637" x2="67.4768" y2="33.4637" gradientUnits="userSpaceOnUse">
<stop stop-color="#DBA73E"/>
<stop offset="0.16" stop-color="#D89D3A"/>
<stop offset="0.3" stop-color="#A46B28"/>
<stop offset="0.49" stop-color="#8E5723"/>
<stop offset="0.69" stop-color="#D5B767"/>
<stop offset="0.75" stop-color="#A76F29"/>
<stop offset="0.85" stop-color="#D0AB5B"/>
<stop offset="1" stop-color="#E0C77D"/>
</linearGradient>
<linearGradient id="paint1_linear_31_560" x1="34.6625" y1="-10.5516" x2="34.6625" y2="92.7825" gradientUnits="userSpaceOnUse">
<stop stop-color="#DBA73E"/>
<stop offset="0.16" stop-color="#D89D3A"/>
<stop offset="0.3" stop-color="#A46B28"/>
<stop offset="0.49" stop-color="#8E5723"/>
<stop offset="0.54" stop-color="#F4F3B8"/>
<stop offset="0.56" stop-color="#F7ED9A"/>
<stop offset="0.69" stop-color="#D5B767"/>
<stop offset="0.75" stop-color="#A76F29"/>
<stop offset="0.85" stop-color="#D0AB5B"/>
<stop offset="1" stop-color="#E0C77D"/>
</linearGradient>
<radialGradient id="paint2_radial_31_560" cx="0" cy="0" r="1" gradientUnits="userSpaceOnUse" gradientTransform="translate(34.6621 33.4638) scale(33.7076 33.6235)">
<stop offset="0.004608" stop-color="#9B1C20"/>
<stop offset="0.1937" stop-color="#981B1F"/>
<stop offset="0.3533" stop-color="#8D1A1D"/>
<stop offset="0.5022" stop-color="#7C161A"/>
<stop offset="0.6446" stop-color="#631214"/>
<stop offset="0.7824" stop-color="#430C0E"/>
<stop offset="0.9148" stop-color="#1D0506"/>
<stop offset="1"/>
</radialGradient>
<radialGradient id="paint3_radial_31_560" cx="0" cy="0" r="1" gradientUnits="userSpaceOnUse" gradientTransform="translate(13.3734 27.375) scale(1.98024 1.97531)">
<stop stop-color="#DBA73E"/>
<stop offset="0.1885" stop-color="#D0AB5B"/>
<stop offset="1" stop-color="#E0C77D"/>
</radialGradient>
<radialGradient id="paint4_radial_31_560" cx="0" cy="0" r="1" gradientUnits="userSpaceOnUse" gradientTransform="translate(14.8193 24.1297) scale(1.75554 1.75115)">
<stop stop-color="#DBA73E"/>
<stop offset="0.1885" stop-color="#D0AB5B"/>
<stop offset="1" stop-color="#E0C77D"/>
</radialGradient>
<radialGradient id="paint5_radial_31_560" cx="0" cy="0" r="1" gradientUnits="userSpaceOnUse" gradientTransform="translate(16.0786 21.7309) scale(1.71239 1.70811)">
<stop stop-color="#DBA73E"/>
<stop offset="0.1885" stop-color="#D0AB5B"/>
<stop offset="1" stop-color="#E0C77D"/>
</radialGradient>
<radialGradient id="paint6_radial_31_560" cx="0" cy="0" r="1" gradientUnits="userSpaceOnUse" gradientTransform="translate(18.4555 18.6896) scale(2.17884 2.17341)">
<stop stop-color="#DBA73E"/>
<stop offset="0.1885" stop-color="#D0AB5B"/>
<stop offset="1" stop-color="#E0C77D"/>
</radialGradient>
<radialGradient id="paint7_radial_31_560" cx="0" cy="0" r="1" gradientUnits="userSpaceOnUse" gradientTransform="translate(21.4628 16.5457) scale(1.73207 1.72774)">
<stop stop-color="#DBA73E"/>
<stop offset="0.1885" stop-color="#D0AB5B"/>
<stop offset="1" stop-color="#E0C77D"/>
</radialGradient>
<radialGradient id="paint8_radial_31_560" cx="0" cy="0" r="1" gradientUnits="userSpaceOnUse" gradientTransform="translate(23.616 14.5338) scale(1.59004 1.58607)">
<stop stop-color="#DBA73E"/>
<stop offset="0.1885" stop-color="#D0AB5B"/>
<stop offset="1" stop-color="#E0C77D"/>
</radialGradient>
<radialGradient id="paint9_radial_31_560" cx="0" cy="0" r="1" gradientUnits="userSpaceOnUse" gradientTransform="translate(25.7143 13.0744) scale(1.5829 1.57894)">
<stop stop-color="#DBA73E"/>
<stop offset="0.1885" stop-color="#D0AB5B"/>
<stop offset="1" stop-color="#E0C77D"/>
</radialGradient>
<radialGradient id="paint10_radial_31_560" cx="0" cy="0" r="1" gradientUnits="userSpaceOnUse" gradientTransform="translate(28.9102 12.2807) scale(1.64961 1.6455)">
<stop stop-color="#DBA73E"/>
<stop offset="0.1885" stop-color="#D0AB5B"/>
<stop offset="1" stop-color="#E0C77D"/>
</radialGradient>
<radialGradient id="paint11_radial_31_560" cx="0" cy="0" r="1" gradientUnits="userSpaceOnUse" gradientTransform="translate(31.7963 11.7504) scale(1.53797 1.53412)">
<stop stop-color="#DBA73E"/>
<stop offset="0.1885" stop-color="#D0AB5B"/>
<stop offset="1" stop-color="#E0C77D"/>
</radialGradient>
<radialGradient id="paint12_radial_31_560" cx="0" cy="0" r="1" gradientUnits="userSpaceOnUse" gradientTransform="translate(34.9862 11.497) scale(1.43369 1.43011)">
<stop stop-color="#DBA73E"/>
<stop offset="0.1885" stop-color="#D0AB5B"/>
<stop offset="1" stop-color="#E0C77D"/>
</radialGradient>
<radialGradient id="paint13_radial_31_560" cx="0" cy="0" r="1" gradientUnits="userSpaceOnUse" gradientTransform="translate(38.0745 11.7444) scale(1.53464 1.53082)">
<stop stop-color="#DBA73E"/>
<stop offset="0.1885" stop-color="#D0AB5B"/>
<stop offset="1" stop-color="#E0C77D"/>
</radialGradient>
<radialGradient id="paint14_radial_31_560" cx="0" cy="0" r="1" gradientUnits="userSpaceOnUse" gradientTransform="translate(41.5121 12.2606) scale(1.57345 1.56952)">
<stop stop-color="#DBA73E"/>
<stop offset="0.1885" stop-color="#D0AB5B"/>
<stop offset="1" stop-color="#E0C77D"/>
</radialGradient>
<radialGradient id="paint15_radial_31_560" cx="0" cy="0" r="1" gradientUnits="userSpaceOnUse" gradientTransform="translate(43.3371 13.2264) scale(1.3306 1.32728)">
<stop stop-color="#DBA73E"/>
<stop offset="0.1885" stop-color="#D0AB5B"/>
<stop offset="1" stop-color="#E0C77D"/>
</radialGradient>
<radialGradient id="paint16_radial_31_560" cx="0" cy="0" r="1" gradientUnits="userSpaceOnUse" gradientTransform="translate(45.4792 14.2766) scale(1.79158 1.78711)">
<stop stop-color="#DBA73E"/>
<stop offset="0.1885" stop-color="#D0AB5B"/>
<stop offset="1" stop-color="#E0C77D"/>
</radialGradient>
<radialGradient id="paint17_radial_31_560" cx="0" cy="0" r="1" gradientUnits="userSpaceOnUse" gradientTransform="translate(48.8943 16.1041) scale(2.26444 2.25878)">
<stop stop-color="#DBA73E"/>
<stop offset="0.1885" stop-color="#D0AB5B"/>
<stop offset="1" stop-color="#E0C77D"/>
</radialGradient>
<radialGradient id="paint18_radial_31_560" cx="0" cy="0" r="1" gradientUnits="userSpaceOnUse" gradientTransform="translate(51.2767 18.9774) scale(1.60845 1.60442)">
<stop stop-color="#DBA73E"/>
<stop offset="0.1885" stop-color="#D0AB5B"/>
<stop offset="1" stop-color="#E0C77D"/>
</radialGradient>
<radialGradient id="paint19_radial_31_560" cx="0" cy="0" r="1" gradientUnits="userSpaceOnUse" gradientTransform="translate(51.5576 21.5729) scale(0.351961 0.351083)">
<stop stop-color="#DBA73E"/>
<stop offset="0.1885" stop-color="#D0AB5B"/>
<stop offset="1" stop-color="#E0C77D"/>
</radialGradient>
<radialGradient id="paint20_radial_31_560" cx="0" cy="0" r="1" gradientUnits="userSpaceOnUse" gradientTransform="translate(53.9346 22.6574) scale(1.57093 1.56702)">
<stop stop-color="#DBA73E"/>
<stop offset="0.1885" stop-color="#D0AB5B"/>
<stop offset="1" stop-color="#E0C77D"/>
</radialGradient>
<radialGradient id="paint21_radial_31_560" cx="0" cy="0" r="1" gradientUnits="userSpaceOnUse" gradientTransform="translate(55.2283 25.6786) scale(1.70364 1.69938)">
<stop stop-color="#DBA73E"/>
<stop offset="0.1885" stop-color="#D0AB5B"/>
<stop offset="1" stop-color="#E0C77D"/>
</radialGradient>
<radialGradient id="paint22_radial_31_560" cx="0" cy="0" r="1" gradientUnits="userSpaceOnUse" gradientTransform="translate(56.2673 28.8213) scale(1.56633 1.56242)">
<stop stop-color="#DBA73E"/>
<stop offset="0.1885" stop-color="#D0AB5B"/>
<stop offset="1" stop-color="#E0C77D"/>
</radialGradient>
<linearGradient id="paint23_linear_31_560" x1="1.35724" y1="58.3003" x2="14.2612" y2="58.3003" gradientUnits="userSpaceOnUse">
<stop offset="0.00338542" stop-color="#FF0230"/>
<stop offset="0.1681" stop-color="#E30328"/>
<stop offset="0.3616" stop-color="#C90320"/>
<stop offset="0.5615" stop-color="#B7041A"/>
<stop offset="0.7698" stop-color="#AC0417"/>
<stop offset="1" stop-color="#A80416"/>
</linearGradient>
<linearGradient id="paint24_linear_31_560" x1="66.0157" y1="58.4686" x2="53.1272" y2="57.985" gradientUnits="userSpaceOnUse">
<stop offset="0.00338542" stop-color="#FF0230"/>
<stop offset="0.1681" stop-color="#E30328"/>
<stop offset="0.3616" stop-color="#C90320"/>
<stop offset="0.5615" stop-color="#B7041A"/>
<stop offset="0.7698" stop-color="#AC0417"/>
<stop offset="1" stop-color="#A80416"/>
</linearGradient>
<radialGradient id="paint25_radial_31_560" cx="0" cy="0" r="1" gradientUnits="userSpaceOnUse" gradientTransform="translate(34.6569 50.4549) scale(21.6892 28.1675)">
<stop offset="0.00338542" stop-color="#FF2230"/>
<stop offset="0.1619" stop-color="#F81C21"/>
<stop offset="0.4237" stop-color="#EF150F"/>
<stop offset="0.6975" stop-color="#EA1104"/>
<stop offset="1" stop-color="#E81000"/>
</radialGradient>
<radialGradient id="paint26_radial_31_560" cx="0" cy="0" r="1" gradientUnits="userSpaceOnUse" gradientTransform="translate(31.0963 55.3752) scale(1.5714 1.56748)">
<stop stop-color="#DBA73E"/>
<stop offset="0.1885" stop-color="#D0AB5B"/>
<stop offset="1" stop-color="#E0C77D"/>
</radialGradient>
<radialGradient id="paint27_radial_31_560" cx="0" cy="0" r="1" gradientUnits="userSpaceOnUse" gradientTransform="translate(33.4616 55.4035) scale(1.58242 1.57847)">
<stop stop-color="#DBA73E"/>
<stop offset="0.1885" stop-color="#D0AB5B"/>
<stop offset="1" stop-color="#E0C77D"/>
</radialGradient>
<radialGradient id="paint28_radial_31_560" cx="0" cy="0" r="1" gradientUnits="userSpaceOnUse" gradientTransform="translate(35.8005 55.3752) scale(1.57144 1.56749)">
<stop stop-color="#DBA73E"/>
<stop offset="0.1885" stop-color="#D0AB5B"/>
<stop offset="1" stop-color="#E0C77D"/>
</radialGradient>
<radialGradient id="paint29_radial_31_560" cx="0" cy="0" r="1" gradientUnits="userSpaceOnUse" gradientTransform="translate(38.1657 55.4035) scale(1.58243 1.57847)">
<stop stop-color="#DBA73E"/>
<stop offset="0.1885" stop-color="#D0AB5B"/>
<stop offset="1" stop-color="#E0C77D"/>
</radialGradient>
<clipPath id="clip0_31_560">
<rect width="67.59" height="65.5418" fill="white" transform="translate(0.910156 0.730957)"/>
</clipPath>
</defs>
</svg>
