<svg width="155" height="42" viewBox="0 0 155 42" fill="none" xmlns="http://www.w3.org/2000/svg">
<g clip-path="url(#clip0_30_171)">
<mask id="mask0_30_171" style="mask-type:luminance" maskUnits="userSpaceOnUse" x="0" y="0" width="155" height="42">
<path d="M155 0.159698H0V41.8404H155V0.159698Z" fill="white"/>
</mask>
<g mask="url(#mask0_30_171)">
<path d="M31.1564 18.974L29.1001 16.1877C28.9712 16.0089 28.9626 15.7618 29.0915 15.5829L31.1049 12.7711C31.2855 12.5155 31.1994 12.1576 30.9242 12.0127L27.8527 10.3853C27.6549 10.2831 27.543 10.0616 27.586 9.84002L28.1625 6.44036C28.214 6.13362 27.9818 5.84393 27.6635 5.83541L24.1876 5.69057C23.9639 5.68204 23.7661 5.52868 23.7058 5.31566L22.7421 1.99268C22.6562 1.69446 22.3207 1.53257 22.0281 1.66039L18.8276 3.02366C18.6211 3.10885 18.3801 3.05774 18.2253 2.89585L15.9023 0.331187C15.6873 0.101135 15.3259 0.101135 15.1108 0.339708L12.8223 2.93844C12.676 3.10885 12.4351 3.15998 12.2286 3.07478L9.01089 1.76262C8.71837 1.64334 8.39144 1.80523 8.30541 2.10345L7.38483 5.42643C7.3246 5.63944 7.13531 5.7928 6.91163 5.80985L3.43579 6.00582C3.11745 6.02285 2.89376 6.31256 2.94539 6.61929L3.57344 10.0104C3.61646 10.232 3.50462 10.4535 3.31535 10.5557L0.26968 12.2258C-0.00563389 12.3791 -0.0830659 12.737 0.0976088 12.9841L2.15386 15.7703C2.28292 15.9493 2.29151 16.1963 2.16246 16.3752L0.14923 19.1869C-0.0314447 19.4426 0.0545908 19.8004 0.329905 19.9453L3.40138 21.5728C3.59926 21.675 3.7111 21.8964 3.66808 22.118L3.09165 25.5177C3.04002 25.8244 3.27232 26.1141 3.59066 26.1226L7.06649 26.2674C7.29018 26.276 7.48806 26.4293 7.54829 26.6424L8.52049 29.9568C8.60652 30.2551 8.94207 30.417 9.23459 30.2891L12.4351 28.9259C12.6416 28.8407 12.8825 28.8918 13.0373 29.0537L15.3604 31.6183C15.5754 31.8483 15.9367 31.8483 16.1519 31.6099L18.4404 29.0111C18.5867 28.8407 18.8276 28.7895 19.034 28.8747L22.2517 30.1868C22.5443 30.3062 22.8712 30.1443 22.9573 29.8461L23.8778 26.5231C23.9381 26.3102 24.1274 26.1567 24.351 26.1397L27.8269 25.9438C28.1453 25.9267 28.3689 25.637 28.3173 25.3303L27.6893 21.9392C27.6461 21.7176 27.758 21.496 27.9473 21.3938L30.993 19.7238C31.2683 19.5875 31.3457 19.2295 31.1564 18.974ZM15.6356 25.3387C10.4305 25.3387 6.18893 21.1382 6.18893 15.9832C6.18893 10.8284 10.4305 6.62781 15.6356 6.62781C20.8407 6.62781 25.0824 10.8284 25.0824 15.9832C25.0824 21.1467 20.8407 25.3387 15.6356 25.3387Z" fill="#110F14"/>
<path d="M24.1448 31.3884C23.6458 31.8912 22.9488 32.1895 22.2004 32.1895C21.9336 32.1895 21.6669 32.1468 21.4175 32.0786L19.1977 31.4141L17.4855 32.9647C17.4254 33.0159 17.3738 33.067 17.3135 33.1096L20.0666 41.5619C20.1613 41.8602 20.5484 41.9283 20.7464 41.6812L22.751 39.1336C22.8457 39.0058 23.0177 38.9546 23.164 38.9972L26.2871 39.9004C26.5882 39.9856 26.8636 39.7045 26.7689 39.4148L24.1448 31.3884Z" fill="#110F14"/>
<path d="M12.0823 31.4141L9.86255 32.0786C9.60444 32.1554 9.34633 32.1895 9.07963 32.1895C8.33112 32.1895 7.64283 31.8912 7.13522 31.3884L4.51114 39.4233C4.4165 39.7216 4.69181 39.9942 4.99294 39.909L8.11602 39.0058C8.27089 38.9632 8.43436 39.0143 8.529 39.1421L10.5336 41.6898C10.7229 41.9369 11.1187 41.8686 11.2133 41.5705L13.9664 33.1182C13.9063 33.0756 13.846 33.0244 13.7944 32.9733L12.0823 31.4141Z" fill="#110F14"/>
<path d="M21.2365 13.6573L17.6746 13.4018L16.3325 10.1299C16.0829 9.5164 15.1968 9.5164 14.9473 10.1299L13.6052 13.4018L10.0432 13.6573C9.37216 13.7084 9.10545 14.535 9.61306 14.9609L12.3404 17.2445L11.4886 20.6782C11.3252 21.3258 12.0393 21.8369 12.6071 21.4876L15.6355 19.6217L18.664 21.4876C19.2319 21.8369 19.946 21.3258 19.7825 20.6782L18.9308 17.2445L21.658 14.9609C22.1743 14.535 21.9076 13.7084 21.2365 13.6573Z" fill="#110F14"/>
<path d="M53.8211 8.53751V10.8404H49.2883V23.6051H46.4853V10.8404H41.9316V8.53751H53.8211ZM69.2359 16.0713C69.2359 17.1758 69.0518 18.2005 68.6836 19.1452C68.3155 20.0831 67.7979 20.8958 67.131 21.5836C66.4641 22.2713 65.6618 22.8096 64.7239 23.1987C63.7861 23.5807 62.7476 23.7718 61.6083 23.7718C60.4691 23.7718 59.4271 23.5807 58.4823 23.1987C57.5444 22.8096 56.7387 22.2713 56.0648 21.5836C55.3979 20.8958 54.8804 20.0831 54.5122 19.1452C54.1441 18.2005 53.9599 17.1758 53.9599 16.0713C53.9599 14.9668 54.1441 13.9456 54.5122 13.0078C54.8804 12.063 55.3979 11.2468 56.0648 10.559C56.7387 9.87129 57.5444 9.33639 58.4823 8.95432C59.4271 8.56529 60.4691 8.37079 61.6083 8.37079C62.7476 8.37079 63.7861 8.56529 64.7239 8.95432C65.6618 9.34334 66.4641 9.88171 67.131 10.5694C67.7979 11.2502 68.3155 12.063 68.6836 13.0078C69.0518 13.9456 69.2359 14.9668 69.2359 16.0713ZM66.3599 16.0713C66.3599 15.2446 66.2488 14.5048 66.0265 13.8518C65.8112 13.1918 65.4985 12.6326 65.0886 12.1741C64.6789 11.7157 64.1787 11.3649 63.5881 11.1217C63.0046 10.8786 62.3447 10.757 61.6083 10.757C60.872 10.757 60.2086 10.8786 59.6181 11.1217C59.0276 11.3649 58.5239 11.7157 58.1071 12.1741C57.6974 12.6326 57.3812 13.1918 57.1589 13.8518C56.9367 14.5048 56.8254 15.2446 56.8254 16.0713C56.8254 16.898 56.9367 17.6412 57.1589 18.3012C57.3812 18.9542 57.6974 19.5099 58.1071 19.9684C58.5239 20.42 59.0276 20.7673 59.6181 21.0105C60.2086 21.2536 60.872 21.3752 61.6083 21.3752C62.3447 21.3752 63.0046 21.2536 63.5881 21.0105C64.1787 20.7673 64.6789 20.42 65.0886 19.9684C65.4985 19.5099 65.8112 18.9542 66.0265 18.3012C66.2488 17.6412 66.3599 16.898 66.3599 16.0713ZM74.3481 18.3012V23.6051H71.5451V8.53751H76.453C77.4602 8.53751 78.3322 8.65561 79.0685 8.8918C79.8048 9.12798 80.4127 9.45796 80.892 9.88171C81.3713 10.3055 81.7256 10.8126 81.9549 11.4031C82.1841 11.9935 82.2987 12.6396 82.2987 13.3412C82.2987 14.0706 82.1772 14.741 81.934 15.3523C81.6908 15.9567 81.3261 16.4777 80.8399 16.9153C80.3537 17.353 79.7458 17.6933 79.0164 17.9365C78.287 18.1797 77.4325 18.3012 76.453 18.3012H74.3481ZM74.3481 16.113H76.453C76.9671 16.113 77.4152 16.0505 77.7972 15.9254C78.1792 15.7935 78.4954 15.6093 78.7454 15.3731C78.9955 15.13 79.1831 14.8382 79.3081 14.4978C79.4332 14.1505 79.4957 13.7649 79.4957 13.3412C79.4957 12.9383 79.4332 12.5736 79.3081 12.2471C79.1831 11.9206 78.9955 11.6427 78.7454 11.4135C78.4954 11.1842 78.1792 11.0106 77.7972 10.8925C77.4152 10.7674 76.9671 10.7049 76.453 10.7049H74.3481V16.113ZM91.4031 17.7177V23.6051H88.6001V8.53751H93.1954C94.2234 8.53751 95.1022 8.64519 95.8317 8.86054C96.568 9.06894 97.1688 9.36418 97.6343 9.74625C98.1066 10.1283 98.4505 10.5868 98.6659 11.1217C98.8881 11.6497 98.9993 12.2332 98.9993 12.8723C98.9993 13.3794 98.9229 13.8587 98.7701 14.3103C98.6243 14.7619 98.4088 15.1716 98.1241 15.5399C97.8461 15.9081 97.4989 16.2311 97.0821 16.5089C96.6722 16.7868 96.2033 17.0091 95.6754 17.1758C96.0296 17.3773 96.3352 17.6656 96.5923 18.0407L100.364 23.6051H97.8428C97.5996 23.6051 97.3912 23.5565 97.2175 23.4592C97.0508 23.3619 96.9083 23.223 96.7903 23.0424L93.6226 18.2178C93.5044 18.0372 93.3725 17.9088 93.2266 17.8323C93.0876 17.7558 92.8792 17.7177 92.6014 17.7177H91.4031ZM91.4031 15.7066H93.1537C93.6816 15.7066 94.1401 15.6405 94.5291 15.5086C94.9251 15.3767 95.2481 15.196 95.4982 14.9668C95.7552 14.7306 95.9463 14.4526 96.0713 14.1331C96.1964 13.8136 96.2589 13.4627 96.2589 13.0807C96.2589 12.3166 96.0053 11.7296 95.4982 11.3197C94.998 10.9098 94.2303 10.7049 93.1954 10.7049H91.4031V15.7066ZM115.406 23.6051H113.239C112.996 23.6051 112.794 23.5461 112.635 23.4279C112.482 23.3029 112.371 23.1501 112.301 22.9694L111.176 19.8955H104.934L103.809 22.9694C103.753 23.1293 103.642 23.2751 103.475 23.4071C103.316 23.539 103.118 23.6051 102.881 23.6051H100.703L106.622 8.53751H109.488L115.406 23.6051ZM105.653 17.9157H110.457L108.623 12.9036C108.539 12.6813 108.446 12.4208 108.341 12.122C108.244 11.8164 108.147 11.4864 108.05 11.1321C107.953 11.4864 107.855 11.8164 107.758 12.122C107.668 12.4277 107.577 12.6952 107.487 12.9244L105.653 17.9157ZM126.05 8.53751V10.8404H121.517V23.6051H118.714V10.8404H114.16V8.53751H126.05ZM137.33 8.53751V10.7674H130.65V14.9459H135.912V17.1029H130.65V21.3647H137.33V23.6051H127.826V8.53751H137.33ZM153.132 16.0713C153.132 17.1758 152.948 18.1901 152.58 19.114C152.211 20.0379 151.694 20.8333 151.027 21.5002C150.36 22.1671 149.558 22.6846 148.62 23.0528C147.682 23.421 146.644 23.6051 145.504 23.6051H139.752V8.53751H145.504C146.644 8.53751 147.682 8.72507 148.62 9.1002C149.558 9.46838 150.36 9.98591 151.027 10.6528C151.694 11.3128 152.211 12.1047 152.58 13.0286C152.948 13.9525 153.132 14.9668 153.132 16.0713ZM150.266 16.0713C150.266 15.2446 150.156 14.5048 149.933 13.8518C149.71 13.1918 149.395 12.6361 148.985 12.1846C148.574 11.7261 148.074 11.3753 147.484 11.1321C146.901 10.889 146.24 10.7674 145.504 10.7674H142.576V21.3752H145.504C146.24 21.3752 146.901 21.2536 147.484 21.0105C148.074 20.7673 148.574 20.42 148.985 19.9684C149.395 19.5099 149.71 18.9542 149.933 18.3012C150.156 17.6412 150.266 16.898 150.266 16.0713Z" fill="#110F14"/>
<path d="M41.7402 32.3016H42.4338C42.5086 32.3016 42.5703 32.3203 42.6192 32.3576C42.668 32.395 42.701 32.4424 42.7183 32.4999L43.9935 36.7909C44.0165 36.8685 44.0366 36.9518 44.0538 37.0409C44.074 37.1298 44.0926 37.2232 44.1098 37.3209C44.13 37.2232 44.15 37.1298 44.1701 37.0409C44.1903 36.9489 44.2132 36.8657 44.2391 36.7909L45.691 32.4999C45.7082 32.451 45.7413 32.4065 45.79 32.3662C45.8417 32.3231 45.9035 32.3016 45.9754 32.3016H46.2166C46.2912 32.3016 46.3515 32.3203 46.3975 32.3576C46.4464 32.395 46.4809 32.4424 46.501 32.4999L47.9443 36.7909C47.996 36.9403 48.042 37.1112 48.0821 37.3036C48.0994 37.2089 48.1152 37.1184 48.1295 37.0321C48.1438 36.946 48.1626 36.8657 48.1855 36.7909L49.4651 32.4999C49.4794 32.4482 49.5111 32.4022 49.5599 32.3619C49.6116 32.3217 49.6734 32.3016 49.7451 32.3016H50.3958L48.4698 38.4754H47.7202L46.1563 33.7664C46.1247 33.6775 46.096 33.5741 46.0701 33.4563C46.0557 33.5138 46.0414 33.5698 46.0271 33.6243C46.0155 33.676 46.0026 33.7233 45.9883 33.7664L44.4157 38.4754H43.666L41.7402 32.3016ZM55.0105 32.3016V32.9823H52.0463V35.0331H54.4461V35.6879H52.0463V37.7948H55.0105V38.4754H51.2062V32.3016H55.0105ZM56.2129 38.4754V32.3016H58.1818C58.561 32.3016 58.8869 32.339 59.1598 32.4136C59.4355 32.4883 59.661 32.5946 59.8362 32.7325C60.0143 32.8703 60.145 33.0398 60.2282 33.2409C60.3144 33.439 60.3576 33.663 60.3576 33.913C60.3576 34.0652 60.3331 34.2116 60.2842 34.3524C60.2384 34.4931 60.1665 34.6238 60.0689 34.7445C59.9741 34.8651 59.8535 34.9728 59.7069 35.0675C59.5634 35.1624 59.394 35.2399 59.1986 35.3003C59.6495 35.3893 59.9899 35.5516 60.2196 35.787C60.4494 36.0225 60.5643 36.3328 60.5643 36.7177C60.5643 36.9791 60.5156 37.2175 60.4179 37.4329C60.323 37.6482 60.1824 37.8336 59.9956 37.9887C59.8118 38.1437 59.5849 38.2643 59.3149 38.3505C59.0477 38.4339 58.7419 38.4754 58.3973 38.4754H56.2129ZM57.0488 35.6621V37.8119H58.3842C58.6227 37.8119 58.8266 37.7847 58.996 37.7301C59.1684 37.6756 59.3092 37.5995 59.4183 37.5018C59.5303 37.4013 59.6121 37.2835 59.6638 37.1486C59.7155 37.0106 59.7415 36.8598 59.7415 36.6961C59.7415 36.3773 59.628 36.126 59.4011 35.9422C59.1771 35.7555 58.8367 35.6621 58.3799 35.6621H57.0488ZM57.0488 35.0675H58.1516C58.3872 35.0675 58.5911 35.0417 58.7634 34.99C58.9357 34.9383 59.078 34.8666 59.19 34.7746C59.3049 34.6828 59.3895 34.5722 59.4441 34.4428C59.4987 34.3108 59.526 34.1671 59.526 34.0121C59.526 33.6501 59.4169 33.3844 59.1986 33.215C58.9803 33.0455 58.6414 32.9608 58.1818 32.9608H57.0488V35.0675ZM64.8292 36.2437C64.8695 36.3127 64.9039 36.3859 64.9327 36.4634C64.9642 36.5382 64.9944 36.6143 65.0231 36.6918C65.0518 36.6114 65.0819 36.5353 65.1136 36.4634C65.1452 36.3888 65.1811 36.3142 65.2213 36.2394L67.3108 32.4439C67.3482 32.3777 67.387 32.3376 67.4271 32.3231C67.4674 32.3088 67.5248 32.3016 67.5994 32.3016H68.2155V38.4754H67.4831V33.9388C67.4831 33.8785 67.4846 33.8139 67.4874 33.745C67.4904 33.676 67.4947 33.6056 67.5005 33.5338L65.385 37.3941C65.3133 37.5233 65.2127 37.5879 65.0835 37.5879H64.9627C64.8335 37.5879 64.733 37.5233 64.6612 37.3941L62.4984 33.5209C62.5071 33.5956 62.5128 33.6688 62.5157 33.7407C62.5214 33.8124 62.5243 33.8785 62.5243 33.9388V38.4754H61.7919V32.3016H62.408C62.4826 32.3016 62.5401 32.3088 62.5803 32.3231C62.6206 32.3376 62.6592 32.3777 62.6966 32.4439L64.8292 36.2437ZM74.7981 38.4754H74.1518C74.0771 38.4754 74.0168 38.4568 73.9709 38.4194C73.9249 38.3822 73.8905 38.3348 73.8674 38.2773L73.2902 36.7866H70.5198L69.9425 38.2773C69.9225 38.329 69.888 38.3749 69.8391 38.4151C69.7903 38.4554 69.73 38.4754 69.6582 38.4754H69.012L71.4807 32.3016H72.3294L74.7981 38.4754ZM70.7526 36.1834H73.0575L72.0881 33.6716C72.0249 33.5166 71.9632 33.3227 71.9028 33.09C71.8713 33.2078 71.8397 33.3169 71.808 33.4175C71.7794 33.5152 71.7506 33.6013 71.7219 33.676L70.7526 36.1834ZM78.7376 33.2667C78.7116 33.3098 78.6844 33.3429 78.6556 33.3658C78.627 33.3858 78.5896 33.396 78.5436 33.396C78.4948 33.396 78.4373 33.3715 78.3713 33.3227C78.3081 33.2738 78.2262 33.2207 78.1258 33.1632C78.0281 33.1029 77.9089 33.0484 77.7681 32.9995C77.6303 32.9508 77.4623 32.9263 77.264 32.9263C77.0774 32.9263 76.9122 32.9522 76.7685 33.0039C76.625 33.0527 76.5044 33.1203 76.4067 33.2064C76.3119 33.2926 76.2401 33.3946 76.1913 33.5123C76.1424 33.6272 76.1181 33.7521 76.1181 33.8871C76.1181 34.0594 76.1597 34.2031 76.243 34.3179C76.3292 34.43 76.4412 34.5262 76.579 34.6066C76.7198 34.6871 76.8777 34.7574 77.0529 34.8177C77.2311 34.8752 77.412 34.9355 77.5958 34.9986C77.7824 35.0618 77.9635 35.1337 78.1387 35.2141C78.3167 35.2916 78.4747 35.3907 78.6125 35.5113C78.7533 35.6319 78.8653 35.7799 78.9486 35.9551C79.0348 36.1303 79.0779 36.3457 79.0779 36.6014C79.0779 36.8714 79.0319 37.1255 78.94 37.3639C78.8481 37.5995 78.7131 37.8048 78.535 37.98C78.3598 38.1553 78.143 38.2931 77.8844 38.3937C77.6289 38.4942 77.3373 38.5444 77.0099 38.5444C76.6107 38.5444 76.2458 38.4726 75.9155 38.329C75.5881 38.1825 75.308 37.9858 75.0754 37.7387L75.3166 37.3424C75.3397 37.3107 75.3669 37.2849 75.3985 37.2649C75.4331 37.2418 75.4703 37.2304 75.5106 37.2304C75.5709 37.2304 75.6398 37.2635 75.7174 37.3295C75.7949 37.3927 75.8912 37.463 76.006 37.5406C76.1238 37.6181 76.2645 37.6899 76.4282 37.7559C76.5948 37.8192 76.7973 37.8508 77.0357 37.8508C77.2339 37.8508 77.4106 37.8235 77.5657 37.769C77.7207 37.7144 77.8515 37.6382 77.9577 37.5406C78.0669 37.4401 78.1501 37.3209 78.2076 37.183C78.265 37.0452 78.2938 36.8915 78.2938 36.722C78.2938 36.5353 78.2507 36.3831 78.1645 36.2653C78.0812 36.1447 77.9706 36.0442 77.8327 35.9637C77.6949 35.8833 77.5369 35.8158 77.3588 35.7613C77.1837 35.7038 77.0027 35.6464 76.816 35.5889C76.6322 35.5286 76.4512 35.4596 76.2732 35.3821C76.0979 35.3046 75.9414 35.204 75.8035 35.0806C75.6657 34.9569 75.5537 34.8034 75.4675 34.6195C75.3842 34.4328 75.3425 34.2031 75.3425 33.9302C75.3425 33.7119 75.3842 33.5007 75.4675 33.2969C75.5537 33.0929 75.6772 32.912 75.838 32.754C75.9989 32.596 76.197 32.4697 76.4325 32.3748C76.671 32.2801 76.9439 32.2327 77.2511 32.2327C77.5958 32.2327 77.9103 32.2873 78.1947 32.3965C78.479 32.5056 78.7274 32.6635 78.94 32.8703L78.7376 33.2667ZM84.3493 32.3016V33.0039H82.3545V38.4754H81.5187V33.0039H79.5153V32.3016H84.3493ZM89.0311 32.3016V32.9823H86.067V35.0331H88.4667V35.6879H86.067V37.7948H89.0311V38.4754H85.2269V32.3016H89.0311ZM91.1514 35.8991V38.4754H90.3198V32.3016H92.0647C92.4553 32.3016 92.7928 32.3419 93.0771 32.4222C93.3615 32.4999 93.5956 32.6133 93.7793 32.7626C93.9661 32.912 94.1039 33.0929 94.193 33.3055C94.282 33.5152 94.3265 33.7507 94.3265 34.0121C94.3265 34.2303 94.2921 34.4342 94.2231 34.6238C94.1542 34.8134 94.0536 34.9843 93.9216 35.1366C93.7924 35.2858 93.6329 35.4137 93.4433 35.5199C93.2566 35.6262 93.0441 35.7067 92.8057 35.7613C92.9091 35.8216 93.0011 35.9091 93.0814 36.024L94.8823 38.4754H94.1413C93.989 38.4754 93.877 38.4166 93.8053 38.2988L92.2025 36.093C92.1537 36.024 92.1005 35.9753 92.0431 35.9465C91.9856 35.915 91.8995 35.8991 91.7847 35.8991H91.1514ZM91.1514 35.2916H92.0259C92.2701 35.2916 92.484 35.2629 92.6679 35.2055C92.8545 35.1452 93.0097 35.0618 93.1332 34.9555C93.2595 34.8464 93.3543 34.7172 93.4175 34.5678C93.4807 34.4185 93.5123 34.2533 93.5123 34.0724C93.5123 33.7047 93.3903 33.4275 93.1461 33.2409C92.9048 33.0541 92.5443 32.9608 92.0647 32.9608H91.1514V35.2916ZM96.6966 35.8991V38.4754H95.8651V32.3016H97.6099C98.0005 32.3016 98.338 32.3419 98.6225 32.4222C98.9068 32.4999 99.1409 32.6133 99.3247 32.7626C99.5113 32.912 99.6493 33.0929 99.7382 33.3055C99.8273 33.5152 99.8719 33.7507 99.8719 34.0121C99.8719 34.2303 99.8374 34.4342 99.7685 34.6238C99.6996 34.8134 99.599 34.9843 99.4669 35.1366C99.3376 35.2858 99.1782 35.4137 98.9886 35.5199C98.802 35.6262 98.5894 35.7067 98.3511 35.7613C98.4545 35.8216 98.5463 35.9091 98.6268 36.024L100.428 38.4754H99.6867C99.5344 38.4754 99.4224 38.4166 99.3506 38.2988L97.7479 36.093C97.699 36.024 97.6459 35.9753 97.5884 35.9465C97.531 35.915 97.4449 35.8991 97.3299 35.8991H96.6966ZM96.6966 35.2916H97.5712C97.8153 35.2916 98.0293 35.2629 98.2131 35.2055C98.3999 35.1452 98.5549 35.0618 98.6785 34.9555C98.8049 34.8464 98.8995 34.7172 98.9628 34.5678C99.026 34.4185 99.0575 34.2533 99.0575 34.0724C99.0575 33.7047 98.9355 33.4275 98.6914 33.2409C98.4501 33.0541 98.0896 32.9608 97.6099 32.9608H96.6966V35.2916ZM105.128 32.3016V32.9823H102.164V35.0331H104.564V35.6879H102.164V37.7948H105.128V38.4754H101.324V32.3016H105.128ZM105.616 32.3016H106.284C106.358 32.3016 106.419 32.3203 106.465 32.3576C106.511 32.395 106.545 32.4424 106.568 32.4999L108.313 36.8555C108.353 36.9532 108.389 37.0595 108.421 37.1744C108.455 37.2892 108.488 37.4084 108.52 37.5319C108.545 37.4084 108.573 37.2892 108.602 37.1744C108.633 37.0595 108.669 36.9532 108.709 36.8555L110.445 32.4999C110.466 32.451 110.5 32.4065 110.549 32.3662C110.598 32.3231 110.658 32.3016 110.73 32.3016H111.402L108.886 38.4754H108.132L105.616 32.3016ZM113.179 38.4754H112.343V32.3016H113.179V38.4754ZM118.634 32.3016V32.9823H115.67V35.0331H118.07V35.6879H115.67V37.7948H118.634V38.4754H114.83V32.3016H118.634ZM119.147 32.3016H119.841C119.916 32.3016 119.977 32.3203 120.026 32.3576C120.075 32.395 120.108 32.4424 120.125 32.4999L121.401 36.7909C121.424 36.8685 121.444 36.9518 121.461 37.0409C121.481 37.1298 121.5 37.2232 121.517 37.3209C121.537 37.2232 121.557 37.1298 121.577 37.0409C121.597 36.9489 121.62 36.8657 121.646 36.7909L123.098 32.4999C123.115 32.451 123.148 32.4065 123.197 32.3662C123.249 32.3231 123.311 32.3016 123.382 32.3016H123.624C123.698 32.3016 123.759 32.3203 123.805 32.3576C123.854 32.395 123.888 32.4424 123.908 32.4999L125.351 36.7909C125.403 36.9403 125.449 37.1112 125.489 37.3036C125.506 37.2089 125.522 37.1184 125.537 37.0321C125.551 36.946 125.57 36.8657 125.593 36.7909L126.872 32.4999C126.887 32.4482 126.918 32.4022 126.967 32.3619C127.019 32.3217 127.08 32.3016 127.152 32.3016H127.803L125.877 38.4754H125.127L123.563 33.7664C123.532 33.6775 123.503 33.5741 123.477 33.4563C123.463 33.5138 123.448 33.5698 123.434 33.6243C123.423 33.676 123.41 33.7233 123.395 33.7664L121.823 38.4754H121.073L119.147 32.3016ZM131.775 33.2667C131.749 33.3098 131.722 33.3429 131.693 33.3658C131.665 33.3858 131.628 33.396 131.581 33.396C131.533 33.396 131.476 33.3715 131.409 33.3227C131.345 33.2738 131.265 33.2207 131.163 33.1632C131.065 33.1029 130.947 33.0484 130.806 32.9995C130.668 32.9508 130.5 32.9263 130.302 32.9263C130.115 32.9263 129.95 32.9522 129.807 33.0039C129.663 33.0527 129.542 33.1203 129.445 33.2064C129.35 33.2926 129.278 33.3946 129.229 33.5123C129.18 33.6272 129.156 33.7521 129.156 33.8871C129.156 34.0594 129.198 34.2031 129.281 34.3179C129.367 34.43 129.479 34.5262 129.617 34.6066C129.758 34.6871 129.916 34.7574 130.091 34.8177C130.27 34.8752 130.449 34.9355 130.634 34.9986C130.821 35.0618 131.002 35.1337 131.176 35.2141C131.355 35.2916 131.512 35.3907 131.65 35.5113C131.791 35.6319 131.903 35.7799 131.986 35.9551C132.072 36.1303 132.115 36.3457 132.115 36.6014C132.115 36.8714 132.07 37.1255 131.978 37.3639C131.886 37.5995 131.751 37.8048 131.573 37.98C131.398 38.1553 131.181 38.2931 130.922 38.3937C130.667 38.4942 130.375 38.5444 130.048 38.5444C129.649 38.5444 129.284 38.4726 128.954 38.329C128.626 38.1825 128.346 37.9858 128.113 37.7387L128.355 37.3424C128.378 37.3107 128.405 37.2849 128.437 37.2649C128.471 37.2418 128.508 37.2304 128.549 37.2304C128.609 37.2304 128.678 37.2635 128.755 37.3295C128.833 37.3927 128.929 37.463 129.044 37.5406C129.162 37.6181 129.302 37.6899 129.466 37.7559C129.633 37.8192 129.835 37.8508 130.074 37.8508C130.272 37.8508 130.448 37.8235 130.603 37.769C130.759 37.7144 130.89 37.6382 130.995 37.5406C131.105 37.4401 131.188 37.3209 131.245 37.183C131.302 37.0452 131.331 36.8915 131.331 36.722C131.331 36.5353 131.288 36.3831 131.202 36.2653C131.119 36.1447 131.008 36.0442 130.871 35.9637C130.733 35.8833 130.574 35.8158 130.397 35.7613C130.222 35.7038 130.041 35.6464 129.854 35.5889C129.67 35.5286 129.489 35.4596 129.311 35.3821C129.136 35.3046 128.979 35.204 128.842 35.0806C128.704 34.9569 128.592 34.8034 128.505 34.6195C128.422 34.4328 128.381 34.2031 128.381 33.9302C128.381 33.7119 128.422 33.5007 128.505 33.2969C128.592 33.0929 128.715 32.912 128.876 32.754C129.037 32.596 129.235 32.4697 129.47 32.3748C129.709 32.2801 129.982 32.2327 130.289 32.2327C130.634 32.2327 130.948 32.2873 131.232 32.3965C131.517 32.5056 131.765 32.6635 131.978 32.8703L131.775 33.2667ZM132.812 38.0016C132.812 37.9268 132.825 37.8565 132.851 37.7905C132.88 37.7244 132.916 37.667 132.963 37.6181C133.011 37.5693 133.069 37.5305 133.135 37.5018C133.202 37.473 133.272 37.4587 133.346 37.4587C133.42 37.4587 133.491 37.473 133.557 37.5018C133.624 37.5305 133.681 37.5693 133.729 37.6181C133.779 37.667 133.816 37.7244 133.841 37.7905C133.87 37.8565 133.884 37.9268 133.884 38.0016C133.884 38.0791 133.87 38.1509 133.841 38.217C133.816 38.2802 133.779 38.3362 133.729 38.3851C133.681 38.4339 133.624 38.4712 133.557 38.4971C133.491 38.5257 133.42 38.5401 133.346 38.5401C133.272 38.5401 133.202 38.5257 133.135 38.4971C133.069 38.4712 133.011 38.4339 132.963 38.3851C132.916 38.3362 132.88 38.2802 132.851 38.217C132.825 38.1509 132.812 38.0791 132.812 38.0016ZM140.498 35.3907C140.498 35.8531 140.425 36.2782 140.279 36.666C140.132 37.0509 139.925 37.3826 139.658 37.6612C139.391 37.9399 139.069 38.1567 138.693 38.3117C138.32 38.464 137.906 38.5401 137.453 38.5401C136.998 38.5401 136.586 38.464 136.212 38.3117C135.839 38.1567 135.519 37.9399 135.252 37.6612C134.985 37.3826 134.778 37.0509 134.63 36.666C134.485 36.2782 134.412 35.8531 134.412 35.3907C134.412 34.9283 134.485 34.5046 134.63 34.1197C134.778 33.7321 134.985 33.3989 135.252 33.1203C135.519 32.8388 135.839 32.6205 136.212 32.4654C136.586 32.3102 136.998 32.2327 137.453 32.2327C137.906 32.2327 138.32 32.3102 138.693 32.4654C139.069 32.6205 139.391 32.8388 139.658 33.1203C139.925 33.3989 140.132 33.7321 140.279 34.1197C140.425 34.5046 140.498 34.9283 140.498 35.3907ZM139.641 35.3907C139.641 35.0115 139.589 34.6712 139.486 34.3696C139.383 34.0681 139.236 33.8139 139.047 33.607C138.857 33.3974 138.628 33.2366 138.357 33.1246C138.087 33.0125 137.786 32.9565 137.453 32.9565C137.122 32.9565 136.823 33.0125 136.553 33.1246C136.282 33.2366 136.051 33.3974 135.859 33.607C135.669 33.8139 135.523 34.0681 135.42 34.3696C135.316 34.6712 135.265 35.0115 135.265 35.3907C135.265 35.7699 135.316 36.1102 135.42 36.4117C135.523 36.7105 135.669 36.9647 135.859 37.1744C136.051 37.3812 136.282 37.5406 136.553 37.6526C136.823 37.7618 137.122 37.8162 137.453 37.8162C137.786 37.8162 138.087 37.7618 138.357 37.6526C138.628 37.5406 138.857 37.3812 139.047 37.1744C139.236 36.9647 139.383 36.7105 139.486 36.4117C139.589 36.1102 139.641 35.7699 139.641 35.3907ZM142.556 35.8991V38.4754H141.725V32.3016H143.471C143.861 32.3016 144.199 32.3419 144.483 32.4222C144.767 32.4999 145.001 32.6133 145.185 32.7626C145.371 32.912 145.509 33.0929 145.599 33.3055C145.688 33.5152 145.732 33.7507 145.732 34.0121C145.732 34.2303 145.698 34.4342 145.629 34.6238C145.56 34.8134 145.46 34.9843 145.327 35.1366C145.198 35.2858 145.039 35.4137 144.849 35.5199C144.662 35.6262 144.45 35.7067 144.212 35.7613C144.315 35.8216 144.407 35.9091 144.487 36.024L146.288 38.4754H145.547C145.394 38.4754 145.282 38.4166 145.211 38.2988L143.609 36.093C143.559 36.024 143.506 35.9753 143.449 35.9465C143.391 35.915 143.305 35.8991 143.191 35.8991H142.556ZM142.556 35.2916H143.432C143.675 35.2916 143.89 35.2629 144.074 35.2055C144.26 35.1452 144.415 35.0618 144.539 34.9555C144.665 34.8464 144.76 34.7172 144.823 34.5678C144.886 34.4185 144.918 34.2533 144.918 34.0724C144.918 33.7047 144.795 33.4275 144.552 33.2409C144.311 33.0541 143.95 32.9608 143.471 32.9608H142.556V35.2916ZM149.736 37.868C149.902 37.868 150.055 37.8608 150.192 37.8465C150.334 37.8293 150.465 37.8048 150.589 37.7733C150.713 37.7416 150.829 37.7042 150.938 37.6612C151.046 37.6153 151.156 37.5636 151.265 37.5061V36.1447H150.309C150.254 36.1447 150.21 36.1288 150.175 36.0973C150.143 36.0657 150.128 36.027 150.128 35.981V35.507H152.023V37.8767C151.868 37.9887 151.706 38.0863 151.536 38.1696C151.37 38.2529 151.191 38.3233 150.998 38.3808C150.808 38.4353 150.605 38.4755 150.386 38.5014C150.168 38.53 149.931 38.5444 149.676 38.5444C149.228 38.5444 148.816 38.4683 148.444 38.316C148.07 38.161 147.748 37.9456 147.479 37.6698C147.208 37.3912 146.997 37.058 146.844 36.6703C146.696 36.2825 146.62 35.8559 146.62 35.3907C146.62 34.9197 146.694 34.4903 146.84 34.1025C146.99 33.7147 147.201 33.383 147.473 33.1072C147.749 32.8286 148.082 32.6133 148.468 32.4611C148.859 32.3088 149.296 32.2327 149.779 32.2327C150.022 32.2327 150.25 32.2514 150.46 32.2887C150.67 32.3231 150.862 32.3748 151.041 32.4439C151.222 32.5099 151.389 32.5917 151.541 32.6894C151.693 32.7842 151.835 32.8919 151.967 33.0125L151.73 33.3916C151.682 33.4692 151.618 33.508 151.541 33.508C151.494 33.508 151.445 33.4921 151.39 33.4606C151.318 33.4204 151.238 33.3715 151.149 33.3141C151.059 33.2566 150.951 33.2021 150.821 33.1504C150.694 33.0958 150.545 33.0498 150.369 33.0125C150.197 32.9752 149.991 32.9565 149.753 32.9565C149.405 32.9565 149.091 33.014 148.81 33.1289C148.528 33.2409 148.287 33.4032 148.089 33.6156C147.891 33.8253 147.739 34.081 147.634 34.3825C147.527 34.6813 147.473 35.0174 147.473 35.3907C147.473 35.7813 147.528 36.1303 147.637 36.4377C147.749 36.7421 147.906 37.0006 148.108 37.2132C148.308 37.4257 148.547 37.5879 148.823 37.6999C149.098 37.8119 149.402 37.868 149.736 37.868Z" fill="#110F14"/>
</g>
</g>
<defs>
<clipPath id="clip0_30_171">
<rect width="155" height="41.6807" fill="white" transform="translate(0 0.159698)"/>
</clipPath>
</defs>
</svg>
