<svg width="97" height="69" viewBox="0 0 97 69" fill="none" xmlns="http://www.w3.org/2000/svg">
<g clip-path="url(#clip0_31_509)">
<path d="M72.625 47.5227H96.9942L91.0359 39.8642L96.9942 31.2192H72.625V47.5227Z" fill="url(#paint0_linear_31_509)"/>
<path d="M24.5041 47.5227H0.134766L6.09151 39.8642L0.134766 31.2192H24.5041V47.5227Z" fill="url(#paint1_linear_31_509)"/>
<path d="M84.8432 42.6923L78.3396 47.8117L77.542 40.9849L84.8432 42.6923Z" fill="#A53B11"/>
<path d="M12.0039 42.6923L18.6215 48.0404L19.5907 40.1895L12.0039 42.6923Z" fill="#A53B11"/>
<path d="M82.8314 34.6719C82.8314 35.4113 81.4641 36.1036 81.4109 36.8308C81.3578 37.558 82.6263 38.4307 82.5397 39.1549C82.453 39.8791 80.9932 40.3942 80.8519 41.1108C80.7105 41.8275 81.8561 42.8547 81.6662 43.5623C81.4762 44.2697 79.9707 44.594 79.7399 45.2802C79.5089 45.9666 80.4994 47.1392 80.2244 47.8149C79.9495 48.4906 78.4015 48.6088 78.0824 49.2649C77.7634 49.9208 78.5974 51.2071 78.2344 51.8404C77.8712 52.4738 76.3293 52.3889 75.9206 52.9994C75.512 53.61 76.1758 54.9918 75.7276 55.575C75.2795 56.1583 73.7695 55.8705 73.2833 56.4219C72.7972 56.9734 73.2833 58.4309 72.7577 58.9505C72.232 59.4702 70.7827 58.9899 70.2236 59.4747C69.6645 59.9596 69.9578 61.464 69.3729 61.9125C68.788 62.3609 67.398 61.6943 66.7902 62.1034C66.1826 62.5124 66.2677 64.0426 65.628 64.4108C64.9885 64.779 63.7063 63.9381 63.0454 64.2592C62.3847 64.5805 62.2737 66.1137 61.5917 66.3956C60.9095 66.6773 59.7489 65.6758 59.0485 65.9122C58.3482 66.1485 58.0397 67.6485 57.3258 67.8394C56.6117 68.0303 55.5939 66.8833 54.8677 67.0272C54.1415 67.1712 53.6418 68.615 52.9065 68.7105C52.1712 68.8059 51.3174 67.5379 50.5775 67.5849C49.8377 67.6318 49.1555 68.9999 48.4126 68.9999C47.6698 68.9999 46.9785 67.6364 46.2493 67.5849C45.5201 67.5334 44.645 68.7968 43.9189 68.7105C43.1927 68.6242 42.6716 67.1682 41.9485 67.0303C41.2254 66.8925 40.2 68.0318 39.4905 67.8439C38.781 67.656 38.4635 66.1516 37.7677 65.9168C37.0719 65.682 35.9037 66.6742 35.2261 66.4001C34.5486 66.1258 34.4301 64.5819 33.7708 64.2639C33.1114 63.9457 31.8232 64.7759 31.1882 64.4153C30.5531 64.0547 30.6397 62.517 30.0274 62.1079C29.4153 61.6988 28.0297 62.364 27.4448 61.9171C26.86 61.4701 27.141 59.9626 26.5956 59.4778C26.0503 58.993 24.5812 59.4778 24.0616 58.9551C23.5421 58.4324 24.0206 56.9855 23.5345 56.4265C23.0484 55.8674 21.5398 56.1628 21.0901 55.5781C20.6405 54.9933 21.3088 53.6085 20.8987 53.0025C20.4885 52.3964 18.9541 52.4828 18.5849 51.8449C18.2158 51.2071 19.0589 49.9284 18.7368 49.2694C18.4147 48.6104 16.8774 48.4997 16.5963 47.8195C16.3153 47.1392 17.3164 45.9817 17.0794 45.2848C16.8424 44.5879 15.3384 44.2788 15.1486 43.5668C14.9587 42.8547 16.1057 41.8396 15.9614 41.117C15.8169 40.3942 14.3646 39.8867 14.2629 39.1549C14.1611 38.4231 15.4403 37.5687 15.3916 36.8308C15.343 36.093 13.9727 35.4113 13.9727 34.6719C13.9727 33.9325 15.34 33.2417 15.3916 32.5129C15.4432 31.7842 14.1763 30.9146 14.2629 30.1904C14.3494 29.4661 15.8093 28.9496 15.9522 28.2329C16.095 27.5163 14.948 26.4891 15.1379 25.7846C15.3278 25.0801 16.8333 24.7574 17.0688 24.065C17.3043 23.3726 16.3092 22.206 16.5857 21.5289C16.8622 20.8516 18.4087 20.7364 18.7262 20.0789C19.0437 19.4213 18.2112 18.1367 18.5743 17.5034C18.9374 16.8701 20.4779 16.955 20.8865 16.3458C21.2952 15.7368 20.6313 14.3536 21.0794 13.7702C21.5276 13.187 23.0498 13.4748 23.5298 12.9294C24.01 12.384 23.53 10.922 24.0556 10.4023C24.5812 9.88265 26.0304 10.3629 26.5911 9.8781C27.1517 9.39329 26.8569 7.88733 27.4403 7.44039C28.0237 6.99345 29.4153 7.65855 30.0229 7.24798C30.6306 6.8374 30.5455 5.31023 31.1851 4.94207C31.8246 4.57392 33.1069 5.41326 33.7677 5.09358C34.4286 4.77391 34.5456 3.23309 35.2276 2.94523C35.9098 2.65737 37.0689 3.66488 37.7693 3.42854C38.4696 3.19219 38.778 1.69078 39.4921 1.5014C40.206 1.31202 41.2223 2.45739 41.9485 2.31346C42.6747 2.16953 43.1761 0.724174 43.9097 0.628726C44.6435 0.533277 45.5003 1.80289 46.2403 1.75592C46.9801 1.70896 47.6622 0.339355 48.4036 0.339355C49.1449 0.339355 49.8392 1.70289 50.5683 1.75592C51.2976 1.80895 52.1727 0.534794 52.8989 0.630242C53.625 0.725691 54.1415 2.17255 54.8601 2.31346C55.5787 2.45436 56.6102 1.31202 57.3182 1.5014C58.0261 1.69078 58.3451 3.1937 59.0409 3.42854C59.7367 3.66337 60.9049 2.67101 61.5841 2.94523C62.2631 3.21946 62.3786 4.75572 63.0364 5.08146C63.6941 5.40719 64.9855 4.56786 65.619 4.92995C66.2525 5.29205 66.169 6.82982 66.7797 7.23737C67.3904 7.64492 68.7774 6.98133 69.3623 7.42978C69.9472 7.87824 69.6661 9.38268 70.213 9.8675C70.7599 10.3523 72.2259 9.8675 72.747 10.3917C73.2681 10.9159 72.7865 12.3613 73.2727 12.9188C73.7588 13.4763 75.2674 13.1839 75.717 13.7673C76.1667 14.3505 75.4998 15.7368 75.9085 16.3428C76.3171 16.9488 77.853 16.864 78.2222 17.5003C78.5914 18.1367 77.7482 19.4168 78.0703 20.0759C78.3923 20.735 79.9282 20.8456 80.2123 21.5258C80.4964 22.206 79.4967 23.3681 79.7399 24.0666C79.9829 24.765 81.4793 25.071 81.6707 25.7846C81.8622 26.4982 80.7121 27.5103 80.8564 28.2344C81.0008 28.9587 82.4485 29.4586 82.5443 30.1904C82.64 30.9221 81.3685 31.7767 81.4155 32.5144C81.4626 33.2523 82.8314 33.9325 82.8314 34.6719Z" fill="#01468C"/>
<path d="M79.571 34.6712C79.571 52.026 65.5946 66.0933 48.3412 66.0933C31.0878 66.0933 17.1143 52.026 17.1143 34.6712C17.1143 17.3163 31.0907 3.24902 48.3412 3.24902C65.5915 3.24902 79.571 17.3223 79.571 34.6712Z" fill="white"/>
<path d="M67.4045 34.9187C67.4048 38.6886 66.284 42.3741 64.184 45.5088C62.0839 48.6437 59.0989 51.0869 55.6064 52.5297C52.114 53.9726 48.2709 54.3502 44.5633 53.6148C40.8556 52.8794 37.4498 51.0639 34.7767 48.3982C32.1037 45.7323 30.2833 42.336 29.5459 38.6384C28.8085 34.9407 29.1871 31.1081 30.6339 27.6252C32.0807 24.1422 34.5306 21.1654 37.674 19.071C40.8173 16.9767 44.5129 15.859 48.2931 15.8594C53.3617 15.8594 58.2228 17.8673 61.8069 21.4417C65.3909 25.016 67.4045 29.8638 67.4045 34.9187Z" fill="#01468C"/>
<path d="M79.8881 25.644H16.9238V43.402H79.8881V25.644Z" fill="#01468C"/>
<path d="M84.8092 26.4609H11.9551V42.6554H84.8092V26.4609Z" fill="url(#paint2_linear_31_509)"/>
<path d="M30.1576 52.7118L29.0273 51.4603L27.7846 52.5754L29.047 53.9752L28.4607 54.3646L26.7334 52.4511L30.5891 48.9878L32.3073 50.8876L31.7801 51.3619L30.5952 50.0482L29.55 50.9877L30.6802 52.239L30.1576 52.7118Z" fill="black"/>
<path d="M33.0678 52.4894L32.1988 51.7744L32.6545 51.229L35.0153 53.1698L34.5596 53.7151L33.6906 53.0015L30.8406 56.4498L30.2178 55.9378L33.0678 52.4894Z" fill="black"/>
<path d="M33.8972 56.9116C33.6937 57.3297 33.6602 57.7706 34.0932 58.0342C34.5262 58.2978 34.8361 58.1448 35.0731 57.7539C35.3101 57.363 35.2705 57.0206 34.8619 56.3904C34.3378 55.5934 34.2284 55.098 34.6249 54.4466C35.0366 53.7723 35.7659 53.5497 36.5406 54.0193C37.4901 54.5936 37.3336 55.392 37.0085 55.9571L36.3324 55.5465C36.4541 55.2934 36.6364 54.8329 36.1912 54.5602C35.8388 54.3465 35.5425 54.4859 35.348 54.8041C35.1323 55.1587 35.1961 55.4207 35.5698 55.9919C36.135 56.8373 36.2475 57.3993 35.8144 58.113C35.3815 58.8266 34.6341 59.1069 33.7393 58.5675C32.7639 57.9766 32.8414 57.1661 33.2106 56.4919L33.8972 56.9116Z" fill="black"/>
<path d="M37.0771 60.2147L37.8095 58.4815C37.8307 58.434 37.8405 58.3821 37.8383 58.33L37.852 54.9287L38.6829 55.2788C38.6465 56.1666 38.6025 57.3118 38.531 57.8633C38.9337 57.3922 39.7206 56.5771 40.2933 55.9559L41.0787 56.2862L38.6313 58.6755C38.5923 58.7142 38.5618 58.7606 38.5417 58.8118L37.8171 60.5314L37.0771 60.2147Z" fill="black"/>
<path d="M42.2789 60.4914L43.0719 60.6263C43.037 61.0913 43.1692 61.5141 43.6689 61.5989C44.1688 61.6838 44.3997 61.4292 44.4771 60.9778C44.5546 60.5262 44.389 60.2202 43.7783 59.7945C42.9975 59.2475 42.7149 58.8264 42.8409 58.0733C42.9731 57.2961 43.5702 56.822 44.4635 56.9734C45.5588 57.1583 45.7092 57.9582 45.6151 58.6021L44.8342 58.4703C44.8539 58.1886 44.8615 57.6931 44.339 57.6037C43.9318 57.5356 43.7069 57.7734 43.6446 58.1416C43.5747 58.5506 43.7252 58.7733 44.2903 59.1642C45.1273 59.743 45.4404 60.2247 45.3006 61.046C45.1608 61.8671 44.5713 62.4095 43.5383 62.2276C42.4125 62.0367 42.1847 61.255 42.2789 60.4914Z" fill="black"/>
<path d="M49.0531 60.198L47.3653 60.1617L47.3303 61.8282L49.2172 61.8691L49.1002 62.563L46.5176 62.5069L46.63 57.333L49.1959 57.3876L49.1807 58.0951L47.4109 58.0573L47.3805 59.4601L49.0683 59.4965L49.0531 60.198Z" fill="black"/>
<path d="M50.9687 60.1478L51.2512 62.3977L50.4567 62.4977L49.8125 57.3617L51.3089 57.1739C52.2204 57.0602 52.7856 57.4844 52.8981 58.3737C52.9922 59.1313 52.6428 59.4964 52.3724 59.6388C52.8206 59.766 53.0408 60.11 53.132 60.8509L53.1577 61.0554C53.1937 61.4184 53.2628 61.7775 53.3645 62.128L52.5866 62.2265C52.4678 61.8765 52.3928 61.5131 52.3632 61.1448L52.3404 60.9615C52.2524 60.26 52.0625 60.007 51.4426 60.0842L50.9687 60.1478ZM50.8867 59.4948L51.3955 59.4297C51.9759 59.357 52.1657 59.051 52.0974 58.5055C52.0382 58.0389 51.7799 57.7783 51.2755 57.842L50.6876 57.9161L50.8867 59.4948Z" fill="black"/>
<path d="M55.6228 61.5824L52.9414 56.9676L53.7755 56.7282L54.9012 58.7796C55.2475 59.4098 55.6304 60.1431 55.8385 60.6324H55.8537C55.7748 60.1355 55.7458 59.278 55.7018 58.5675L55.5499 56.2206L56.3596 55.9873L56.5388 61.3233L55.6228 61.5824Z" fill="black"/>
<path d="M57.5769 55.4077L59.6141 60.1665L58.8712 60.4831L56.834 55.7228L57.5769 55.4077Z" fill="black"/>
<path d="M62.8675 56.7622C62.9845 57.0122 63.536 58.1848 62.3419 58.8712C61.0915 59.5893 60.2894 58.4939 59.618 57.3318C58.8082 55.9304 58.6912 54.8062 59.7198 54.2154C60.8759 53.5518 61.5427 54.5183 61.7509 54.8426L61.0536 55.2426C60.9548 55.0911 60.5978 54.5093 60.0524 54.8198C59.4767 55.1502 59.7835 55.9547 60.3457 56.9288C60.8545 57.8076 61.4364 58.6045 62.0167 58.2742C62.5378 57.9712 62.2599 57.3652 62.1686 57.1636L62.8675 56.7622Z" fill="black"/>
<path d="M65.2272 53.8363L63.9055 54.8832L64.9462 56.1877L66.4227 55.0165L66.7783 55.6226L64.7577 57.2254L61.5264 53.1758L63.5348 51.5835L63.9753 52.1365L62.5913 53.2349L63.468 54.3332L64.7881 53.2848L65.2272 53.8363Z" fill="black"/>
<path d="M67.0875 53.3567C67.4566 53.643 67.8821 53.7672 68.2299 53.3991C68.5779 53.0309 68.4928 52.6975 68.16 52.3839C67.8274 52.0704 67.4825 52.04 66.7928 52.3082C65.9026 52.6536 65.3936 52.6567 64.8376 52.134C64.2816 51.6112 64.195 50.8356 64.8179 50.1765C65.5774 49.3706 66.3295 49.6887 66.8156 50.125L66.2732 50.6993C66.0484 50.5265 65.6382 50.2448 65.2751 50.6311C64.991 50.9341 65.067 51.2492 65.339 51.5037C65.6428 51.7885 65.9117 51.787 66.5542 51.5356C67.5022 51.1598 68.0735 51.1674 68.6811 51.7385C69.2888 52.3097 69.4104 53.1021 68.6918 53.8596C67.9094 54.6883 67.13 54.4444 66.5452 53.943L67.0875 53.3567Z" fill="black"/>
<path d="M19.8984 35.4562H26.1134V36.9335H19.8984V35.4562ZM22.2106 29.4204H23.5019L21.6485 39.8742H20.3299L22.2106 29.4204ZM20.4165 32.0309H26.6026V33.4775H20.4165V32.0309ZM24.8024 29.4204H26.1134L24.26 39.8742H22.9399L24.8024 29.4204Z" fill="white"/>
<path d="M28.5572 39.8815V31.2882C28.1571 31.3314 27.754 31.339 27.3525 31.311V29.9125C28.0434 29.8574 28.6925 29.56 29.1847 29.0732H30.4942V39.8815H28.5572Z" fill="white"/>
<path d="M72.4527 39.8815V31.2882C72.0526 31.3314 71.6495 31.339 71.248 31.311V29.9125C71.9389 29.8574 72.588 29.56 73.0802 29.0732H74.3898V39.8815H72.4527Z" fill="white"/>
<path d="M35.3359 31.6489H37.241V39.8817H35.3359V31.6489ZM35.3497 28.5825H37.2562V30.4596H35.3497V28.5825Z" fill="white"/>
<path d="M38.9415 34.2102C38.9415 32.5178 38.9415 32.08 38.9248 31.6481H40.7584C40.7976 31.9324 40.8179 32.2189 40.8192 32.5057C41.0638 32.0512 41.5697 31.4922 42.6422 31.4922C43.9897 31.4922 44.7569 32.3421 44.7569 34.0086V39.8809H42.8489V34.4435C42.8489 33.6253 42.6847 33.1269 41.9161 33.1269C41.1944 33.1269 40.8526 33.5314 40.8526 34.7829V39.884H38.9415V34.2102Z" fill="white"/>
<path d="M48.9141 39.8799V39.7452C48.9293 37.9453 49.6858 36.5635 51.3296 34.7137C52.4644 33.4213 52.905 33.0471 52.905 31.9729C52.905 31.2245 52.753 30.5458 51.9417 30.5458C51.1306 30.5458 50.8784 31.1154 50.8328 32.3321H48.9535C48.9611 30.5291 49.7632 28.9868 52.0116 28.9868C54.0808 28.9868 54.9149 30.1852 54.9149 31.9972C54.9149 33.232 54.4378 34.0016 53.0569 35.4819C51.96 36.6499 51.3721 37.4999 51.1701 38.221H55.1685L54.9163 39.877L48.9141 39.8799Z" fill="white"/>
<path d="M62.8403 34.3123C62.8403 38.3392 62.0291 40.03 59.6864 40.0271C57.4472 40.0271 56.5342 38.2923 56.5342 34.4213C56.5342 30.2988 57.7495 28.9868 59.7382 28.9868C61.7981 28.9899 62.8403 30.314 62.8403 34.3123ZM58.5 34.3683C58.5 37.1075 58.696 38.4408 59.6986 38.4408C60.7787 38.4408 60.8852 37.0772 60.8852 34.3395C60.8852 31.4276 60.6739 30.5913 59.7183 30.5913C58.8038 30.5913 58.5 31.5291 58.5 34.3683Z" fill="white"/>
<path d="M63.8906 39.8799V39.7452C63.9044 37.9453 64.6624 36.5635 66.3047 34.7137C67.441 33.4213 67.8815 33.0471 67.8815 31.9729C67.8815 31.2245 67.7296 30.5458 66.9168 30.5458C66.1041 30.5458 65.8535 31.1154 65.8094 32.3321H63.9301C63.9377 30.5291 64.7399 28.9868 66.9883 28.9868C69.0575 28.9868 69.8914 30.1852 69.8914 31.9972C69.8914 33.232 69.4144 34.0016 68.0334 35.4819C66.9366 36.6529 66.3487 37.5029 66.1451 38.2301H70.1436L69.8914 39.8861L63.8906 39.8799Z" fill="white"/>
<path d="M27.7206 23.1769L24.2979 21.868L24.6138 21.362C25.5497 21.7467 26.6799 22.2255 27.2252 22.5072C26.7422 22.0952 25.7244 21.112 25.1197 20.5559L25.3886 20.1272C26.0996 20.3999 27.4745 20.9044 28.0365 21.1604V21.1513C27.4729 20.7089 26.4657 19.7773 25.9097 19.2954L26.2059 18.8242L28.8645 21.3589L28.5607 21.8346C27.8254 21.5483 26.5994 21.1029 26.0099 20.8393C26.5234 21.2695 27.4729 22.1921 28.0153 22.7073L27.7206 23.1769Z" fill="black"/>
<path d="M29.4205 17.9984L28.676 18.9L29.5708 19.6362L30.4049 18.6273L30.733 18.9893L29.5936 20.3695L26.8135 18.0803L27.9469 16.7168L28.3266 17.0288L27.5442 17.9743L28.3039 18.5939L29.0497 17.6849L29.4205 17.9984Z" fill="black"/>
<path d="M28.5791 16.0239L29.3235 15.2952C29.7489 14.8786 30.2349 14.8831 30.6224 15.2831C30.9475 15.6134 30.9399 15.9225 30.8472 16.1179C31.1054 16.0073 31.4686 15.9876 31.8514 16.377C32.3223 16.8556 32.2874 17.4283 31.8347 17.8723L31.1025 18.5889L28.5791 16.0239ZM30.2396 16.4375C30.5434 16.1451 30.5085 15.9361 30.2729 15.6966C30.0375 15.4573 29.7975 15.4604 29.5559 15.6966L29.2854 15.9588L29.9934 16.6785L30.2396 16.4375ZM31.1845 17.8904L31.4883 17.5966C31.742 17.348 31.7482 17.0677 31.4489 16.7633C31.1496 16.4588 30.8715 16.4421 30.5555 16.7512L30.3079 16.9936L31.1845 17.8904Z" fill="black"/>
<path d="M33.9473 14.2933C33.566 13.7871 33.1573 13.2327 32.9249 12.9055L32.9157 12.9131C33.2196 13.519 33.809 14.7083 34.3027 15.7825L33.8926 16.0856C33.1087 15.3598 32.062 14.3963 31.5515 13.922L31.5378 13.9327C31.8067 14.2554 32.2823 14.8568 32.656 15.3508L33.4581 16.4112L33.0464 16.7143L30.877 13.8462L31.5454 13.3433C32.3522 14.0387 33.1968 14.8174 33.5629 15.1749C33.3457 14.769 32.8215 13.6312 32.3977 12.7024L33.0525 12.21L35.2279 15.081L34.798 15.4053L33.9473 14.2933Z" fill="black"/>
<path d="M35.7702 13.616L36.074 14.575L35.5879 14.8508L34.5381 11.3117L35.1701 10.9526L37.7026 13.6493L37.2027 13.9403L36.5328 13.1827L35.7702 13.616ZM36.1926 12.8146C35.679 12.2389 35.319 11.842 35.1108 11.5874L35.0986 11.595C35.2203 11.898 35.4025 12.4616 35.6167 13.1433L36.1926 12.8146Z" fill="black"/>
<path d="M38.0346 12.4293C38.1865 12.7126 38.428 12.908 38.7501 12.7687C39.0721 12.6293 39.1101 12.3929 38.984 12.102C38.8579 11.8111 38.6453 11.6975 38.1287 11.6793C37.4648 11.6566 37.1397 11.5278 36.9271 11.0339C36.7143 10.54 36.8738 10.0309 37.4512 9.77945C38.1591 9.47644 38.5495 9.88096 38.7409 10.2915L38.2366 10.5052C38.1409 10.334 37.9555 10.0506 37.6183 10.19C37.3569 10.3037 37.3144 10.5279 37.4208 10.7642C37.5362 11.0278 37.7079 11.1006 38.1804 11.1142C38.8868 11.1339 39.2437 11.2945 39.4823 11.8248C39.7208 12.355 39.5765 12.8853 38.9096 13.1792C38.1834 13.4944 37.7534 13.1262 37.518 12.6475L38.0346 12.4293Z" fill="black"/>
<path d="M39.949 9.41184L39.2046 9.64818L39.0527 9.18002L41.0793 8.53613L41.2312 9.00429L40.4868 9.24064L41.4272 12.1965L40.8925 12.3647L39.949 9.41184Z" fill="black"/>
<path d="M43.9974 9.89985L42.8504 10.1392L43.0874 11.2725L44.3711 11.0043L44.4015 11.4922L42.6469 11.8588L41.9131 8.3348L43.6556 7.97119L43.7574 8.45146L42.5542 8.70145L42.7548 9.65592L43.9017 9.41654L43.9974 9.89985Z" fill="black"/>
<path d="M45.3382 9.78109L45.4977 11.3476L44.9431 11.4037L44.5801 7.8297L45.6222 7.72365C46.2572 7.66001 46.6416 7.96303 46.7054 8.58268C46.7586 9.10537 46.508 9.35839 46.3195 9.45082C46.6233 9.54777 46.7753 9.79018 46.8285 10.3083L46.8422 10.4507C46.8608 10.7036 46.9031 10.9541 46.9682 11.1992L46.4259 11.2537C46.3494 11.0078 46.3041 10.7533 46.2907 10.4962L46.277 10.3689C46.2268 9.88108 46.1008 9.7023 45.6693 9.74624L45.3382 9.78109ZM45.2926 9.32658L45.6465 9.29021C46.0506 9.25082 46.1873 9.04023 46.1495 8.66147C46.116 8.33573 45.9413 8.15089 45.5904 8.18725L45.1801 8.22817L45.2926 9.32658Z" fill="black"/>
<path d="M48.1755 9.60819L48.1497 11.1823L47.5938 11.1732L47.6514 7.58105L48.6997 7.59772C49.3363 7.60832 49.6841 7.95527 49.6734 8.57645C49.6644 9.10217 49.3879 9.32335 49.1873 9.39456C49.4835 9.52486 49.6021 9.78393 49.593 10.3036V10.446C49.5815 10.6991 49.5937 10.9527 49.6294 11.2035L49.0855 11.1944C49.0383 10.9449 49.0225 10.6904 49.0384 10.4369V10.3081C49.0384 9.81727 48.9412 9.62486 48.5067 9.6188L48.1755 9.60819ZM48.1755 9.15367H48.5326C48.9381 9.15367 49.0977 8.96884 49.1038 8.58705C49.1038 8.2598 48.9519 8.05677 48.6039 8.05072H48.1938L48.1755 9.15367Z" fill="black"/>
<path d="M52.1757 9.82576L51.0121 9.68941L50.8768 10.8378L52.1788 10.9893L52.0512 11.4605L50.2676 11.2545L50.69 7.68652L52.4582 7.89407L52.4006 8.38192L51.1852 8.23041L51.0713 9.19854L52.235 9.33489L52.1757 9.82576Z" fill="black"/>
<path d="M53.332 11.7184L53.2803 8.01709L53.8667 8.15344L53.85 9.77758C53.85 10.276 53.8258 10.8518 53.7863 11.2169H53.7968C53.9184 10.8896 54.1919 10.3609 54.4046 9.91544L55.1095 8.4413L55.6776 8.57463L53.9715 11.8699L53.332 11.7184Z" fill="black"/>
<path d="M56.9638 9.00285L55.8488 12.4178L55.3154 12.2451L56.4306 8.82861L56.9638 9.00285Z" fill="black"/>
<path d="M58.7942 11.8055L57.7125 11.351L57.2674 12.4191L58.4827 12.9205L58.2305 13.3387L56.5762 12.654L57.9571 9.33594L59.6024 10.0177L59.4141 10.4722L58.2792 10.0026L57.9055 10.9025L58.9871 11.357L58.7942 11.8055Z" fill="black"/>
<path d="M59.2314 13.8381L60.4467 10.3853L60.9618 10.6883C60.6017 11.6321 60.1551 12.773 59.8892 13.3245C60.2872 12.8305 61.2443 11.7882 61.7851 11.1701L62.2227 11.4261C61.975 12.1412 61.5102 13.535 61.2671 14.0955H61.2762C61.7047 13.5214 62.61 12.4897 63.0764 11.917L63.558 12.1988L61.0924 14.9258L60.6062 14.6425C60.8721 13.9017 61.2854 12.6729 61.5329 12.067C61.1152 12.5912 60.2173 13.5638 59.71 14.1184L59.2314 13.8381Z" fill="black"/>
<path d="M62.9429 15.0336C62.7682 15.3063 62.7104 15.6078 62.9885 15.823C63.2664 16.038 63.4913 15.9593 63.6858 15.7077C63.8802 15.4562 63.8802 15.2184 63.6493 14.7563C63.3455 14.1654 63.3166 13.8139 63.6417 13.3927C63.9668 12.9716 64.5001 12.8655 64.9968 13.2504C65.6046 13.723 65.4344 14.2609 65.1639 14.6245L64.731 14.2942C64.8344 14.1275 65.0029 13.8276 64.7127 13.6018C64.4864 13.4261 64.2707 13.4988 64.1051 13.7033C63.9394 13.9078 63.9532 14.1154 64.1628 14.5396C64.4849 15.1683 64.5168 15.5639 64.1628 16.0199C63.8089 16.4758 63.2695 16.6122 62.6953 16.1714C62.0709 15.6865 62.1893 15.1321 62.4978 14.6972L62.9429 15.0336Z" fill="black"/>
<path d="M64.0156 17.1861L64.5474 16.6089L64.9622 16.9876L64.4304 17.5663L64.0156 17.1861Z" fill="black"/>
<path d="M67.6685 18.281C66.7251 19.1537 66.0551 19.3172 65.5022 18.7233C64.9811 18.1644 65.1725 17.5114 66.1266 16.622C67.0806 15.7327 67.746 15.6857 68.2428 16.2189C68.7684 16.7842 68.5771 17.4386 67.6685 18.281ZM66.5231 17.0387C65.8531 17.6582 65.5858 18.1189 65.8576 18.4128C66.1296 18.7067 66.5929 18.4945 67.2811 17.8567C67.9693 17.2189 68.1637 16.8341 67.8889 16.5342C67.6138 16.2341 67.1565 16.4523 66.5231 17.0387Z" fill="black"/>
<path d="M68.3204 19.5315L67.0504 20.4633L66.7207 20.0088L69.6223 17.8877L70.2423 18.73C70.6205 19.2421 70.5461 19.7269 70.0507 20.0937C69.6269 20.4042 69.2821 20.3194 69.1043 20.2027C69.1788 20.5178 69.0435 20.7663 68.6227 21.0754L68.5072 21.1602C68.2984 21.3042 68.1036 21.4675 67.9255 21.6481L67.6019 21.2103C67.7754 21.0207 67.9713 20.8528 68.1853 20.7103L68.2885 20.6345C68.685 20.3451 68.7746 20.1436 68.5179 19.7951L68.3204 19.5315ZM68.6911 19.2619L68.9023 19.5482C69.1423 19.8739 69.3915 19.8845 69.6998 19.6588C69.9642 19.4648 70.0355 19.2224 69.8259 18.9376L69.5829 18.6073L68.6911 19.2619Z" fill="black"/>
<path d="M69.2815 23.9552L69.0673 23.5825C69.1558 23.5138 69.2481 23.45 69.3438 23.3916C69.1981 23.3988 69.0536 23.3621 68.9291 23.2861C68.8048 23.2102 68.7062 23.0985 68.6465 22.9659C68.2681 22.3067 68.7649 21.7356 69.7448 21.1781C70.8645 20.5387 71.58 20.616 71.9568 21.2735C72.4232 22.0855 71.7441 22.534 71.5632 22.6506L71.2883 22.1704C71.4037 22.0917 71.7441 21.8674 71.5344 21.4963C71.3247 21.125 70.7505 21.2704 70.035 21.678C69.2891 22.1038 68.8986 22.4552 69.1234 22.8386C69.3179 23.178 69.64 23.1143 70.1671 22.8143L70.3342 22.7188L70.07 22.2643L70.4877 22.0264L71.0285 22.9688L69.2815 23.9552Z" fill="black"/>
</g>
<defs>
<linearGradient id="paint0_linear_31_509" x1="15088" y1="13955.5" x2="11191.8" y2="13703.3" gradientUnits="userSpaceOnUse">
<stop stop-color="#E28A30"/>
<stop offset="0.07" stop-color="#E1832C"/>
<stop offset="0.29" stop-color="#E07122"/>
<stop offset="0.43" stop-color="#DF691E"/>
<stop offset="0.7" stop-color="#DE5E18"/>
<stop offset="1" stop-color="#DE5A16"/>
</linearGradient>
<linearGradient id="paint1_linear_31_509" x1="0.134766" y1="13913.9" x2="3908.97" y2="13913.9" gradientUnits="userSpaceOnUse">
<stop stop-color="#E28A30"/>
<stop offset="0.16" stop-color="#E17B28"/>
<stop offset="0.42" stop-color="#DF691E"/>
<stop offset="0.7" stop-color="#DE5E18"/>
<stop offset="1" stop-color="#DE5A16"/>
</linearGradient>
<linearGradient id="paint2_linear_31_509" x1="5680.74" y1="13301.8" x2="40618.7" y2="13301.8" gradientUnits="userSpaceOnUse">
<stop stop-color="#E28A30"/>
<stop offset="0.16" stop-color="#E17B28"/>
<stop offset="0.42" stop-color="#DF691E"/>
<stop offset="0.7" stop-color="#DE5E18"/>
<stop offset="1" stop-color="#DE5A16"/>
</linearGradient>
<clipPath id="clip0_31_509">
<rect width="96.8604" height="68.6605" fill="white" transform="translate(0.134766 0.339355)"/>
</clipPath>
</defs>
</svg>
