<svg width="160" height="32" viewBox="0 0 160 32" fill="none" xmlns="http://www.w3.org/2000/svg">
<g clip-path="url(#clip0_30_201)">
<path fill-rule="evenodd" clip-rule="evenodd" d="M49.1523 0H5.3561C2.58178 0 0.336914 2.24487 0.336914 5.01919V21.7287C0.336914 24.503 2.58178 26.7267 5.33493 26.7267H26.0894L35.5771 32L33.4382 26.7267H49.1523C51.9266 26.7267 54.1714 24.503 54.1714 21.7287V5.01919C54.1714 2.24487 51.9266 0 49.1523 0ZM4.42439 3.87557C3.89494 3.87557 3.38667 4.1297 3.04782 4.55326C2.73015 4.97682 2.60308 5.52745 2.70897 6.03573C4.00083 14.2952 5.20798 19.865 6.35159 22.7452C6.77516 23.7829 7.28343 24.2912 7.87641 24.2488C8.80824 24.1853 9.9095 22.8934 11.2014 20.4156C11.9002 19.0179 12.9591 16.9001 14.3781 14.0834C15.5852 18.2343 17.1947 21.3474 19.249 23.4441C19.8208 24.0159 20.4138 24.2912 20.9856 24.2488C21.4939 24.2065 21.9386 23.91 22.1504 23.4441C22.3622 22.9993 22.4469 22.4911 22.4045 22.004C22.2775 19.992 22.4681 17.1965 23.0187 13.6175C23.5693 9.9113 24.2682 7.26405 25.1365 5.6757C25.3059 5.35803 25.3906 4.97682 25.3483 4.6168C25.3271 4.10852 25.073 3.64261 24.6706 3.34612C24.2894 3.02845 23.8023 2.8802 23.294 2.92255C22.6587 2.94373 22.108 3.32494 21.8327 3.89674C20.4773 6.39575 19.5031 10.4196 18.9313 16.0106C17.9995 13.5751 17.3006 11.0549 16.8559 8.49238C16.6017 7.20052 16.0088 6.58635 15.0346 6.64989C14.3781 6.69224 13.8274 7.13698 13.3827 7.96293L8.57529 17.1542C7.77052 13.9351 7.05047 10.0596 6.35159 5.46392C6.18217 4.3203 5.54683 3.79085 4.42439 3.87557ZM50.3168 8.00535C49.5756 6.67113 48.2838 5.7393 46.8013 5.46398C46.3989 5.37927 46.0177 5.33691 45.6153 5.33691C43.5187 5.33691 41.7821 6.43817 40.4479 8.61951C39.3043 10.4832 38.7113 12.6222 38.7325 14.8035C38.7325 16.4977 39.0925 17.959 39.7914 19.1662C40.5326 20.5004 41.8245 21.4322 43.3069 21.7075C43.7093 21.7922 44.0905 21.8346 44.4929 21.8346C46.6107 21.8346 48.3473 20.7333 49.6603 18.552C50.8039 16.6672 51.3969 14.507 51.3758 12.3257C51.3758 10.6314 51.0157 9.19132 50.3168 8.00535ZM47.5425 14.1046C47.246 15.5447 46.6742 16.6248 45.8695 17.366C45.2341 17.9378 44.6411 18.192 44.0905 18.0649C43.5399 17.9378 43.1163 17.4931 42.7986 16.646C42.5445 16.0106 42.4174 15.3329 42.4174 14.6552C42.4174 14.1046 42.4598 13.5752 42.5869 13.0457C42.7986 12.1139 43.201 11.2244 43.7517 10.4408C44.4929 9.36074 45.2553 8.916 46.0389 9.08543C46.5683 9.19132 47.0131 9.65723 47.3307 10.5044C47.5849 11.1397 47.712 11.8174 47.712 12.4951C47.712 13.0245 47.6484 13.5752 47.5425 14.1046ZM33.0144 5.46398C34.4969 5.7393 35.7888 6.67113 36.53 8.00535C37.25 9.19132 37.6101 10.6314 37.5889 12.3257C37.6101 14.5282 37.0171 16.6672 35.8735 18.552C34.5604 20.7333 32.845 21.8346 30.706 21.8346C30.3036 21.8346 29.9224 21.7922 29.5201 21.7075C28.0376 21.4322 26.7457 20.5004 26.0045 19.1662C25.3056 17.959 24.9456 16.4977 24.9456 14.8035C24.9244 12.6222 25.5174 10.4832 26.661 8.61951C27.9952 6.43817 29.7107 5.33691 31.8285 5.33691C32.2308 5.33691 32.6121 5.37927 33.0144 5.46398ZM32.0826 17.366C32.8874 16.6248 33.4592 15.5447 33.7557 14.1046C33.8616 13.5752 33.9251 13.0245 33.9251 12.4951C33.9251 11.8174 33.798 11.1397 33.5439 10.5044C33.2262 9.65723 32.7815 9.19132 32.252 9.08543C31.4473 8.916 30.6849 9.36074 29.9648 10.4408C29.4142 11.2244 29.0118 12.1139 28.8 13.0457C28.6729 13.5752 28.6306 14.1046 28.6306 14.6552C28.6306 15.3329 28.7576 16.0106 29.0118 16.646C29.3295 17.4719 29.7742 17.959 30.3036 18.0649C30.8543 18.192 31.4261 17.9378 32.0826 17.366Z" fill="#110F14"/>
<path d="M59.7211 7.81476C58.2598 9.27604 57.5186 11.1185 57.5186 13.3422C57.5186 15.7565 58.2387 17.7049 59.6999 19.1874C61.1612 20.6698 63.0461 21.4111 65.3968 21.4111C66.1804 21.3899 66.9428 21.2628 67.6841 21.051V17.4931C67.0275 17.7049 66.371 17.8108 65.6722 17.832C64.5074 17.832 63.5755 17.4508 62.8766 16.6672C62.1778 15.8836 61.8389 14.8247 61.8389 13.4905C61.8389 12.241 62.1778 11.2244 62.8766 10.3985C63.512 9.61489 64.4862 9.17015 65.5027 9.19133C66.244 9.19133 66.9852 9.29722 67.6841 9.509V5.92992C66.9005 5.73931 66.0957 5.63342 65.2909 5.63342C63.0461 5.63342 61.1824 6.35348 59.7211 7.81476ZM74.9905 5.63342C72.9574 5.63342 71.369 6.31112 70.2254 7.66651C69.0818 9.02191 68.51 10.9068 68.5312 13.321C68.5312 15.9471 69.103 17.9379 70.2254 19.3356C71.3479 20.7334 72.9997 21.4111 75.1599 21.4111C77.2354 21.4111 78.8449 20.7122 79.9673 19.3356C81.0898 17.9379 81.6616 16.0107 81.6616 13.4905C81.6616 10.9703 81.0898 9.04309 79.9461 7.68769C78.8025 6.31112 77.1506 5.63342 74.9905 5.63342ZM76.7271 17.0696C76.3671 17.6625 75.6894 18.0226 74.9905 18.0014C74.3128 18.0226 73.6986 17.6625 73.381 17.0696C73.0209 16.4554 72.8303 15.2059 72.8303 13.3634C72.8303 10.4832 73.5504 9.02191 75.0117 9.02191C76.5577 9.02191 77.3412 10.4832 77.3412 13.4058C77.3412 15.2271 77.1295 16.4342 76.7271 17.0696ZM92.5471 6.05698L91.7635 9.42429C91.5517 10.2926 91.3611 11.1609 91.1917 12.0715L90.7469 14.4011C90.3234 12.0715 89.7516 9.29722 89.0315 6.07816H83.9064L81.9792 21.051H85.8125L86.8502 10.7373L89.4763 21.051H92.2082L94.7072 10.7161L95.7873 21.0087H99.79L97.7569 6.05698H92.5471ZM110.866 6.05698L110.082 9.42429C109.87 10.2926 109.68 11.1609 109.51 12.0715L109.066 14.4011C108.642 12.0715 108.07 9.29722 107.35 6.07816H102.246L100.319 21.0298H104.152L105.19 10.7161L107.816 21.0298H110.548L113.026 10.7161L114.106 21.0087H118.109L116.076 6.05698H110.866ZM123.297 15.1H126.898V11.9868H123.297V9.23369H127.427V6.05698H119.252V21.0298H127.469V17.832H123.297V15.1ZM138.863 12.7281C140.007 10.9279 139.562 8.53481 137.825 7.26413C136.724 6.43819 135.22 6.03581 133.314 6.03581H128.592V21.0087H132.637V14.2105H132.7L135.962 21.0298H140.24L136.999 14.2741C137.783 13.9564 138.418 13.4269 138.863 12.7281ZM132.658 12.4951V8.93719C133.611 8.95837 134.31 9.1278 134.712 9.42429C135.136 9.72078 135.326 10.2079 135.326 10.9068C135.326 11.9445 134.437 12.4739 132.658 12.4951ZM141.87 7.81476C140.409 9.27604 139.668 11.1185 139.668 13.3422C139.668 15.7565 140.388 17.7049 141.849 19.1662C143.311 20.6486 145.195 21.3899 147.546 21.3899C148.33 21.3687 149.092 21.2628 149.855 21.051V17.4931C149.198 17.7049 148.541 17.8108 147.843 17.832C146.678 17.832 145.746 17.4508 145.047 16.6672C144.348 15.8836 143.988 14.8247 143.988 13.4905C143.988 12.241 144.327 11.2244 145.026 10.3985C145.661 9.61489 146.635 9.17015 147.652 9.19133C148.393 9.19133 149.134 9.29722 149.855 9.509V5.92992C149.071 5.73931 148.266 5.63342 147.44 5.63342C145.195 5.63342 143.353 6.35348 141.87 7.81476ZM155.001 17.832V15.1H158.601V11.9868H155.001V9.23369H159.13V6.05698H150.935V21.0298H159.173V17.832H155.001Z" fill="#110F14"/>
</g>
<defs>
<clipPath id="clip0_30_201">
<rect width="160" height="32" fill="white"/>
</clipPath>
</defs>
</svg>
